<?xml version="1.0" standalone="no"?>
<!DOCTYPE svg PUBLIC "-//W3C//DTD SVG 1.1//EN" "http://www.w3.org/Graphics/SVG/1.1/DTD/svg11.dtd" >
<svg xmlns="http://www.w3.org/2000/svg">
<metadata>
This is a custom SVG webfont generated by Font Squirrel.
Designer    : Vincent Connare
Foundry     : Microsoft Corporation
Foundry URL : httpwwwmicrosoftcom
</metadata>
<defs>
<font id="GJMrealbookRegular" horiz-adv-x="1139" >
<font-face units-per-em="2048" ascent="1638" descent="-410" />
<missing-glyph horiz-adv-x="500" />
<glyph horiz-adv-x="1024" d="M64 0v1523h896v-1523h-896zM896 64v1395h-768v-1395h768z" />
<glyph horiz-adv-x="0" />
<glyph unicode=" "  horiz-adv-x="500" />
<glyph unicode="&#x09;" horiz-adv-x="500" />
<glyph unicode="&#xa0;" horiz-adv-x="500" />
<glyph unicode="&#x22;" horiz-adv-x="528" d="M465 1215q0 -60 -3.5 -88.5t-17.5 -58.5l-60 29t-36 19q-27 16 -39.5 36.5t-12.5 44.5v60v17q0 28 -3 55v80l4 79q0 14 5 29q2 11 8.5 17.5t22.5 12.5q20 -8 33.5 -12.5l22.5 -7.5q23 -8 33 -15q19 -11 28.5 -26t11.5 -37l2 -109l1 -98v-27zM251 1238q0 -97 -21 -144 q-91 39 -96 43q-53 34 -53 84v60v17q0 26 -3 58v77q0 16 2 37.5t4 40.5q4 22 7 32t11 25q15 0 25 -2.5t20 -5.5q41 -10 60 -24q33 -21 41 -64l1 -110v-59t2 -40v-25z" />
<glyph unicode="#" horiz-adv-x="565" d="M554 1074q0 -49 -49 -82q-17 -8 -102 -53l8 -121q44 31 63 31q35 0 64.5 -48t29.5 -79q0 -68 -37 -112l-97 -86q28 -197 28 -348q0 -68 -33 -68q-35 0 -51 215q-12 143 -26 166q-38 -2 -59 -23l28 -417q2 -51 -23 -51q-22 0 -31 14q-28 39 -42 430h-12q-5 -4 -61 -23 q-113 101 -113 133q0 51 76.5 103.5t76.5 62.5q0 74 -10 100q-84 -33 -94 -33q-23 0 -40 78q-14 64 -14 102q0 52 21 80q10 14 57 35.5t63 34.5l-14 276q-5 90 19 90q52 0 68 -329q35 0 73 26q5 12 5 43q0 67 -12 200t-12 199q0 143 43 143q4 -4 23 -31q28 -61 38 -527h30 q118 0 118 -131zM340 902q-26 -12 -52 -21q-37 -16 -40 -30q5 -31 14 -100q19 8 54 20q29 12 29 33q0 8 -5 98z" />
<glyph unicode="$" horiz-adv-x="1093" d="M365 1077q-61 -61 -69 -116q-3 -17 15.5 -24t57.5 -7zM518 934l-7 236l-17.5 -7t-20.5 -10v-112v-108zM689 33q19 -105 54 -223q24 -82 24 -122q0 -56 -18 -103l-34 -89q-39 6 -75 156q-31 131 -59 375h-55q14 -98 29 -154l29 -105q0 -19 -16 -62q-23 -63 -63 -96 q-49 37 -73.5 139t-24.5 278h-147q-1 11 11 131l25 248q13 12 37.5 24.5t49.5 21.5l-3 118h-43.5t-60.5 -4q-122 24 -156 67q-54 67 -54 276q0 172 90 312q72 113 199 200l-9 107q0 78 22 148q17 52 49 108q34 0 47 -40q9 -27 9 -76v-178q14 6 21.5 9.5t12.5 4.5 q0 134 5.5 226.5t26.5 177.5q26 105 77 185q25 -12 25 -67q-9 -117 -15.5 -235.5t-6.5 -250.5h6q27 0 66.5 -57.5t39.5 -100.5q-1 -13 -1 -24q-5 -62 -24 -149q-45 0 -90 -8l3 -270q179 0 280 -82q128 -104 128 -332q0 -249 -84 -361q-78 -104 -254 -123zM548 403l-11 154 l-55 8q0 -16 2 -52t2 -37q27 0 42 -37q10 -25 20 -36zM634 537l12 -160q60 0 94 7q51 10 61 37q4 28 -41.5 60t-125.5 56z" />
<glyph unicode="%" horiz-adv-x="1038" d="M971 1628q-11 -59 -80 -185l-162 -282q-121 -215 -204 -387q-26 -56 -69 -141.5t-61 -124.5q-25 -56 -37 -97q-8 -46 -14 -110q-12 -142 -17 -172q-14 -80 -47 -127q-41 -59 -122 -83q-19 -3 -34 0q-55 10 -72 71q-13 44 -3 101l3.5 16t7.5 22q33 80 221 461 q222 448 379 734q217 396 280 400q18 -4 25 -13q17 -21 6 -83zM865 655q-35 -26 -93 -112.5t-72 -149.5q-142 34 -157 230q21 68 92 163q85 117 143 105q81 -81 87 -236zM460 1157l-199 -274q-111 77 -117 245l199 273q111 -76 117 -244z" />
<glyph unicode="&#x26;" horiz-adv-x="1340" d="M1175 -94q-67 0 -111 66l-90 151q-201 -165 -441 -165q-201 0 -345 119q-153 125 -153 318q0 186 150 323q48 45 314 215q-58 160 -58 281q0 108 92 224q99 126 217 126q136 0 223 -87q83 -83 83 -203q0 -232 -238 -411q70 -142 154 -273l33 157q34 95 114 95 q59 0 95 -55q31 -47 31 -105q0 -186 -98 -357q161 -238 161 -298q0 -52 -41 -86.5t-92 -34.5zM750 1317q-28 -3 -46 -39q-15 -31 -15 -63q0 -14 19 -77q21 -70 22 -77q33 33 64 85q35 58 35 91q0 45 -11 61q-17 24 -68 19zM612 720l-207 -132q-112 -88 -112 -193 q0 -85 72 -139q69 -52 168 -52q168 0 298 128q-61 91 -219 388z" />
<glyph unicode="'" horiz-adv-x="332" d="M255 1215q0 -60 -3.5 -88.5t-17.5 -58.5l-60 29t-36 19q-27 16 -39.5 36.5t-12.5 44.5v60v17q0 28 -3 55v80l4 79q0 14 5 29q2 11 8.5 17.5t22.5 12.5q20 -8 33.5 -12.5l22.5 -7.5q23 -8 33 -15q19 -11 28.5 -26t11.5 -37l2 -109l1 -98v-27z" />
<glyph unicode="(" horiz-adv-x="576" d="M360 -15q-3 -12 -14 -12q-31 0 -99.5 85t-111.5 179q-81 197 -81 457q0 96 24 246q37 227 108 360q107 203 204 322q83 102 123 102q16 0 17 -24q4 -82 -28 -113l-96 -72q-79 -73 -156 -233q-116 -203 -123 -524q-4 -256 61 -441q25 -78 105 -198q69 -107 69 -125 q0 -7 -2 -9z" />
<glyph unicode=")" horiz-adv-x="536" d="M167 1690q51 -38 113 -151l112 -233q82 -218 82 -515q0 -47 -2 -89q-16 -264 -131 -648q-6 -2 -6 7q0 -18 34.5 164t34.5 381q0 149 -20 308q-27 183 -45 241q-45 149 -178 363q-76 70 -76 132q0 49 82 40z" />
<glyph unicode="*" horiz-adv-x="1085" d="M47 1315q0 37 26 66t62 29q24 0 271 -97q-8 139 -8 192q0 39 25.5 64t63.5 25q39 0 64.5 -25t25.5 -64q0 -55 6 -169q240 36 294 36q37 0 61.5 -26.5t24.5 -64.5q0 -70 -75 -86q-70 -15 -247 -36q58 -53 126 -136q89 -110 89 -153q0 -36 -28 -62.5t-64 -26.5 q-38 0 -69 36q-61 82 -199 235q-206 -233 -279 -233q-36 0 -63.5 28t-27.5 64q0 34 32 66q64 54 186 173q-82 26 -240 87q-57 25 -57 78z" />
<glyph unicode="+" horiz-adv-x="700" d="M684 612q-23 -90 -78 -120q-33 -19 -148 -31q19 -113 19 -154q0 -141 -86 -141q-25 0 -58 22q-4 43 -18 128t-19 128q-153 -8 -256 -8q-18 0 -18 19q0 45 45 106q39 53 215 62q-2 18 -2 82q0 141 12 204q35 27 80 27q33 0 53 -14v-48q0 -120 13 -237q119 10 194 10 q35 0 52 -35z" />
<glyph unicode="," horiz-adv-x="531" d="M510 110q0 -16 -0.5 -30t-5 -26t-18.5 -43l-27 -55l-283 -219l40 95q2 5 4 20q6 35 7 43q0 103 -35 138t-117 35l282 217q86 0 119.5 -35t33.5 -140z" />
<glyph unicode="-" horiz-adv-x="743" d="M106 528q-47 0 -47 37q0 25 30.5 86.5t51.5 81.5q8 8 86 21q31 4 91 16t179 41q142 33 168 33q31 0 31 -25q0 -26 -29 -96q-28 -76 -47 -84q-51 -27 -250.5 -69t-263.5 -42z" />
<glyph unicode="." horiz-adv-x="320" d="M156 -93q-52 0 -88 36t-36 88q0 51 36 87.5t88 36.5q51 0 87.5 -36.5t36.5 -87.5q0 -52 -36.5 -88t-87.5 -36z" />
<glyph unicode="/" horiz-adv-x="502" d="M742 1742q-110 -170 -282 -637l-163 -465l-182 -566q-159 -485 -196 -512q-64 -12 -64 71q0 51 22 125l42 123l130 385q164 478 338 937q238 630 278 630q29 0 53.5 -20t24.5 -52q0 -15 -1 -19z" />
<glyph unicode="0" horiz-adv-x="822" d="M794 524q0 -195 -108 -361q-115 -177 -272 -177q-87 0 -172 96q-90 101 -143 274q-60 194 -60 433q0 145 58.5 359.5t138.5 358.5q93 166 178 166q80 0 115 -45q27 -35 27 -97q0 -29 -5.5 -57l-10.5 -55q47 -46 93 -111q52 -73 86 -182.5t54.5 -282.5t20.5 -319zM627 611 q0 112 -48 266q-56 180 -126 191v273q-4 1 -12 1q-57 0 -127 -115q-62 -102 -108.5 -244t-46.5 -224q0 -141 58 -256q45 -89 118 -151q59 -50 91 -50q82 0 143 101q58 96 58 208z" />
<glyph unicode="1" horiz-adv-x="668" d="M680 116q-133 -56 -265 -90q-104 -27 -210 -39q-77 -9 -138 -9q-19 0 -30 0.5t-19 1.5l21 263q14 9 116 18t117 18q9 8 9 146q0 179 -11.5 382.5t-27.5 251.5q-31 -76 -49.5 -164l-28.5 -136q-6 -5 -13 -8t-13 -3q-21 0 -33.5 34.5t-12.5 92.5q12 102 55 271l73 276.5 t37 182.5q11 12 30.5 18t42.5 6q51 0 69 -24l26 -1309q45 0 107 17q133 37 148 40v-237z" />
<glyph unicode="2" horiz-adv-x="893" d="M849 410q0 -147 -182 -294q-188 -152 -395 -152q-59 0 -90 40q-38 49 -38 172q0 19 1 53t1 47q0 160 50 319q24 77 112 281q80 185 114 311l28 102q0 22 -13 34t-45 12q-86 0 -133 -78q-50 -83 -50 -229v-12.5t1 -7.5v-138q0 -31 -33 -68q-39 -43 -87 -43q-16 0 -34 6 q0 9 -10 138q-6 77 -6 116q0 50 3.5 87.5t12.5 80.5q33 149 67 232q50 122 124 186q89 77 218 77q84 0 114 -79q20 -53 20 -166v-51q0 -218 -59 -433q-38 -138 -126 -349q-92 -221 -118 -311l26 -12q16 -5 32 -5q64 0 159 63q280 185 294 191q5 -35 24 -81q6 -15 18 -39z " />
<glyph unicode="3" horiz-adv-x="759" d="M732 618q0 -212 -134 -421t-263 -209q-92 0 -130 69q-28 51 -28 146q0 63 34 121q29 50 79 89q59 -30 59 -88q0 -13 -5 -28q60 16 123 88q51 57 93 137q37 70 37 96q0 22 -32 41q-42 25 -118 25q-82 0 -159 -52q-28 -19 -124 -105q-41 0 -55.5 28.5t-14.5 89.5 q0 23 2 86.5t2 78.5l101 151q85 130 131 216q65 121 65 170q0 36 -35 32q-77 -10 -127 -83q-37 -53 -66 -155l-39 -152q-23 -23 -46 -23t-44 23q-11 53 -11 105q0 57 11 126q5 34 16 85q37 166 114 265q90 116 221 116q75 0 115 -72q35 -63 35 -163q0 -109 -17 -186 t-53 -154q-14 -30 -80 -152q47 11 93 11q138 0 201 -115q49 -89 49 -237z" />
<glyph unicode="4" horiz-adv-x="903" d="M878 536q0 -19 -53 -41q-18 -7 -93 -33q17 -103 30 -196.5t13 -161.5q0 -20 -0.5 -43t-7.5 -58h-104q-8 38 -22 153q-21 177 -63 267q-98 -36 -208.5 -63t-171.5 -27q-76 0 -108.5 24t-39.5 89q-1 11 -1.5 20t-0.5 17q0 159 116 458q105 269 244.5 507t205.5 249 q15 -28 20 -53.5t5 -61.5q0 -38 -1 -63q-5 -126 -5 -173q0 -104 6.5 -232t23.5 -328q24 3 60 11q129 29 132 30q17 -30 20 -136.5t3 -154.5zM548 740q-15 101 -27 218q-17 164 -17 274q-28 -35 -89.5 -149.5t-110.5 -220.5q-56 -122 -71 -179q80 0 187 23q66 14 128 34z" />
<glyph unicode="5" horiz-adv-x="683" d="M659 629q0 -263 -89 -452q-104 -221 -288 -221q-88 0 -127 42q-21 23 -56 112v231q3 2 26 15q17 9 24 18q24 -51 41 -80q32 -54 67 -54q90 0 182 89q104 100 104 226q0 51 -59 120q-67 78 -139 78q-42 0 -111 -50q-52 -38 -85 -74q-22 2 -33 6q-33 12 -33 42l-30 469 q0 264 55 352q61 98 297 184v-194q0 -82 -55 -104q-81 -32 -102 -61q-56 -77 -56 -289v-81q44 34 61 45q29 19 68 19q140 0 241 -121q97 -116 97 -267z" />
<glyph unicode="6" horiz-adv-x="848" d="M827 789q0 -238 -78 -430q-69 -171 -183 -272q-107 -95 -213 -95q-116 0 -208 120q-106 139 -106 362q0 111 36 368q48 342 118 556q94 287 212 287q44 0 71 -24t27 -63q0 -74 -8 -128q-11 -76 -40 -121q-6 -10 -26 -10q-9 0 -19 1t-19 2q-18 0 -26 -10 q-51 -100 -80.5 -221t-60.5 -365q-8 -64 -8 -132q0 -53 7.5 -94.5t25.5 -64.5q11 131 69 304q62 183 141 302q92 138 179 138q89 0 135 -78q54 -92 54 -332zM689 719q0 40 -5 65q-9 46 -36 64q-38 0 -105 -103q-59 -91 -108.5 -208t-49.5 -161q0 -8 1 -11q81 0 159 85 q58 63 105 163q39 83 39 106z" />
<glyph unicode="7" horiz-adv-x="825" d="M828 1472q-28 -219 -102 -589q-49 -246 -124 -579q-59 -262 -60 -262q0 -21 -15 -31l-41 -20q-46 29 -54 38q-23 26 -23 79q0 9 0.5 17t1.5 15q12 125 71 396q41 189 105 443q52 207 58.5 219.5t6.5 24.5q0 11 -6 19q-18 25 -19 29q-225 0 -341 -16.5t-281 -76.5v376 q60 54 237 92q159 34 300 34t214.5 -45.5t73.5 -133.5v-14q-2 -10 -2 -15z" />
<glyph unicode="8" horiz-adv-x="822" d="M794 198q-36 -117 -108.5 -176.5t-185.5 -59.5q-163 0 -270 125q-32 39 -62 96t-57 134q-3 10 -5 19.5t-2 14.5q-5 6 -9 18.5t-5 16.5q-16 48 -16 108q0 39 6 76.5t18 88.5q31 95 77 142q54 56 157 83q-32 38 -69 73q-67 63 -75 80q-32 48 -47 87q-16 48 -24.5 97 t-8.5 102q0 79 22.5 162.5t80.5 137.5q52 48 98 48q45 0 91.5 -19.5t91.5 -58.5q33 -28 59.5 -66t44.5 -82q19 -61 30.5 -144t11.5 -177q0 -57 -12 -109q-15 -65 -56 -140l58 -43l68 -49q23 -22 41.5 -51.5t32.5 -65.5q49 -146 49 -280q0 -98 -25 -188zM492 1131q4 19 4 42 q0 18 -3.5 42t-10 49t-17 44t-28.5 35q-26 35 -71 43q-16 4 -33 4q-53 0 -70 -62q-2 -8 -2 -18v-15q0 -39 15 -92q8 -22 19 -44q8 -16 23 -40q19 -20 38.5 -35t36 -20t28.5 -5q26 0 44 16.5t27 55.5zM549 339q4 19 6 35t2 35q0 31 -6 60.5t-17 61.5t-19 49t-24 37 q-28 35 -65 48l-19 4l-20 5q-36 0 -61 -26.5t-32 -81.5q0 -50 4.5 -89t18.5 -87q8 -27 17.5 -48.5t24.5 -39.5q13 -21 31.5 -35t37 -20.5t35.5 -6.5q32 0 54 23t32 76z" />
<glyph unicode="9" horiz-adv-x="692" d="M669 1110q0 -183 -14 -344q-23 -260 -77 -440q-72 -236 -194 -328q-21 -15 -56 -15q-30 0 -59 15q-19 31 -30.5 89t-11.5 114q0 48 6 81.5t19 46.5q17 7 38.5 9.5t48.5 2.5q82 91 141 318q54 207 54 372q0 110 -70 198t-149 88q-65 0 -99 -45q-27 -36 -27 -84 q0 -109 77 -165q8 -6 145 -67q78 -35 78 -93q3 -33 -35 -139q-43 -122 -85 -122q-167 0 -252 186q-67 147 -67 364q0 167 15 257q21 125 75 189q62 73 174 73q163 0 259 -154t96 -407z" />
<glyph unicode=":" horiz-adv-x="479" d="M415 236q0 -31 -26 -93q-31 -75 -69 -90q-22 -4 -63 -5t-72 -1q-17 0 -30.5 10.5t-13.5 26.5q0 32 36 101q33 63 54 83q5 3 36 5t61 2q47 0 59 -2q28 -7 28 -37zM377 945q0 -31 -26 -93q-31 -75 -69 -90q-22 -4 -63 -5t-72 -1q-17 0 -30.5 10.5t-13.5 26.5q0 32 36 101 q33 63 54 83q5 3 36 5t61 2q47 0 59 -2q28 -7 28 -37z" />
<glyph unicode=";" horiz-adv-x="479" d="M477 110v-19t1 -17q0 -11 -3.5 -24.5t-37.5 -93.5l-268 -219l34 95q2 7 3 27.5t3 35.5q0 49 -11.5 83.5t-32.5 54.5q-17 16 -48 25.5t-72 9.5l267 217q87 0 121 -34q17 -16 27 -50.5t17 -90.5zM368 948q0 -31 -26 -93q-31 -75 -69 -90q-22 -4 -63 -5t-72 -1 q-17 0 -30.5 10.5t-13.5 26.5q0 32 36 101q33 63 54 83q5 3 36 5t61 2q47 0 59 -2q28 -7 28 -37z" />
<glyph unicode="&#x37e;" horiz-adv-x="479" d="M477 110v-19t1 -17q0 -11 -3.5 -24.5t-37.5 -93.5l-268 -219l34 95q2 7 3 27.5t3 35.5q0 49 -11.5 83.5t-32.5 54.5q-17 16 -48 25.5t-72 9.5l267 217q87 0 121 -34q17 -16 27 -50.5t17 -90.5zM368 948q0 -31 -26 -93q-31 -75 -69 -90q-22 -4 -63 -5t-72 -1 q-17 0 -30.5 10.5t-13.5 26.5q0 32 36 101q33 63 54 83q5 3 36 5t61 2q47 0 59 -2q28 -7 28 -37z" />
<glyph unicode="&#x3c;" horiz-adv-x="1116" d="M1000 494q-31 -57 -120 -111q-82 -49 -123 -49q-7 0 -9 1q-49 32 -226 73l-282 65l-123 66q37 59 191 130q29 13 299 120q184 73 258 123q15 7 53 -23t38 -42q-13 -54 -119 -105q-67 -33 -191 -71q-101 -31 -101 -35q0 -5 125 -31q157 -33 226 -53z" />
<glyph unicode="=" horiz-adv-x="1088" d="M900 921q0 -49 -17 -101q-13 -40 -35 -76q-19 -28 -118 -39t-246 -11q-124 0 -258 6q-47 2 -118 7l42 96q24 53 32 64q22 39 146 58.5t283 19.5q95 0 169 -6t120 -18zM984 536q-12 -49 -27 -89t-30 -60q-18 -30 -121 -44q-82 -11 -222 -11q-122 0 -272 9q-50 3 -126 9 l47 97q27 57 33 63q27 48 60 68.5t76 20.5q44 0 139 2.5t125 2.5q111 0 221 -10q47 0 60 -6q22 -10 37 -52z" />
<glyph unicode="&#x3e;" horiz-adv-x="1116" d="M1005 719q-37 -59 -191 -130q-29 -13 -299 -120q-184 -73 -258 -123q-15 -7 -53 23t-38 42q13 54 119 105q67 33 191 71q101 31 101 35q0 5 -125 31q-157 33 -226 53l-104 58q31 57 120 111q82 49 123 49q7 0 9 -1q49 -32 226 -73l282 -65z" />
<glyph unicode="?" horiz-adv-x="1071" d="M1005 1326q0 -48 -68 -168q-39 -68 -126 -202q-68 -104 -68 -116q16 -12 29 -32.5t13 -59.5q0 -57 -68.5 -147.5t-106.5 -90.5q-41 0 -88 36q-54 41 -54 87q0 93 82 214q27 40 152 192q83 101 83 142q0 92 -132 134q-103 33 -279 33q-85 0 -162.5 -6.5t-126.5 -15.5 q-19 -4 -19 29q0 57 45 146q51 101 117 147q36 16 111.5 27t161.5 11q227 0 351 -69q98 -55 133 -150q20 -55 20 -141zM913 300q0 -44 -99 -174q-94 -123 -121 -135q-10 -5 -18 -5q-21 0 -48 25l-22 23q45 112 95.5 200.5t80.5 108.5q14 4 22 6q29 7 46 7t25.5 -2.5 t17 -10.5t17.5 -32q1 -3 4 -11z" />
<glyph unicode="@" horiz-adv-x="1314" d="M1254 409q-54 -190 -288.5 -331.5t-492.5 -141.5q-75 0 -159 68q-89 72 -146 190q-65 135 -65 292q0 202 60 483q68 319 174 521q128 244 280 244q102 0 237 -136q129 -129 220 -310q97 -192 97 -338q0 -86 -19 -186q-25 -134 -74 -222q-61 -110 -149 -124q-33 -5 -66 26 q-12 11 -37 40q-61 -72 -102 -107q-81 -71 -141 -71q-93 0 -161.5 93.5t-68.5 200.5q0 79 33 205q39 150 98 244q74 119 163 119q103 0 172 -75q51 -56 88 -157l43 -131q27 14 44 37q25 35 25 89q0 37 -65 165q-73 144 -151 241q-100 124 -172 124q-61 0 -130 -64 q-98 -91 -158 -282q-78 -248 -78 -631q0 -80 97 -181q104 -109 204 -109q98 0 244 74q100 51 232.5 141.5t146.5 96.5q23 -2 34 -7q35 -16 35 -58q0 -5 -0.5 -11.5t-3.5 -20.5zM713 856q0 29 -19 50q-22 24 -59 24q-27 0 -62 -63.5t-35 -124.5q0 -45 19 -66q11 -13 50 -31 q14 -6 26 -6q43 0 64 77q16 59 16 140z" />
<glyph unicode="A" horiz-adv-x="900" d="M877 88q0 -88 -58 -88q-84 0 -119 79q-27 62 -37 178q-11 132 -25 176q-195 -67 -241 -86q-192 -76 -208 -118q0 -30 9 -88t9 -88q0 -2 -5 -53h-155q-9 30 -9 79q0 363 102 864q125 618 315 725q118 -7 185 -294q23 -132 74 -392q119 -540 153 -799q10 -67 10 -95z M548 739q0 72 -42 227t-79 211q-58 -54 -113 -276q-49 -192 -49 -306q283 109 283 144z" />
<glyph unicode="B" horiz-adv-x="1014" d="M1008 690q7 -48 7 -94q0 -257 -169.5 -425.5t-426.5 -168.5q-138 0 -193.5 61.5t-55.5 202.5q0 163 99 212l-21 240q-14 150 -14 240q-50 -20 -97 -20q-85 0 -85 154q0 185 188 400t369 215q247 0 265 -206q2 -25 2 -58q0 -298 -230 -459q32 7 101 9q97 5 168.5 -78.5 t92.5 -224.5zM662 1379q0 30 -23.5 55t-53.5 25q-69 0 -153 -101.5t-84 -172.5q0 -3 32 -171q164 101 261 300q21 44 21 65zM636 762q-76 0 -137 -42.5t-87 -112.5q3 -145 7 -189q12 -132 37 -178h21q9 -2 18 -2q199 0 301 277q16 44 16 78q0 77 -48.5 123t-127.5 46z" />
<glyph unicode="C" horiz-adv-x="1030" d="M987 162q0 -94 -46 -161h-680q-202 130 -202 733q0 295 88 563q121 365 352 365q316 0 316 -637q0 -149 -26 -284q-41 -7 -81 -28q-121 2 -121 237q0 35 2.5 103.5t2.5 103.5q0 163 -72 163q-35 0 -98 -58q-233 -214 -233 -519q0 -414 228 -435h528q42 -58 42 -146z" />
<glyph unicode="D" horiz-adv-x="1148" d="M1086 864q0 -357 -53 -542q-91 -323 -359 -323q-107 0 -255 30q-175 34 -237 82q-14 113 -36 393l95 -23q-18 151 -36 274q-21 138 -59 268l-80 -68v346q132 189 216 259q137 114 312 114q310 0 421 -271q71 -173 71 -539zM981 923q0 137 -96 264q-102 137 -232 137 q-123 0 -387 -239q46 -121 69 -301l31 -307q130 -64 269 -64q118 0 175 30q82 43 132 216q39 137 39 264z" />
<glyph unicode="E" horiz-adv-x="963" d="M894 288q0 -46 -35 -220q-14 -74 -83 -74q-12 0 -35 2.5t-35 2.5h-518q-37 115 -76 527q-35 368 -35 551q0 176 243 382q227 190 414 222h9q47 0 47 -62q0 39 -14 -24l-28 -145q-16 -93 -25 -105q-23 -32 -84 -55q-101 -39 -155 -76q-83 -58 -159 -149q-95 -111 -95 -187 q0 -51 55 -49q387 167 417 167q48 0 48 -72q0 -21 -5.5 -60t-5.5 -60q0 -125 -60 -183q-35 -35 -176 -85l-250 -98q0 -102 60 -127q319 25 502 25q79 0 79 -48z" />
<glyph unicode="F" horiz-adv-x="795" d="M716 555q-44 -25 -230 -74q-168 -44 -198 -79q12 -158 12 -256q0 -149 -26 -149q-81 0 -102 88q-3 12 -12 156q-5 65 -44 526q-28 319 -28 528q0 77 19 140q53 61 241.5 155t263.5 94q53 0 62 -65q3 -7 3 -103q0 -2 2 -16v-25v-42q0 -51 -14 -82q-21 -46 -121 -95 q-221 -107 -323 -179l9 -328q7 -3 26 -3q76 0 231 63t190 63q53 0 53 -207q0 -84 -14 -110z" />
<glyph unicode="G" horiz-adv-x="1164" d="M976 -361q-11 487 -11 501q0 23 -14 39q-23 -5 -90 -49q-93 -60 -151 -85q-106 -47 -205 -47q-253 0 -366 278q-81 197 -81 495q0 289 95 560q127 361 361 361q162 0 229 -118q35 -62 76 -264q49 -238 49 -277q0 -42 -33 -42q-95 0 -141 88q-18 55 -60 162 q-37 88 -116 88q-131 0 -240 -255q-93 -217 -93 -372q0 -151 82.5 -240t230.5 -89q145 0 231 84v55h-275l-7 322q88 53 324 53q162 0 233 -169q56 -132 63 -356q2 -107 -9 -637q-20 -90 -82 -86z" />
<glyph unicode="H" horiz-adv-x="963" d="M903 -14q-14 -16 -38.5 -23.5t-53.5 -7.5q-41 0 -59 13q-37 56 -66 214q-17 93 -38 268q-17 138 -24 147q-35 -22 -108 -39.5t-181 -17.5q7 -79 10.5 -151t3.5 -130q0 -66 -3.5 -124l-7.5 -121q-36 -21 -92 -21t-82 21q-16 19 -21.5 76t-5.5 147q0 66 1 134l2 136 l-63 1049q15 19 44.5 28.5t63.5 9.5q42 0 75 -13q13 -108 15 -260.5t4 -275.5t17 -160q52 0 145 21l137 32q0 45 0.5 230.5t1.5 355.5t2 170q16 8 32 11t37 3q35 0 66.5 -11t40.5 -24q18 -84 26 -274t8 -425q0 -178 28 -427q19 -171 54 -390q27 -171 29 -171z" />
<glyph unicode="I" horiz-adv-x="537" d="M434 287q10 -73 10 -135q0 -57 -11 -89.5t-37 -32.5q-33 -30 -76 -30q-40 0 -78 30q0 127 -28.5 318.5l-56.5 397t-28 399.5q0 196 8 339q2 49 9 111q17 9 28 13q37 14 68 14q23 0 42.5 -5.5t38.5 -21.5q0 -178 28 -508q18 -217 54 -545q28 -255 29 -255z" />
<glyph unicode="J" horiz-adv-x="983" d="M912 1361q-83 -8 -167 -46q-67 -30 -151 -90q-56 -39 -139 -109q-124 -106 -175 -220q-22 -48 -39 -150q-10 -56 -43 -56q-75 0 -103 53q-6 12 -27 102q-3 17 -4 43t-1 29q0 187 167 383q131 153 328 277q169 106 230 106q43 0 70 -11q18 -8 53 -35q16 -16 23.5 -44 t7.5 -62q0 -50 -15 -115q-5 -21 -15 -55zM819 245v-31q0 -93 -20 -146q-33 -88 -121 -88q-20 0 -93 25q-109 37 -179 94q-99 80 -109 192q0 17 -1.5 41.5t-2.5 53.5q0 37 7 57.5t30 33.5q15 7 71 -31.5l111 -76.5q68 -44 98 -44q20 0 28 14q2 4 2 11q-20 132 -35 257 t-15 223v327l58 41q26 17 48 17q24 0 62 -19v-57q-3 -208 -3 -225q0 -121 16 -289q11 -116 31 -264q16 -116 17 -116z" />
<glyph unicode="K" horiz-adv-x="1004" d="M942 -30q-66 8 -158 37.5l-184 60.5q-128 41 -222 63q9 -28 13 -43q14 -49 14 -67q0 -13 -6 -13h-177q-46 191 -85 610q-25 270 -49 685q-9 162 -17 325h70h81q28 -64 41 -268l16.5 -339.5t29.5 -177.5l149 258q101 179 153 295q70 156 70 232q0 17 13.5 24t38.5 7 q36 0 92 -15q19 -5 50 -16q0 -225 -120 -518t-312 -532q-1 -3 -1 -10q0 -44 125 -98q50 -21 237 -85q132 -45 138 -62v-353z" />
<glyph unicode="L" horiz-adv-x="1160" d="M1090 20q-125 -13 -204 -18t-176 -5q-165 0 -432 23q-9 35 -43 128q-26 71 -46 170q-30 145 -60 389q-4 25 -12 145t-14 267t-6 264q0 98 4.5 161.5t14.5 92.5q47 0 76.5 -4.5t49.5 -24.5q19 -96 26 -263.5l14 -342.5q14 -266 47 -538q84 -8 160 -12.5t124 -4.5 q34 0 223 11q103 6 200 6q11 -52 32 -235q13 -119 22 -209z" />
<glyph unicode="M" horiz-adv-x="1401" d="M1346 -9h-149q-49 124 -82 266q-29 122 -48 262q-10 72 -29 252q-34 -119 -72 -204q-51 -113 -115 -178q-76 -77 -163 -77q-58 0 -120 32q-68 35 -139 108q-31 -107 -38.5 -194.5t-7.5 -224.5q-14 -14 -43.5 -22t-59.5 -8q-67 0 -100 30q-42 20 -65.5 219t-32 531.5 t-8.5 830.5h133q35 -52 104 -288q75 -257 130 -361q94 -177 224 -177q92 0 182 185q51 104 142 383q82 248 126 321q16 -8 42 -29q10 -8 67 -59q-1 -44 -1.5 -98t-0.5 -84q0 -230 7 -417q11 -287 35 -517q30 -283 82 -482z" />
<glyph unicode="N" horiz-adv-x="1268" d="M1194 207q0 -16 1 -42t1 -37q0 -33 -4.5 -64.5t-18.5 -84.5h-117q-42 57 -195 229q-178 200 -321 346q-187 191 -273 249q0 -156 12 -309q6 -79 22 -216q12 -104 12 -142t-7 -62q-6 -14 -21 -20.5t-36 -6.5q-44 0 -88 22q-15 48 -27 120q-20 120 -30 297q-14 237 -14 569 q0 69 9.5 224.5t22.5 256.5q15 6 32.5 9t30.5 3q21 0 43.5 -6t44.5 -22q9 -14 12.5 -31.5t3.5 -39.5q0 -9 -1 -29t-1 -31v-16.5t4 -22.5l575 -613q-18 138 -21 166q-12 105 -17.5 183.5t-5.5 182.5q0 61 13 194q18 179 43 247q14 0 42 6t43 6q21 0 37.5 -8.5t30.5 -33.5 q0 -9 -11 -187q-6 -97 -6 -171q0 -72 4 -152t14 -178q23 -207 65 -366l65 -217t32 -202z" />
<glyph unicode="O" horiz-adv-x="972" d="M902 825q0 -225 -10 -334q-21 -228 -89 -356q-89 -167 -257 -167q-186 0 -294 134q-85 106 -120 297q-24 132 -24 303q0 375 85 630q62 186 161 290q66 69 95 69q91 0 193 -103q111 -112 180 -296q80 -214 80 -467zM734 738q0 124 -53.5 251.5t-98.5 127.5q-11 0 -18 -8 q-43 -88 -117 -88q-48 0 -97 37q-25 0 -56 -91.5t-31 -177.5v-22t4 -29q25 -158 89 -253q46 -69 110 -101q36 -18 58 -18q118 0 173 148q37 100 37 224z" />
<glyph unicode="P" horiz-adv-x="897" d="M824 1232q0 -335 -72 -510q-56 -135 -169 -199l-197 -85q0 -46 6 -119q16 -195 16 -319h-154q-25 14 -66 284q-33 220 -68 537q-28 251 -42 411q0 214 107 349q97 122 223 122q196 0 302 -113q78 -83 103 -219q11 -59 11 -139zM653 1148q-22 69 -95 122q-65 47 -115 47 q-85 0 -132 -108q-35 -80 -35 -156q0 -31 8 -99l10 -85q147 13 246 98q87 74 113 181z" />
<glyph unicode="Q" horiz-adv-x="1047" d="M1104 111l-198 -129q-68 59 -123 120q-43 -64 -99 -97q-62 -37 -142 -37q-186 0 -293 134q-85 107 -119 297q-23 130 -23 303q0 374 87 630q64 187 163 290q67 69 95 69q93 0 194 -103q110 -112 178 -296q78 -211 78 -467v-73t1 -79q0 -92 -5 -164.5t-19 -148.5 q96 -135 225 -249zM732 738q0 124 -52.5 251.5t-96.5 127.5q-10 0 -17 -8q-45 -88 -118 -88q-23 0 -47 9t-48 28q-26 0 -58.5 -91.5t-32.5 -180.5q0 -13 0.5 -19.5t3.5 -28.5q24 -158 88 -253q47 -70 109 -101q36 -18 58 -18q18 0 31.5 2.5t32.5 8.5l-57 105q-35 67 -54 109 l200 128q6 -14 23 -49t28 -55q3 23 5 55t2 68z" />
<glyph unicode="R" horiz-adv-x="1079" d="M984 -29q-59 7 -153.5 43l-186.5 72q-114 43 -191 60q5 -31 5 -36v-14q0 -88 -87 -98q-54 -2 -72 -3q-43 178 -68 390q-19 156 -25 296q-2 58 -3 117q-24 0 -40 6q-46 17 -74 71q-41 78 -41 219q0 149 84 290q75 126 196 209.5t226 83.5q153 0 234 -74q66 -61 89 -176 q14 -71 14 -203q0 -131 -52 -282q-45 -129 -120 -254q-65 -108 -135 -184q0 -36 100 -74q29 -11 189 -59q105 -31 111 -50v-350zM708 1224q0 39 -41.5 63.5t-92.5 24.5q-16 0 -23.5 -2l-11.5 -3q-80 -23 -125 -72q-6 -7 -114 -207q60 -48 82 -138q10 -42 18 -144 q5 -70 23 -77q31 54 124 196q79 121 112 188q49 100 49 171z" />
<glyph unicode="S" horiz-adv-x="1214" d="M1151 530q0 -316 -121 -436q-109 -108 -376 -108h-355q-1 10 9 110l20.5 202.5t10.5 108.5q37 34 125 60q29 8 81 19q35 0 49 -34q33 -77 110 -77q78 0 116 6q68 11 80 42q9 56 -126 109q-145 57 -344 57q-27 0 -55.5 -1t-57.5 -4q-135 28 -173 75q-61 75 -61 307 q0 229 145 408q109 134 283 224q134 69 193 69q31 0 74.5 -63.5t43.5 -112.5q-2 -42 -7 -82.5t-20 -109.5q-175 0 -316 -96q-128 -87 -140 -180q-4 -20 21 -26.5t80 -6.5q46 0 78 1t61 2q155 0 254 -24q146 -35 223 -126q95 -112 95 -313z" />
<glyph unicode="T" horiz-adv-x="1035" d="M975 1268q-8 1 -13 1q-51 0 -144 -38q-67 -28 -151 -72l-71 -40l58 -1078q-33 -34 -63 -45q-19 -7 -50 -7h-30q-16 -2 -32 -9l-81 1066l-78 -53q-96 -64 -147 -94q-81 -47 -87 -35l-26 482l144 80l302 159q186 93 268 119q42 14 113 20q23 1 63 3l19 -175q8 -78 13 -138 t5 -92q0 -54 -12 -54z" />
<glyph unicode="U" horiz-adv-x="1140" d="M1061 669q0 -184 -16 -303q-24 -179 -84 -275q-75 -120 -206 -120q-141 0 -256 20q-86 15 -176 45q-100 177 -154 373q-45 165 -63 375q-13 155 -13 380q0 82 5 181q12 238 12 266h177q0 -36 -6 -118t-11.5 -170.5t-5.5 -158.5q0 -434 80 -603t292 -169q175 0 229 87 q43 69 43 279q0 251 -94 378q-69 93 -178 111l41 376q8 3 48 3h30q58 0 124 -96q78 -114 125 -310q57 -238 57 -551z" />
<glyph unicode="V" horiz-adv-x="975" d="M912 1635l-247 -1534q-36 -38 -67 -62l-65 -45q-81 62 -189.5 270t-184.5 443q-82 253 -82 411q0 151 11 242q16 130 52 143q23 14 48 20.5t47 6.5q31 0 59 -10q4 -1 11 -5q-8 -51 -8 -113q0 -175 56 -373q65 -231 189 -417q45 280 86 491q37 189 73 347l61 253 q15 13 57 13q38 0 66 -15.5t28 -50.5q0 -10 -1 -15z" />
<glyph unicode="W" horiz-adv-x="1505" d="M1442 779q0 -198 -35 -359q-42 -194 -127 -303q-100 -128 -251 -128q-131 0 -241 87q-48 38 -149 157q-34 -101 -76 -152q-52 -63 -123 -63q-111 0 -201 158q-77 136 -123 356q-42 201 -42 380q0 43 8 196t20 282q16 175 35 251h163q0 -407 20 -661.5t52 -377.5 q28 -108 63 -117q34 30 44 85.5t10 155.5q0 33 -0.5 69t-0.5 74q0 108 6 209t24 221q22 48 44.5 67t47.5 19q27 0 62 -26l51 -42q0 -33 -0.5 -67.5t-0.5 -70.5q0 -195 15 -315q23 -180 83 -277q75 -120 209 -120q92 0 151 70q56 66 56 159q0 117 -59 233q-45 88 -122 173 q-47 52 -102 98q0 119 25.5 253.5t68.5 223.5q106 -66 190 -180q96 -130 147 -298q58 -189 58 -420z" />
<glyph unicode="X" horiz-adv-x="1221" d="M1152 387q0 -151 -14.5 -240.5t-46.5 -129.5h-101q-62 95 -316 417q-25 -73 -42 -142.5t-23 -135.5q-62 -64 -115 -104q-67 -50 -109 -50q-17 0 -28 7q0 66 22 159.5t62 212.5q29 88 86 234l-179 214l-174 210q-78 97 -78 110q-8 9 -12 33.5t-4 63.5q0 96 23 192 q27 114 77 172q11 0 95 -93l194 -223l226 -265q52 127 86 218q40 106 63 184t23 118q0 14 -3 25l227 108q0 -135 -36 -284q-32 -133 -90 -279q-34 -86 -120 -273q127 -158 203 -270q87 -127 104 -189z" />
<glyph unicode="Y" horiz-adv-x="1182" d="M1106 1638q8 -44 11 -83t3 -84q0 -186 -73 -353q-56 -127 -151 -239q-51 -60 -122 -121q0 -63 8 -213t8 -241q0 -92 -3.5 -155.5t-15.5 -153.5h-180q0 121 -10.5 329.5t-22.5 314.5q-49 -13 -91 -19.5t-83 -6.5q-180 0 -256 143q-60 112 -60 327q0 72 7 162q3 33 15 155 q23 37 65.5 56.5t90.5 19.5q21 0 36.5 -3t37.5 -10q-16 -71 -25 -128q-12 -76 -12 -130q0 -87 25 -131q30 -54 98 -54q11 0 17.5 1t23.5 4q185 41 341 229q153 184 153 353q0 31 -6 60q47 22 95 22q34 0 55 -12.5t21 -38.5z" />
<glyph unicode="Z" horiz-adv-x="1307" d="M1259 279q-9 -43 -13 -72q-14 -92 -14 -165q-111 0 -192.5 -2.5t-159 -7.5t-287.5 -23q-168 0 -206 7q-72 13 -96 72.5t-24 216.5q0 118 63 328q16 52 119 354q64 187 64 238q0 32 -19 32q-65 0 -139 -106q-80 -115 -112 -276q-13 -10 -21 -15q-26 -15 -52 -15 q-17 0 -32 6.5t-30 23.5q-14 42 -20.5 88t-6.5 96q0 75 13 152q4 26 14 64l64 113q69 111 142 176q102 92 205 92q160 0 219 -110q35 -65 35 -185q0 -192 -54 -352q-2 -6 -110 -260q-69 -163 -90 -321q17 -2 35 -2h37q57 0 146 7q203 16 251 16q129 0 192 -32 q79 -40 79 -138z" />
<glyph unicode="[" horiz-adv-x="764" d="M2274 1797h-1422q-209 -140 -334.5 -436.5t-125.5 -664.5q0 -265 67 -526q72 -280 217 -535q14 -28 31 -56l37 -58q-234 110 -402 339q-156 213 -239 504q-79 276 -79 576q0 313 86 580q91 283 256 454q179 186 426 219h1482v-396z" />
<glyph unicode="\" horiz-adv-x="1126" d="M920 -141q-50 0 -80 51q-38 63 -117 250l-291 745q-64 151 -239 469q-16 29 -16 53q0 39 29.5 68t67.5 29q45 0 76 -46q114 -171 247 -488l205 -515q107 -272 201 -473q12 -25 12 -47q0 -39 -28.5 -67.5t-66.5 -28.5z" />
<glyph unicode="]" horiz-adv-x="726" d="M14 -479q6 7 8 19.5t2 15.5q0 18 -5 40q-13 58 -13 69q0 16 8 30q168 235 251 515q76 256 76 530q0 329 -109 621q-104 279 -274 436h-552v396h608q221 -25 386 -203q154 -166 238 -439q81 -263 81 -572q0 -299 -75 -574q-80 -293 -233 -516q-165 -241 -397 -368z" />
<glyph unicode="^" horiz-adv-x="1190" d="M594 1646q55 0 132 -68q24 -21 110 -111l158 -170q27 -30 27 -61q0 -37 -28 -64.5t-64 -27.5q-33 0 -63 29q-80 90 -251 260q-254 -311 -326 -311q-36 0 -63.5 28t-27.5 64q0 35 31 64q55 54 304 337q27 31 61 31z" />
<glyph unicode="_" horiz-adv-x="1284" d="M973 -345q-71 0 -213 5t-213 5h-445q-23 0 -69 -5t-68 -5v185q100 0 300 1.5t300 1.5q71 0 211.5 -5.5t211.5 -5.5l335 8v-185h-350z" />
<glyph unicode="`" d="M577 1267q0 -36 -28.5 -62.5t-64.5 -26.5q-43 0 -72 42l-100 149q-53 73 -124 128q-39 30 -39 71q0 36 26.5 64.5t62.5 28.5q62 0 202 -166q137 -164 137 -228z" />
<glyph unicode="a" horiz-adv-x="740" d="M693 201q13 -72 16 -94t3 -42q0 -31 -18.5 -41.5t-72.5 -10.5q-82 0 -106 83q-18 121 -33 196q-105 -39 -149 -59q-66 -29 -82 -47q0 -24 1.5 -57.5t1.5 -35.5q0 -32 -1 -46t-8 -56h-144l-24 117q-8 50 -8 142q0 88 33 311q41 278 99 472q76 256 167 312q63 0 109 -94 q34 -71 66 -219l48 -245q35 -168 61 -316.5t41 -269.5zM393 624q0 18 -7.5 77.5t-17.5 106.5l-30 2q-15 -47 -28 -108t-22 -126q105 25 105 48z" />
<glyph unicode="b" horiz-adv-x="836" d="M797 540q0 -249 -118 -401q-126 -162 -353 -162q-114 0 -160.5 46.5t-46.5 168.5q0 71 27 118l60 61q-5 71 -9.5 175.5t-4.5 184.5q-21 -5 -37.5 -8.5t-28.5 -3.5q-38 0 -55 32q-20 38 -20 131q0 99 92 219q82 106 196.5 184.5t185.5 78.5q107 0 146 -70q25 -45 25 -138 q0 -13 -0.5 -24.5t-0.5 -22.5q0 -104 -30 -174l-69 -110q80 -33 138 -99q63 -72 63 -186zM555 1091q4 12 -10.5 16.5t-27.5 4.5q-11 0 -20 -3q-87 -35 -121 -82q-21 -30 -35 -100l4 -106q83 54 139 129q51 68 71 141zM659 468q0 34 -47 74t-91 40q-72 0 -117 -50 q-1 -1 -39 -62v-63q0 -71 3.5 -126.5t14.5 -73.5q109 0 184 81q92 99 92 180z" />
<glyph unicode="c" horiz-adv-x="876" d="M822 183q0 -73 -23 -127q-12 -27 -34 -56h-528q-92 56 -137 207q-41 138 -41 347q0 132 30 289q39 205 111 329q91 157 222 157q102 0 168 -74q55 -62 81 -167q21 -85 21 -176q0 -114 -2 -192t-21 -166q-33 0 -60 -11q-9 -3 -21 -12q-60 0 -82 58q-17 44 -17 136 q0 36 1 70l2 68q0 60 -9 86q-12 35 -43 35q-27 0 -76 -55q-56 -63 -92 -151q-45 -109 -45 -224q0 -101 27 -155q33 -67 112 -81h405l38 -57q13 -23 13 -78z" />
<glyph unicode="d" horiz-adv-x="930" d="M887 680q0 -344 -62 -507q-52 -136 -162 -172q-55 -18 -226 -18q-125 0 -196.5 24.5t-105.5 81.5q-4 32 -7 65q-11 97 -15 148q-8 99 -8 157l65 -16q0 53 -16 140q-12 67 -31 136q-19 -9 -60 -18v349q110 166 194 227q91 66 228 66q176 0 272 -106q81 -89 110 -254 q20 -113 20 -303zM744 692q0 115 -98 209q-84 80 -149 80q-74 0 -136 -48q-77 -59 -77 -159q0 -76 21 -190q13 -73 36 -161q26 -14 83 -30t91 -16q147 0 188 55t41 260z" />
<glyph unicode="e" horiz-adv-x="768" d="M723 308q9 -9 9 -50q0 -38 -5 -81t-11 -90q0 -57 -38 -80q-27 -16 -76 -16q-12 0 -22.5 0.5t-19.5 0.5h-410q-17 34 -39.5 203t-38.5 358t-16 281q0 109 106 234q90 105 222 190q123 79 197 89q4 1 12 1q36 0 52 -38q12 -29 12 -77q0 -16 -1.5 -30t-2.5 -27 q0 -135 -49 -166l-181 -95q-77 -56 -133 -108q-66 -62 -66 -86q0 -13 21 -13l215.5 88t100.5 37q40 0 56 -55q10 -35 10 -97v-28q0 -102 -31 -144q-26 -35 -107 -66q-175 -67 -204 -80q-3 -20 -4 -32t1 -14q79 3 161.5 5.5t121.5 2.5q73 0 113 -3.5t45 -13.5z" />
<glyph unicode="f" horiz-adv-x="633" d="M596 576v-20q0 -54 -3 -83.5t-15 -50.5l-212 -70t-102 -52q-2 -8 -2 -12q0 -23 4 -70q11 -128 11 -162q0 -55 -14 -63.5t-38 -8.5q-31 0 -58 14.5t-37.5 40.5t-15.5 85l-14 216t-11 165l-20 269q-10 156 -10 207v28q0 40 2.5 68.5t13.5 59.5q38 50 194.5 129.5 t201.5 79.5q54 0 74 -80l12 -90q1 -20 2.5 -37t1.5 -35q0 -49 -13 -75q-20 -33 -148 -102q-91 -49 -163 -105l6 -180q41 0 128 38l121 54q11 3 19 3q42 0 66 -58q19 -47 19 -103z" />
<glyph unicode="g" horiz-adv-x="944" d="M894 164q0 -168 -2 -249t-4.5 -139t-3.5 -58q-30 -32 -57.5 -45.5t-65.5 -13.5q-10 41 -13 163t-4.5 240.5t-7.5 148.5q-24 -88 -96 -157q-87 -83 -199 -83q-141 0 -232 106q-76 89 -112 246q-29 126 -29 276q0 83 25 222q38 213 109 343q97 179 244 179q97 0 154 -47 q48 -40 76 -119q16 -47 40 -161q6 -32 9 -73t3 -81q0 -59 -6.5 -97t-20.5 -42q91 -31 140 -154q37 -92 48 -231q5 -63 5 -174zM630 734q-38 20 -62 85l-38 106q-27 53 -78 53q-64 0 -115 -94q-40 -73 -67 -191q-22 -96 -22 -145q0 -86 39 -142q48 -70 147 -70q38 0 83 25 q52 29 52 61l-210 19l-5 228q38 31 105.5 48t170.5 17z" />
<glyph unicode="h" horiz-adv-x="846" d="M809 489l-65 -9q14 -81 28 -195q19 -151 19 -224q0 -29 -3 -46q-14 -17 -43 -26.5t-57 -9.5q-37 0 -52 13q-25 40 -46 144q-14 72 -29 188.5t-18 130.5l-34 -16q-58 -23 -147 -23v-405q-20 -10 -42 -14.5t-48 -4.5q-55 0 -80 17q-7 11 -10 48t-3 81v70t1 71v17 q0 63 -7 97q-12 1 -40 -7l-65 -18q-37 128 -37 237q0 60 13 93l84 12q0 83 -1.5 197.5l-2.5 196.5t-1 135q17 20 46.5 31.5t61.5 11.5q40 0 77 -16q7 -61 9.5 -131.5t2.5 -154.5v-117q0 -55 1.5 -84t5.5 -48q26 0 64 8l112 26l1 585q16 9 35 13t38 4q34 0 63 -11t40 -24 q8 -41 12 -163l7.5 -239t8.5 -148l25 8q8 5 25 17q25 -35 38 -91.5t13 -174.5v-52z" />
<glyph unicode="i" horiz-adv-x="480" d="M390 254q3 -35 3.5 -45.5t0.5 -34.5q0 -60 -9 -98t-31 -46q-29 -26 -61 -26q-37 0 -77 34q0 106 -22.5 253l-45.5 307.5t-23 306.5q0 150 5 273q1 41 5 93q15 9 25 13q31 13 61 13q21 0 40.5 -6.5t37.5 -22.5q0 -140 23 -397q16 -176 44 -421q23 -196 24 -196z" />
<glyph unicode="j" horiz-adv-x="801" d="M738 1052q-76 -8 -147 -41q-85 -40 -199 -142q-140 -123 -172 -281q-11 -55 -37 -55q-69 0 -95 47q-9 17 -25 92q-4 27 -4 58q0 152 130 309q102 123 257 223q132 85 180 85q39 0 62 -10q15 -6 46 -30q15 -16 21.5 -41.5t6.5 -59.5q0 -45 -12 -104q-4 -19 -12 -50z M672 212q0 -86 -13 -131q-28 -98 -114 -98q-18 0 -76 21q-85 30 -144 81q-81 69 -87.5 134t-6.5 94q0 37 9 61.5t32 39.5q13 6 92 -58q84 -68 112 -68q13 0 19 11l-26 184.5t-14 181.5v214l44 33q34 24 59 24q24 0 69 -24v-32q-3 -122 -3 -151q0 -93 12 -222q9 -99 22 -197 t14 -98z" />
<glyph unicode="k" horiz-adv-x="777" d="M734 -24q-74 10 -196 51q-167 56 -224 71q1 -10 1.5 -21.5t0.5 -22.5q0 -22 -2.5 -34t-8.5 -12h-89t-61 -3q-36 153 -67 498q-22 244 -39 550q-7 130 -13 261q17 1 46.5 2t41.5 1q38 0 65 -3q21 -51 29 -182q3 -42 6.5 -204t11.5 -202l108 193q65 120 103 209 q47 110 47 164q0 19 18.5 26.5t48.5 7.5q33 0 81 -9q15 -3 41 -9q0 -192 -88 -421.5t-238 -422.5q0 -37 115 -82l260 -100z" />
<glyph unicode="l" horiz-adv-x="940" d="M871 18q-84 -8 -120 -11q-97 -8 -190 -8q-128 0 -349 19q-8 30 -36 111q-21 60 -36 137q-22 110 -45 303q-1 9 -7.5 113.5t-11.5 226t-5 208.5q0 83 3.5 135t11.5 78q50 0 81 -6t54 -29q15 -78 20.5 -212l11.5 -272q11 -201 35 -407q58 -7 109 -10t86 -3q25 0 177 10 q91 6 163 6q10 -50 28 -207z" />
<glyph unicode="m" horiz-adv-x="1085" d="M1053 -8h-187q-50 128 -79 267q-22 103 -38 248q-38 -125 -86 -192q-60 -83 -138 -83q-40 0 -85.5 22t-98.5 70q-16 -68 -20 -126t-4 -157q-18 -18 -46.5 -27t-59.5 -9q-54 0 -83 24q-48 31 -70 355t-22 902h134q31 -46 81 -224q55 -198 94 -276q67 -135 161 -135 q69 0 133 140q32 71 103 295q61 194 100 257q30 -17 61 -43q16 -13 51 -46q0 -32 -0.5 -64.5t-0.5 -73.5q0 -168 7.5 -360.5t26.5 -373.5q24 -228 66 -390z" />
<glyph unicode="n" horiz-adv-x="1002" d="M956 183v-28.5t1 -26.5q0 -33 -3.5 -60t-17.5 -85h-120q-31 43 -135 164l-223 249q-131 139 -206 203q0 -124 10.5 -243l21.5 -238q0 -30 -5 -46q-7 -16 -25.5 -24t-43.5 -8q-41 0 -78 20q-15 45 -24 100q-15 85 -24 236q-12 193 -12 446q0 43 8.5 175.5t18.5 214.5 q16 6 35.5 9t31.5 3q26 0 47 -8t36 -18q13 -22 15.5 -73t4.5 -63l94 -102l144 -158l143 -160q-13 127 -18 206.5t-5 138.5q0 48 11 155q15 147 37 209q16 0 33 2q43 5 51 5q24 0 40.5 -9t31.5 -35q0 -22 -6 -114t-6 -170q0 -64 2.5 -122t9.5 -133q18 -157 51 -285l51 -171 q23 -81 23 -156z" />
<glyph unicode="o" horiz-adv-x="743" d="M705 660q0 -160 -13 -267q-22 -182 -80 -286q-74 -133 -205 -133q-145 0 -229 107q-68 87 -95 239q-18 102 -18 246q0 301 73 503q53 147 137 229q55 54 79 54q72 0 151 -82q86 -89 139 -236q61 -169 61 -374zM530 594q0 95 -21.5 185.5t-46.5 90.5q-4 0 -9 -3 q-41 -80 -108 -80q-38 0 -78 26q-14 -11 -26 -68t-12 -115v-23q2 -9 2 -13q17 -124 63 -193q50 -74 99 -74q79 0 114 107q23 70 23 160z" />
<glyph unicode="p" horiz-adv-x="693" d="M647 977q0 -264 -52 -402q-41 -110 -125 -162l-147 -66q7 -97 12.5 -181.5t5.5 -165.5l-144 2q-20 11 -54 223q-29 176 -58 423q-25 212 -35 326q0 177 87 288q78 100 180 100q154 0 239 -93q62 -68 82 -179q9 -49 9 -113zM476 911q-17 44 -63 78q-41 30 -71 30 q-54 0 -81 -75q-19 -52 -19 -105q0 -38 4 -69t6 -50q90 14 151 70q56 51 73 121z" />
<glyph unicode="q" horiz-adv-x="839" d="M858 105l-189 -128l-48 48q-22 22 -36 38q-34 -45 -77 -67t-103 -22q-145 0 -228 107q-67 86 -94 239q-18 102 -18 246q0 302 72 503q53 147 137 229q55 54 79 54q70 0 149 -82q86 -90 139 -236q61 -169 61 -374v-35v-34q0 -102 -5.5 -166t-15.5 -120q36 -50 74 -94 q43 -49 103 -106zM534 575l-1.5 -9t-2.5 -6q-1 7 -1 16q-2 13 -2 18q0 95 -20.5 185.5t-45.5 90.5q-4 0 -9 -3q-41 -80 -108 -80q-37 0 -77 26q-14 -12 -26 -67t-12 -113v-19t2 -20q16 -123 64 -195t97 -72q9 0 12 2l-75 159l187 126q10 -21 21 -41l9 -20z" />
<glyph unicode="r" horiz-adv-x="846" d="M794 -23q-76 10 -150 14.5t-174.5 5.5t-233.5 1q-29 127 -49 271q-16 117 -22 204.5t-6 144.5q-44 9 -72 52q-43 66 -43 199q0 182 138 333q129 141 262 141q124 0 190 -61q55 -51 74 -145q12 -59 12 -168q0 -107 -32.5 -205t-97.5 -203q-54 -87 -158 -220 q0 -39 176.5 -49.5t180.5 -22.5zM540 969q0 21 -23 33.5t-51 12.5q-7 0 -12 -0.5t-14 -3.5q-72 -19 -127 -71q-46 -43 -86 -116q34 -36 46 -98q7 -74 15 -147q30 48 105 139t101 131q46 70 46 120z" />
<glyph unicode="s" horiz-adv-x="929" d="M906 431q0 -257 -97 -354q-86 -86 -300 -86h-291q-2 18 7.5 127.5l20.5 226.5q36 34 110 58q25 8 69 17q25 0 43 -42t78 -42q9 0 23.5 -0.5t33.5 -1.5q28 0 45.5 4.5t22.5 18.5q7 37 -88.5 68t-233.5 31h-60q-26 -3 -38 -4q-112 23 -145 62q-53 64 -53 257q0 183 115 326 q87 109 225 180q106 55 153 55q29 0 71 -56.5t42 -100.5q-1 -12 -1 -22q-5 -57 -25 -151q-136 0 -239 -65q-93 -59 -101 -127q-3 -15 15 -20.5t59 -5.5q14 0 52 1t60 1q119 0 191 -18q106 -27 165 -98q71 -86 71 -239z" />
<glyph unicode="t" horiz-adv-x="801" d="M762 1382q15 -138 15 -249q0 -149 -22 -149q-49 6 -178 -57l-88 -46l29 -825q-33 -34 -66 -45l-110 -28l-46 817q-92 -50 -144 -75q-92 -45 -98 -33l-13 387l113 63l238 126q148 75 208 94q32 12 101 17q22 1 61 3z" />
<glyph unicode="u" horiz-adv-x="873" d="M830 540q0 -146 -15 -246q-21 -140 -73 -221q-62 -96 -166 -96q-110 0 -197 16q-68 12 -142 39q-78 141 -120 295q-36 134 -50 295q-10 118 -10 299q0 70 3 140q9 211 9 228h180q0 -33 -12 -220q-6 -94 -6 -148q0 -323 54 -448t204 -125q119 0 154 63q26 47 26 198 q0 183 -66 273q-49 67 -139 86l34 330q24 3 54 3h26q46 0 100 -76q65 -91 104 -245q48 -189 48 -440z" />
<glyph unicode="v" horiz-adv-x="762" d="M729 1289l-184 -1190q-32 -34 -57 -55l-62 -49q-68 55 -156 225q-84 162 -144 350q-64 200 -64 324q0 118 12 200q16 105 45 118q18 10 39 15.5t40 5.5q32 0 67 -13q5 -2 14 -6q-7 -42 -7 -101q0 -125 34 -260q38 -150 113 -283q30 197 59 347q25 132 52 251q8 37 45 188 q19 17 66 17q38 0 63.5 -15.5t25.5 -52.5q0 -10 -1 -16z" />
<glyph unicode="w" horiz-adv-x="1205" d="M1154 618q0 -157 -30 -286q-36 -153 -106 -240q-82 -101 -203 -101q-67 0 -124 26q-45 21 -94 64q-30 27 -73 75q-29 -67 -64 -102q-41 -40 -95 -40q-88 0 -162 124q-64 108 -102.5 276t-38.5 305q0 41 6 154.5t17.5 237.5t28.5 191h167q0 -450 18.5 -650.5t56.5 -229.5 q16 21 21.5 52t5.5 84q0 56 -1 96.5l-2 77.5q0 69 4.5 139.5t16.5 151.5q22 46 44.5 65t47.5 19q26 0 60 -23q37 -29 53 -40q0 -29 -1 -97t-1 -69q0 -134 12 -219q17 -119 58 -180q51 -75 141 -75q60 0 98 45.5t38 105.5q0 94 -53.5 188t-162.5 189q0 103 22 211.5t64 199.5 q147 -95 233 -263q100 -196 100 -462z" />
<glyph unicode="x" horiz-adv-x="962" d="M908 320q0 -90 -7 -150q-13 -114 -49 -162h-103q-20 33 -80 115l-136 180q-19 -60 -25 -85q-11 -46 -11 -87q-52 -56 -101 -89q-57 -38 -100 -38q-22 0 -38 10q0 56 16 129t46 163q26 79 64 177l-137.5 170l-128.5 159q-58 73 -58 79q-5 5 -8 24.5t-3 49.5q0 80 19 161 q23 99 67 151q14 0 78 -65q39 -40 146 -161l172 -199q55 134 80 209q33 98 33 149q0 17 -3 29l222 107q0 -124 -26 -244q-22 -101 -68 -222q-30 -79 -89 -209q90 -113 152.5 -208.5t75.5 -142.5z" />
<glyph unicode="y" horiz-adv-x="918" d="M870 1298q12 -72 12 -137q0 -141 -53 -270q-41 -100 -111 -187q-41 -51 -97 -102q0 -47 3 -116q7 -162 7 -221q0 -73 -3 -129.5t-14 -138.5h-177q0 94 -7 247t-16 245q-32 -7 -58.5 -10.5t-55.5 -3.5q-147 0 -210 121q-49 95 -49 275q0 57 4.5 116t11.5 131 q21 32 60.5 50.5t84.5 18.5q44 0 80 -14q-19 -81 -25 -116q-12 -66 -12 -111q0 -51 17 -80t57 -29q11 0 26 3q134 32 244 167t110 266q0 27 -6 53q51 26 99 26q35 0 56.5 -14.5t21.5 -39.5z" />
<glyph unicode="z" horiz-adv-x="1046" d="M1007 223q-7 -35 -10 -58q-11 -75 -11 -131q-38 0 -272 -18q-117 -9 -240 -9q-180 0 -212 24q-48 36 -48 213q0 94 50 262q11 36 95 284q51 150 51 191q0 25 -15 25q-52 0 -111 -85q-64 -92 -90 -221q-15 -12 -25 -16q-18 -8 -33 -8q-13 0 -25.5 5.5t-24.5 18.5 q-10 30 -15.5 70t-5.5 77q0 61 10 122q3 21 11 51l51 90q56 88 115 142q81 73 163 73q128 0 175 -88q28 -52 28 -148q0 -153 -43 -281q-2 -7 -88 -209q-55 -130 -72 -257q50 0 128 7q189 17 233 17q109 0 164 -28q67 -34 67 -115z" />
<glyph unicode="{" horiz-adv-x="750" d="M259 573q55 27 98 106q41 75 41 135q0 43 -6.5 204t-6.5 204q0 197 140 212q34 1 101 10q71 16 71 70q0 52 -58 84q-48 27 -104 27q-63 0 -132 -29q-199 -87 -199 -403l5 -199l3 -199v-28q-50 -14 -124 -83q-82 -76 -82 -128q0 -45 94.5 -112.5t94.5 -149.5q0 -27 -8 -82 t-8 -82q0 -177 83 -330q100 -184 261 -184q74 0 105 12q51 21 51 84q0 66 -51 83q-23 8 -105 8q-69 0 -118 135q-39 108 -39 192q0 33 8 99t8 99q0 47 -45 129q-38 71 -78 116z" />
<glyph unicode="|" horiz-adv-x="863" d="M445 1715q86 0 86 -89v-1871q-2 -117 -87 -117q-59 0 -80 76q-11 40 -11 311v1601q0 39 26 64t66 25z" />
<glyph unicode="}" horiz-adv-x="750" d="M444 573q-55 27 -98 106q-41 75 -41 135q0 43 6.5 204t6.5 204q0 197 -140 212q-34 1 -101 10q-71 16 -71 70q0 52 58 84q48 27 104 27q63 0 132 -29q199 -87 199 -403l-5 -199l-3 -199v-28q50 -14 124 -83q82 -76 82 -128q0 -45 -95 -112.5t-95 -149.5q0 -27 8.5 -82 t8.5 -82q0 -177 -83 -330q-100 -184 -261 -184q-74 0 -105 12q-51 21 -51 84q0 66 51 83q23 8 105 8q69 0 118 135q39 108 39 192q0 33 -8 99t-8 99q0 47 45 129q38 71 78 116z" />
<glyph unicode="~" horiz-adv-x="1224" d="M467 934q87 0 158 -71l110 -133q66 -74 137 -80q41 -3 79.5 120t100.5 123q38 0 64 -24.5t26 -62.5q1 -132 -80 -234q-82 -105 -193 -105t-203 75q-52 43 -123 139q-55 75 -76 75q-87 0 -197 -189q-29 -51 -77 -51q-36 0 -64.5 25.5t-28.5 61.5q0 19 10 42 q54 117 141 196q103 93 216 93z" />
<glyph unicode="&#xa1;" horiz-adv-x="1668" d="M474 983q0 -26 -15 -54q-18 -33 -42 -33q-9 0 -9 19q0 26 14.5 64t25.5 38q12 0 19 -10t7 -24zM1634 1117q0 -50 -11 -108q-18 -94 -59 -186q-53 -118 -141 -222q-83 -99 -238 -231q-148 -127 -224 -168q0 -8 9 -62l9 -52q-1 -20 -2 -29q-6 -29 -21 -29q-6 0 -11 4 q-9 -3 -14 21q-7 71 -10 113q-6 -7 -29.5 -19.5t-29.5 -12.5q0 -11 1 -40.5t1 -37.5q0 -52 -5 -70t-15 -22q-19 -7 -24 28t-5 105q-91 -63 -206 -115q-22 -10 -161 -65q-69 -27 -83 -47q-3 -5 -3 -22q0 -10 7 -124q4 -65 4 -93q0 -47 -4.5 -77t-16.5 -47q-8 -8 -17 -8 q-17 0 -28.5 24.5t-11.5 47.5q0 22 11 31q26 21 26 96q3 42 3 70q0 77 -37 88q-22 6 -28 28q-2 6 -2 20q0 26 11 57t24 64q-12 23 -30 160q-6 45 -16 132l-50 -93q-44 -70 -81 -70q-39 0 -65 41q-22 35 -22 70q0 25 6 40q10 18 15 28q8 2 12 2q7 0 9 -2l12 -52 q10 -27 33 -27q30 0 62 40q40 49 51 128l-25 132q-38 201 -55 304q-33 198 -47 334q-2 28 -3.5 55.5t-1.5 36.5q0 119 21 172q17 42 46 38q76 -13 118 -137q28 -84 42 -221.5t17 -140.5q-8 -52 -13 -80q-17 -84 -35 -106q-4 -4 -8 -4q-15 0 -24 76q-13 109 -14 114 q17 25 21.5 41.5t4.5 66.5q0 58 -26 137q-34 104 -83 119q-10 0 -14.5 -22t-4.5 -49v-22q2 -7 2 -9q0 -56 22 -229q18 -145 47 -323t44 -223l47 134q33 91 62 99q28 -7 40 -53q9 -36 9 -90q0 -22 -1 -44.5t0 -23.5l41 96q42 102 75 102q12 -2 26.5 -73t26.5 -75q16 5 18 40 t13 46q11 3 19 3q32 0 49 -45.5t25 -46.5q30 -7 34.5 66.5t16.5 115.5q16 63 36.5 96.5t42.5 26.5q25 -7 37 -51q9 -32 9 -72q0 -66 -19 -103l-44 -45q0 -14 16.5 -24t46.5 -10q42 0 61 32l29 50q9 4 25 -2q5 -2 15 -7q0 -51 -28 -97q-41 -68 -124 -68q-48 0 -73 14t-30 51 q0 -23 -20 -34.5t-49 -11.5q-27 0 -48.5 7t-26.5 19q-14 -21 -24 -60q-18 -70 -23 -70q-11 0 -38 115q-15 63 -31 88q-18 0 -52 -145.5t-60 -145.5q-17 0 -19 156.5t-15 156.5q-13 -7 -45.5 -99.5t-38.5 -122.5q26 -190 43.5 -301.5t27.5 -111.5q46 0 153 41q91 35 187 82.5 t115 66.5q0 8 -4 33t-6 44q0 32 10.5 54.5t27.5 22.5q3 0 9 -2q9 -21 11 -65.5t7 -55.5q4 0 26 14.5t24 14.5q0 9 -1 35t-1 32q0 45 8.5 75t33.5 38q3 -12 3 -33q0 -16 -0.5 -32t-0.5 -31q0 -33 7 -33l93 49q87 62 193 155q115 101 163 164q86 114 136 230.5t50 214.5 q0 94 -57 169q-64 84 -162 84q-108 0 -290.5 -69t-317.5 -161q-150 -102 -158 -181q-11 -11 -19 -11t-11 11t-3 28q0 8 0.5 14.5t1.5 11.5q38 106 206 211q139 86 331 153q170 59 268 68q6 1 12.5 1h10.5q98 0 160 -75q66 -80 66 -217zM862 701q0 28 -20 28q-12 0 -18 -12 q-6 -9 -10 -29t-4 -36q0 -18 5 -26q20 11 33.5 33.5t13.5 41.5z" />
<glyph unicode="&#xa2;" horiz-adv-x="870" d="M444 260v-452q-33 -68 -115 -72v537q-276 61 -276 371q0 170 68 348q77 205 208 289v524q0 65 115 70v-552q27 4 41 4q84 0 131 -117q35 -87 35 -179q0 -128 -70 -230h-65q20 39 20 78q0 98 -92 142v-587q113 19 213.5 91t147.5 167h12q70 0 70 -80q0 -152 -140 -254 q-131 -96 -303 -98zM329 438v595q-151 -52 -151 -362q0 -192 151 -233z" />
<glyph unicode="&#xa3;" horiz-adv-x="2012" d="M551 570q0 -10 1 -32t1 -33q0 -28 -3 -44.5t-13 -28.5q-21 -14 -101 -37q-134 -38 -139 -39q-73 -24 -90 -43q2 -23 2.5 -53.5t0.5 -71.5q0 -82 -5.5 -135.5t-20.5 -53.5q-53 0 -72 28t-29 124.5t-20 205.5q0 4 -11 142q-18 237 -21 274q-10 157 -10 212v25q0 33 3 62.5 t13 57.5q26 33 117 84q76 42 168.5 79.5t119.5 37.5q39 0 57 -45l14 -107v-33t1 -31q0 -21 -2 -38t-10 -32q-18 -31 -65 -57l-111 -55q-87 -45 -161 -99l7 -220q4 -1 12 -1q45 0 146 40l142 56q9 2 16 2q35 0 52 -51q11 -37 11 -90zM788 140q2 -20 2.5 -26t0.5 -20 q0 -36 -7 -58t-24 -27q-22 -15 -47 -15q-28 0 -59 20q0 62 -17.5 148l-35 180t-17.5 179q0 88 4 160q0 24 4 55q11 5 19 7q24 8 47 8q16 0 31 -4t29 -13q0 -82 18 -232q12 -103 33 -247q18 -115 19 -115zM741 877l-81 -111q-45 31 -47 100l81 111q45 -31 47 -100zM1363 93 v-18.5t1 -16.5q0 -21 -2.5 -38t-10.5 -53h-76q-19 27 -85 103l-140 156q-82 88 -129 128q0 -78 6.5 -152.5l13.5 -149.5q0 -19 -3 -29q-4 -10 -16 -15t-27 -5q-26 0 -49 12q-10 29 -15 63q-10 54 -15 148q-8 122 -8 280q0 27 5.5 110.5t11.5 134.5q10 4 22 6t20 2 q16 0 29.5 -5t22.5 -11q8 -14 9.5 -46t3.5 -40q14 -14 59 -64q71 -77 90 -99l90 -101q-8 80 -11 130t-3 87q0 30 6 97q10 93 24 132q10 0 20 1q27 3 32 3q15 0 25.5 -5.5t20.5 -22.5q0 -13 -4 -71t-4 -107q0 -40 1.5 -76.5t6.5 -83.5q11 -99 32 -179q15 -54 32 -107 q14 -51 14 -98zM1922 274q8 -8 8 -43q0 -33 -4.5 -70.5l-9.5 -78.5q0 -49 -33 -69q-23 -14 -66 -14q-10 0 -19.5 0.5t-16.5 0.5h-356q-15 29 -34.5 176t-33.5 311t-14 244q0 95 92 203q78 91 193 165q107 69 171 77q3 1 10 1q32 0 45 -33q11 -25 11 -67q0 -13 -1.5 -25.5 t-2.5 -23.5q0 -117 -42 -144l-157 -83q-67 -48 -116 -93q-57 -54 -57 -75q0 -11 18 -11l187 76t88 32q34 0 48 -48q9 -30 9 -84v-24q0 -89 -27 -125q-23 -31 -93 -58q-152 -58 -177 -69q-3 -17 -3.5 -27.5t0.5 -12.5q69 3 140.5 5t105.5 2q63 0 98 -3t39 -12z" />
<glyph unicode="&#xa4;" horiz-adv-x="1287" d="M1377 868l-207 -37q-49 -173 -177 -316.5t-281 -200.5q0 -59 6 -138q16 -211 16 -252l-77 -11l-22 384q-195 0 -331 91q-156 104 -179 297l-180 -41l-48 131l232 39q25 188 154 353q125 161 292 227l-17 314l77 17l18 -315q72 22 139 22q175 0 285 -133.5t110 -336.5 l150 30zM787 907q0 201 -30 286.5t-97 85.5q0 -64 11 -194t11 -195q18 7 49.5 12t55.5 5zM602 884q0 61 -14 238q-7 89 -7 145q-68 -31 -79 -166q-5 -64 -5 -233q12 3 36 6q58 8 69 10zM794 775l-106 -15l17 -320q59 38 76 86q14 39 14 140v12q0 19 -0.5 40t-0.5 43v14z M627 422q0 55 -8 167t-8 168l-106 -20q0 -182 20 -250t73 -68q14 0 29 3z" />
<glyph unicode="&#xa6;" horiz-adv-x="828" d="M484 1620l-3 -456q2 -76 -2 -227q-4 -61 -76 -61q-71 0 -71 88q0 109 1.5 328t1.5 328q0 75 75 75q74 0 74 -75zM479 641q0 -13 -1.5 -40.5t-1.5 -41.5q0 -88 7.5 -264t7.5 -264q0 -75 -75 -75t-75 75q0 88 -7 264t-7 264q0 157 81 157q71 0 71 -75z" />
<glyph unicode="&#xa7;" horiz-adv-x="1169" d="M696 957q142 -24 228 -101q108 -96 139 -280q19 -114 19 -199q0 -152 -75 -210q-70 -54 -247 -54h-302q-3 12 -9.5 78.5t-6.5 125.5q0 46 3.5 76t12.5 51q16 33 69 67q17 11 50 27q28 0 59 -47t97 -47t97 5q56 9 61 36q0 31 -53 67q-58 40 -144 61q-24 6 -58.5 8t-70.5 2 h-49l-182.5 -358.5t-141.5 -261.5q-64 -104 -101 -124q-25 0 -36 9q-16 14 -16 51q0 26 5 55t20 80t87 202l180 356q-46 8 -79 23q-52 26 -85 86q-37 67 -67 205q-13 62 -13 120q0 155 95 276q71 91 187 152q91 48 133 48q26 0 75 -54t57 -96q5 -36 8 -77t3 -86 q-149 0 -251 -81q-94 -74 -87 -153q0 -17 20 -22.5t64 -5.5q14 0 55 1t66 1q123 223 215 374q107 176 186 281q84 111 118 111q33 0 57 -15q32 -20 32 -59q0 -13 -5 -31q-114 -162 -224 -339q-93 -151 -195 -334zM146 613q0 -27 -22 -79q-27 -64 -58 -77q-25 -4 -64 -4.5 t-51 -0.5q-14 0 -25.5 9.5t-11.5 22.5q0 26 30 83t46 73q5 4 35.5 5t45.5 1q40 0 57.5 -3.5t17.5 -29.5zM1115 1160q0 -27 -22 -79q-27 -63 -59 -76q-22 -4 -69.5 -7t-73.5 -3q-11 0 -11 11q2 15 2 25q0 26 31 86q28 54 45 71q6 3 44 4t44 1h30t15 -1q24 -6 24 -32z" />
<glyph unicode="&#xa8;" d="M332 1372q131 0 131 -105q0 -30 -44 -58q-40 -25 -75 -25q-123 0 -123 103q0 29 37.5 57t73.5 28zM871 1380q34 0 69 -31.5t35 -61.5q0 -92 -143 -92q-41 0 -73 21q-36 24 -36 63q0 69 45 89q25 12 103 12z" />
<glyph unicode="&#xa9;" horiz-adv-x="1629" d="M945 1438q-301 2 -491 -148q-186 -148 -186 -379q0 -265 147 -380q131 -104 403 -102q221 1 382 201q143 177 143 363q0 198 -93 314q-104 130 -305 131zM903 1620q289 0 458 -186q161 -177 161 -461q0 -248 -202 -475q-218 -244 -502 -247q-728 -8 -728 660 q0 272 248 490.5t565 218.5zM893 1139q-114 0 -204 -55q-93 -58 -93 -140q0 -57 65 -96q57 -34 118 -34q74 0 151.5 61.5t98.5 61.5q37 0 64 -28.5t27 -64.5q0 -70 -113.5 -138t-227.5 -70q-136 -3 -245 83q-116 91 -116 225q0 157 159 270q146 104 309 104q56 0 97 -28 q47 -32 47 -85q0 -77 -78 -77q-11 0 -30 5.5t-29 5.5z" />
<glyph unicode="&#xaa;" horiz-adv-x="591" d="M-26 775q-5 34 -5 72q0 195 90 491q101 336 222 428q124 -71 223 -371q86 -265 86 -441q0 -34 -5 -48q-28 -51 -282 -93q-194 -31 -329 -38zM412 1098q0 53 -49 182q-46 118 -82 177q-31 -4 -84 -191q-49 -170 -49 -231q107 15 246 49q18 16 18 14z" />
<glyph unicode="&#xab;" horiz-adv-x="1183" d="M298 614q56 -41 138 -127q97 -101 133 -132t36 -68t-27 -65t-63 -28q-28 0 -56 21q-40 29 -171 166q-100 105 -193 141q-76 28 -76 83q0 50 69 83q93 45 204 162q155 162 184.5 186.5t59.5 24.5q36 0 63.5 -27.5t27.5 -64.5q0 -34 -30 -64q-96 -102 -299 -291zM752 592 q56 -41 138 -126q96 -101 132 -132.5t36 -68.5q0 -36 -27 -64.5t-63 -28.5q-27 0 -55 21q-40 29 -172 167q-100 105 -193 140q-75 29 -75 83q0 51 68 84q94 44 205 161q154 162 184 187t60 25q36 0 63.5 -28t27.5 -64q0 -34 -31 -65q-96 -102 -298 -291z" />
<glyph unicode="&#xac;" horiz-adv-x="1287" d="M1377 868l-207 -37q-49 -173 -177 -316.5t-281 -200.5q0 -59 6 -138q16 -211 16 -252l-77 -11l-22 384q-195 0 -331 91q-156 104 -179 297l-180 -41l-48 131l232 39q25 188 154 353q125 161 292 227l-17 314l77 17l18 -315q72 22 139 22q175 0 285 -133.5t110 -336.5 l150 30zM787 907q0 201 -30 286.5t-97 85.5q0 -64 11 -194t11 -195q18 7 49.5 12t55.5 5zM602 884q0 61 -14 238q-7 89 -7 145q-68 -31 -79 -166q-5 -64 -5 -233q12 3 36 6q58 8 69 10zM794 775l-106 -15l17 -320q59 38 76 86q14 39 14 140v12q0 19 -0.5 40t-0.5 43v14z M627 422q0 55 -8 167t-8 168l-106 -20q0 -182 20 -250t73 -68q14 0 29 3z" />
<glyph unicode="&#xad;" horiz-adv-x="853" d="M158 528q-47 0 -47 37q0 25 30.5 86.5t51.5 81.5q8 8 86 21q31 4 91 16t179 41q142 33 168 33q31 0 31 -25q0 -26 -29 -96q-28 -76 -47 -84q-51 -27 -250.5 -69t-263.5 -42z" />
<glyph unicode="&#xae;" horiz-adv-x="1581" d="M1505 995q17 -73 17 -172q0 -186 -54 -344q-69 -202 -212 -316q-174 -139 -446 -139q-335 0 -520 185q-165 164 -227 495q-7 38 -7 87q0 194 105 421q112 242 285 393q199 174 423 174q198 0 338 -130q115 -107 194 -304q52 -129 104 -350zM1361 969q-42 185 -187 294.5 t-340 109.5q-146 0 -289 -69q-151 -73 -242 -197q-102 -139 -102 -310v-25t2 -29q78 -168 245 -259t382 -91q282 0 422 114q130 106 130 300q0 70 -21 162zM1044 492q-41 5 -146 38q-115 37 -169 46q3 -14 3 -23q0 -43 -51 -47l-45 -2q-23 81 -38 185q-9 64 -12.5 116 t-4.5 80q-18 0 -28 4q-64 25 -64 137q0 107 103 195q97 83 197 83q130 0 174 -74q26 -44 26 -142q0 -92 -63 -197q-52 -87 -120 -145q0 -22 117 -49.5t121 -37.5v-167zM881 1088q0 18 -25.5 30t-56.5 12q-14 0 -20 -2q-47 -11 -73 -34q-5 -5 -67 -98q46 -31 54.5 -100 t17.5 -71q12 17 83 104q87 107 87 159z" />
<glyph unicode="&#xaf;" horiz-adv-x="1284" d="M973 1703q-71 0 -213 5t-213 5h-445q-23 0 -69 -5t-68 -5v185q100 0 300 1.5t300 1.5q71 0 211.5 -5.5t211.5 -5.5l335 8v-185h-350z" />
<glyph unicode="&#xb0;" horiz-adv-x="587" d="M580 1293q0 -90 -14 -157q-20 -104 -72 -162q-67 -73 -182 -73q-131 0 -205 60q-60 48 -84 134q-17 59 -17 142q0 174 68 290q49 85 126 130q49 29 67 29q61 0 131 -45q77 -50 126 -134q56 -97 56 -214zM460 1255q0 69 -30 126.5t-71 53.5q-34 -38 -64 -38q-32 0 -102 40 q-31 -21 -49 -51q-26 -45 -26 -101q0 -18 1 -29q11 -82 69 -118q38 -22 91 -22q8 0 14 0.5t9 1.5q70 0 114 38t44 99z" />
<glyph unicode="&#xb1;" horiz-adv-x="466" d="M412 509q-4 -31 -4 -74q0 -57 8 -186t8 -181q0 -114 -26 -114q-49 0 -74 510q-27 -56 -105.5 -98t-127.5 -42q-17 0 -25 7q-43 34 -43 143q0 158 111 297q61 78 93 100.5t89 28.5q24 0 49 -23.5t39 -23.5q6 0 16 4q9 2 11 -43t-3.5 -125t-15.5 -180zM148 578q59 4 104 31 q54 31 56 78q2 27 -7.5 43t-33.5 10q-54 -12 -89.5 -66.5t-29.5 -95.5zM460 1292q0 -118 -43 -212q-38 -84 -101 -134q-59 -47 -118 -47q-63 0 -114 59q-58 69 -58 179q0 54 20 181q27 169 64 274q52 141 117 141q25 0 39.5 -12t14.5 -30q0 -37 -4 -64q-6 -37 -22 -59 q-3 -5 -14 -5q-6 0 -11 0.5t-10 0.5q-10 0 -15 -5q-28 -49 -44 -108.5t-33 -179.5q-4 -32 -4 -66q0 -25 4 -46t13 -31q6 64 39 149q33 90 77 149q51 68 99 68t74 -39q30 -45 30 -163zM384 1257q0 20 -3 33q-5 22 -20 31q-21 0 -58 -51q-32 -45 -59.5 -102.5t-27.5 -79.5 q0 -4 1 -5q45 0 88 42q32 31 57 80q22 41 22 52z" />
<glyph unicode="&#xb2;" horiz-adv-x="1302" d="M1149 1518q-201 -293 -398 -687l-266 -566q-117 -248 -171 -283q-14 2 -20 10t-6 31q0 33 15.5 106.5t182.5 433.5q181 391 336 665q194 344 260 344q25 0 42 -7q26 -11 26 -35q0 -8 -1 -12zM1215 324q0 -11 -31 -24q-15 -6 -56 -19q10 -62 18 -120.5t8 -95.5 q0 -19 -1 -29t-4 -31h-63l-17 125q-11 77 -34 127q-59 -21 -125.5 -37.5t-102.5 -16.5q-44 0 -64 14.5t-22.5 37t-2.5 37.5q0 96 70 276q62 160 146.5 303.5t123.5 150.5q8 -16 11 -32t3 -35q0 -8 -2 -54t-2 -91q0 -91 5 -177q2 -32 13 -157q18 0 50.5 8l65.5 16 q8 -15 10.5 -67.5t2.5 -108.5zM1017 447q-10 67 -16 131q-9 92 -9 165q-28 -35 -88.5 -155.5t-75.5 -174.5q49 0 113 14q21 5 76 20zM134 1126q6 39 74 213q76 197 110 211q72 21 263 21q96 0 112 -13q25 -22 25 -63q0 -29 -11.5 -56.5t-21.5 -29.5q-172 -25 -238.5 -45.5 t-85.5 -46.5q-2 -5 -20 -68q63 -6 82 -18q37 -27 37 -119q0 -56 -13 -137q-22 -134 -78.5 -210.5t-123.5 -82.5q-70 -6 -70 92q0 51 19 84q8 16 36 16h21q14 -2 22 -2q76 0 80 103q2 77 -59 98q-10 4 -109 10q-57 4 -51 43z" />
<glyph unicode="&#xb3;" horiz-adv-x="1361" d="M1149 1518q-201 -293 -398 -687l-266 -566q-117 -248 -171 -283q-14 2 -20 10t-6 31q0 33 15.5 106.5t182.5 433.5q181 391 336 665q194 344 260 344q25 0 42 -7q26 -11 26 -35q0 -8 -1 -12zM587 1123q0 -149 -49 -269q-43 -107 -114 -171q-67 -59 -134 -59 q-72 0 -130 75q-66 87 -66 227q0 69 23 230q30 214 73 348q59 179 133 179q28 0 44.5 -15t16.5 -39q0 -47 -5 -80q-7 -48 -25 -76q-3 -6 -16 -6q-6 0 -12 0.5t-12 1.5q-11 0 -16 -7q-32 -62 -50.5 -138t-37.5 -228q-5 -40 -5 -83q0 -33 4.5 -59t15.5 -40q7 82 44 190 q38 114 88 189q57 86 112 86t84 -49q34 -57 34 -207zM501 1079q0 25 -3 41q-6 28 -23 40q-24 0 -66 -65q-37 -57 -68 -130t-31 -101q0 -5 1 -7q51 0 100 54q36 39 65 102q25 51 25 66zM1296 160q-22 -73 -67 -110t-116 -37q-101 0 -168 77q-20 25 -38.5 60.5t-35.5 83.5 q-2 6 -3 12t-1 9q-3 4 -5.5 11.5l-3.5 10.5q-10 30 -10 67q0 24 3.5 47.5t11.5 55.5q19 59 48 88q34 35 98 52q-20 24 -43 45q-42 40 -47 50q-20 30 -29 54q-10 30 -15.5 60.5t-5.5 63.5q0 49 14 101t50 86q33 30 61 30t57 -12t57 -37q21 -17 37.5 -40.5t27.5 -51.5 q12 -38 19 -89.5t7 -110.5q0 -35 -7 -68q-10 -40 -35 -87l36 -27l42 -30q15 -14 26.5 -32.5t19.5 -40.5q31 -91 31 -174q0 -61 -16 -117zM1108 741q3 12 3 26q0 11 -2.5 26t-6.5 30.5t-10.5 27.5t-17.5 22q-16 22 -44 26q-10 3 -21 3q-33 0 -43 -39q-2 -5 -2 -11v-9 q0 -24 10 -57q5 -14 12 -28q5 -10 14 -25q12 -12 24 -21.5t22.5 -12.5t17.5 -3q16 0 27.5 10t16.5 35zM1144 247q2 12 3.5 22t1.5 22q0 19 -4 37.5t-10.5 38.5t-11.5 30.5t-15 23.5q-18 21 -41 29l-12 3l-12 3q-22 0 -38 -16.5t-20 -50.5q0 -31 3 -55.5t11 -54.5 q5 -17 11 -30t16 -25q8 -13 19.5 -21.5t23 -12.5t21.5 -4q20 0 34 14t20 47z" />
<glyph unicode="&#xb4;" d="M304 1187q-36 0 -63.5 28t-27.5 64q0 34 31 65q43 42 131 159q66 86 147 143q27 19 53 19q36 0 63 -28.5t27 -64.5q0 -40 -38 -70q-70 -56 -135 -145q-68 -94 -129 -145q-28 -25 -59 -25z" />
<glyph unicode="&#xb6;" horiz-adv-x="1421" d="M1326 1249q0 -173 -87 -706q-90 -560 -148 -668q-31 -59 -80 -59q-37 0 -65 25t-28 61q0 14 6 35q75 238 148 653q76 434 76 659q0 51 -15.5 151.5t-15.5 150.5q0 86 91 86q65 0 87 -77q31 -115 31 -311zM819 1428q-266 -63 -402 -178q-168 -144 -168 -392 q0 -135 144 -219q122 -71 269 -71q42 0 102 20q57 327 57 688zM995 1477l3 -97q0 -377 -50 -793q-63 -524 -131 -724q-22 -59 -81 -59q-37 0 -65 24.5t-28 61.5q0 11 4 28q23 92 44 238l35 240q-33 -6 -64 -6q-224 0 -397 120q-194 134 -194 348q0 251 142 433 q136 174 379 260l357 99q21 7 35 7q37 0 62 -28.5t25 -65.5q0 -64 -76 -86z" />
<glyph unicode="&#xb7;" horiz-adv-x="510" d="M267 592q-52 0 -88 36t-36 88q0 51 36 87.5t88 36.5q51 0 87.5 -36.5t36.5 -87.5q0 -52 -36.5 -88t-87.5 -36z" />
<glyph unicode="&#x2219;" horiz-adv-x="510" d="M267 592q-52 0 -88 36t-36 88q0 51 36 87.5t88 36.5q51 0 87.5 -36.5t36.5 -87.5q0 -52 -36.5 -88t-87.5 -36z" />
<glyph unicode="&#xb8;" d="M865 -196q0 -124 -60.5 -186.5t-181.5 -62.5q-85 0 -161 32q-96 42 -96 115q0 54 68 54q36 0 81.5 -24.5t96.5 -24.5q49 1 73 24t24 68q0 60 -70 110q-56 40 -125 57q-65 15 -65 73q0 76 72 76q120 0 230 -95q114 -98 114 -216z" />
<glyph unicode="&#xb9;" horiz-adv-x="1302" d="M1149 1518q-201 -293 -398 -687l-266 -566q-117 -248 -171 -283q-14 2 -20 10t-6 31q0 33 15.5 106.5t182.5 433.5q181 391 336 665q194 344 260 344q25 0 42 -7q26 -11 26 -35q0 -8 -1 -12zM1215 324q0 -11 -31 -24q-15 -6 -56 -19q10 -62 18 -120.5t8 -95.5 q0 -19 -1 -29t-4 -31h-63l-17 125q-11 77 -34 127q-59 -21 -125.5 -37.5t-102.5 -16.5q-44 0 -64 14.5t-22.5 37t-2.5 37.5q0 96 70 276q62 160 146.5 303.5t123.5 150.5q8 -16 11 -32t3 -35q0 -8 -2 -54t-2 -91q0 -91 5 -177q2 -32 13 -157q18 0 50.5 8l65.5 16 q8 -15 10.5 -67.5t2.5 -108.5zM1017 447q-10 67 -16 131q-9 92 -9 165q-28 -35 -88.5 -155.5t-75.5 -174.5q49 0 113 14q21 5 76 20zM527 994q0 -11 -29 -24q-14 -6 -52 -19q9 -62 16.5 -120.5t7.5 -95.5q0 -19 -1 -29l-3 -31h-59q-10 82 -16 125q-10 77 -31 127 q-55 -21 -117 -37.5t-95 -16.5q-41 0 -59.5 14.5t-21 37t-2.5 37.5q0 96 65 276q58 160 136.5 303.5t114.5 150.5q7 -16 10 -32t3 -35q0 -8 -2 -54t-2 -91q0 -91 5 -177q2 -32 12 -157q17 0 47 8l61 16q7 -15 9.5 -67.5t2.5 -108.5zM343 1117q-9 67 -15 131q-8 92 -8 165 q-26 -35 -82.5 -155.5t-70.5 -174.5q46 0 105 14q20 5 71 20z" />
<glyph unicode="&#xba;" horiz-adv-x="799" d="M741 1244q0 -112 -16 -194q-26 -128 -89 -199q-80 -89 -221 -89q-160 0 -251 73q-73 58 -102 163q-21 74 -21 176q0 216 84 359q60 102 154 158q59 35 79 35q74 0 160 -55q95 -61 154 -164q69 -119 69 -263zM608 1196q0 89 -39.5 164.5t-99.5 69.5q-41 -47 -75 -47 q-37 0 -129 52q-44 -32 -67 -71q-35 -59 -35 -130q0 -24 2 -38q14 -107 91 -153q49 -29 117 -29q10 0 18 0.5t12 1.5q90 0 147.5 50t57.5 130z" />
<glyph unicode="&#xbb;" horiz-adv-x="1183" d="M802 614q-56 -41 -138 -127q-97 -101 -132.5 -132t-35.5 -68t27 -65t63 -28q27 0 55 21q40 29 171 166q101 105 193 141q76 28 76 83q0 50 -69 83q-93 45 -204 162q-155 162 -184.5 186.5t-59.5 24.5q-36 0 -63.5 -27.5t-27.5 -64.5q0 -34 31 -64q95 -102 298 -291z M348 592q-56 -41 -137 -126q-97 -101 -133 -132.5t-36 -68.5q0 -36 27 -64.5t63 -28.5q27 0 55 21q40 29 172 167q100 105 193 140q75 29 75 83q0 51 -68 84q-94 44 -205 161q-154 162 -184 187t-60 25q-36 0 -63.5 -28t-27.5 -64q0 -34 31 -65q96 -102 298 -291z" />
<glyph unicode="&#xbc;" horiz-adv-x="1302" d="M1149 1518q-201 -293 -398 -687l-266 -566q-117 -248 -171 -283q-14 2 -20 10t-6 31q0 33 15.5 106.5t182.5 433.5q181 391 336 665q194 344 260 344q25 0 42 -7q26 -11 26 -35q0 -8 -1 -12zM1215 324q0 -11 -31 -24q-15 -6 -56 -19q10 -62 18 -120.5t8 -95.5 q0 -19 -1 -29t-4 -31h-63l-17 125q-11 77 -34 127q-59 -21 -125.5 -37.5t-102.5 -16.5q-44 0 -64 14.5t-22.5 37t-2.5 37.5q0 96 70 276q62 160 146.5 303.5t123.5 150.5q8 -16 11 -32t3 -35q0 -8 -2 -54t-2 -91q0 -91 5 -177q2 -32 13 -157q18 0 50.5 8l65.5 16 q8 -15 10.5 -67.5t2.5 -108.5zM453 666q-112 -47 -227 -68q-78 -14 -140 -14h-18t-12 1l12 158q8 5 69 10t68.5 10.5t7.5 91.5q0 102 -7.5 225.5t-16.5 151.5q-18 -44 -28 -91t-18 -89q-8 -7 -16 -7q-12 0 -20 21.5t-8 54.5q8 65 33 163l44 166t22 110q6 7 17.5 10.5 t26.5 3.5q33 0 42 -14l16 -786q23 0 48 6l105 29v-143zM1017 447q-10 67 -16 131q-9 92 -9 165q-28 -35 -88.5 -155.5t-75.5 -174.5q49 0 113 14q21 5 76 20z" />
<glyph unicode="&#xbd;" horiz-adv-x="1302" d="M1149 1518q-201 -293 -398 -687l-266 -566q-117 -248 -171 -283q-14 2 -20 10t-6 31q0 33 15.5 106.5t182.5 433.5q181 391 336 665q194 344 260 344q25 0 42 -7q26 -11 26 -35q0 -8 -1 -12zM453 666q-112 -47 -227 -68q-78 -14 -140 -14h-18t-12 1l12 158q8 5 69 10 t68.5 10.5t7.5 91.5q0 102 -7.5 225.5t-16.5 151.5q-18 -44 -28 -91t-18 -89q-8 -7 -16 -7q-12 0 -20 21.5t-8 54.5q8 65 33 163l44 166t22 110q6 7 17.5 10.5t26.5 3.5q33 0 42 -14l16 -786q23 0 48 6l105 29v-143zM1299 222q0 -87 -109 -175q-113 -92 -237 -92 q-45 0 -64 39q-15 31 -15 84q0 17 1 30t3 35q0 95 30 191q18 57 67 171t68 184q1 5 9 27.5t8 33.5q0 27 -35 27q-66 0 -92 -72q-16 -44 -16 -108v-12.5v-2.5v-84q0 -19 -21.5 -42.5t-51.5 -23.5q-9 0 -20 3q0 5 -4.5 64t-4.5 90q0 37 1.5 53.5t7.5 46.5q39 176 102 240 q56 57 144 57q49 0 67 -47q12 -32 12 -98v-32q0 -132 -35 -260q-23 -85 -75 -210q-57 -138 -71 -187q7 -4 14.5 -6.5t19.5 -2.5q40 0 96 37q170 112 176 114q2 -21 14 -49q3 -9 11 -23z" />
<glyph unicode="&#xbe;" horiz-adv-x="1302" d="M1149 1518q-201 -293 -398 -687l-266 -566q-117 -248 -171 -283q-14 2 -20 10t-6 31q0 33 15.5 106.5t182.5 433.5q181 391 336 665q194 344 260 344q25 0 42 -7q26 -11 26 -35q0 -8 -1 -12zM1215 324q0 -11 -31 -24q-15 -6 -56 -19q10 -62 18 -120.5t8 -95.5 q0 -19 -1 -29t-4 -31h-63l-17 125q-11 77 -34 127q-59 -21 -125.5 -37.5t-102.5 -16.5q-44 0 -64 14.5t-22.5 37t-2.5 37.5q0 96 70 276q62 160 146.5 303.5t123.5 150.5q8 -16 11 -32t3 -35q0 -8 -2 -54t-2 -91q0 -91 5 -177q2 -32 13 -157q18 0 50.5 8l65.5 16 q8 -15 10.5 -67.5t2.5 -108.5zM1017 447q-10 67 -16 131q-9 92 -9 165q-28 -35 -88.5 -155.5t-75.5 -174.5q49 0 113 14q21 5 76 20zM482 882q0 -127 -80.5 -252.5t-158.5 -125.5q-55 0 -77 41q-17 31 -17 88q0 39 20 74q17 29 47 52q36 -16 36 -53q0 -8 -3 -16 q51 14 105 93q47 69 47 99q0 13 -19 25q-26 16 -71 16q-49 0 -95 -31q-14 -9 -75 -64q-25 0 -33.5 17.5t-8.5 54.5q0 16 1 55.5t1 42.5q63 91 101 154q77 126 77 168q0 23 -21 20q-50 -7 -82 -60q-12 -19 -57 -174q-14 -14 -27 -14t-27 14q-6 30 -6 62q0 52 16 127 q22 100 68 159q54 70 133 70q44 0 67 -41.5t23 -100.5q0 -71 -14 -125t-76 -169q30 6 55 6q83 0 121 -69q30 -55 30 -143z" />
<glyph unicode="&#xc0;" horiz-adv-x="996" d="M970 88q0 -88 -58 -88q-84 0 -119 79q-27 62 -37 178q-11 132 -25 176q-195 -67 -241 -86q-192 -76 -208 -118q0 -30 9 -88t9 -88q0 -2 -5 -53h-155q-9 30 -9 79q0 363 102 864q125 618 315 725q118 -7 185 -294q23 -132 74 -392q119 -540 153 -799q10 -67 10 -95z M641 739q0 72 -42 227t-79 211q-58 -54 -113 -276q-49 -192 -49 -306q283 109 283 144zM789 1746q0 -36 -28.5 -62.5t-64.5 -26.5q-43 0 -72 42l-100 149q-53 73 -124 128q-39 30 -39 71q0 36 26.5 64.5t62.5 28.5q62 0 202 -166q137 -164 137 -228z" />
<glyph unicode="&#xc1;" horiz-adv-x="933" d="M970 88q0 -88 -58 -88q-84 0 -119 79q-27 62 -37 178q-11 132 -25 176q-195 -67 -241 -86q-192 -76 -208 -118q0 -30 9 -88t9 -88q0 -2 -5 -53h-155q-9 30 -9 79q0 363 102 864q125 618 315 725q118 -7 185 -294q23 -132 74 -392q119 -540 153 -799q10 -67 10 -95z M641 739q0 72 -42 227t-79 211q-58 -54 -113 -276q-49 -192 -49 -306q283 109 283 144zM317 1623q-36 0 -63.5 28t-27.5 64q0 34 31 65q43 42 131 159q66 86 147 143q27 19 53 19q36 0 63 -28.5t27 -64.5q0 -40 -38 -70q-70 -56 -135 -145q-68 -94 -129 -145 q-28 -25 -59 -25z" />
<glyph unicode="&#xc2;" horiz-adv-x="951" d="M918 88q0 -88 -58 -88q-84 0 -119 79q-27 62 -37 178q-11 132 -25 176q-195 -67 -241 -86q-192 -76 -208 -118q0 -30 9 -88t9 -88q0 -2 -5 -53h-155q-9 30 -9 79q0 363 102 864q125 618 315 725q118 -7 185 -294q23 -132 74 -392q119 -540 153 -799q10 -67 10 -95z M589 739q0 72 -42 227t-79 211q-58 -54 -113 -276q-49 -192 -49 -306q283 109 283 144zM466 2053q55 0 132 -67q24 -21 109 -112l159 -170q26 -30 26 -61q0 -36 -27.5 -63.5t-64.5 -27.5q-33 0 -63 29q-80 90 -250 260q-254 -312 -326 -312q-36 0 -63.5 28t-27.5 64 q0 35 30 65q56 54 305 336q27 31 61 31z" />
<glyph unicode="&#xc3;" horiz-adv-x="1070" d="M918 88q0 -88 -58 -88q-84 0 -119 79q-27 62 -37 178q-11 132 -25 176q-195 -67 -241 -86q-192 -76 -208 -118q0 -30 9 -88t9 -88q0 -2 -5 -53h-155q-9 30 -9 79q0 363 102 864q125 618 315 725q118 -7 185 -294q23 -132 74 -392q119 -540 153 -799q10 -67 10 -95z M589 739q0 72 -42 227t-79 211q-58 -54 -113 -276q-49 -192 -49 -306q283 109 283 144zM353 2043q100 0 161 -58l83 -106q47 -58 112 -58q57 0 85 37l46 88l20 59q14 29 60 29q75 0 75 -74q0 -36 -43 -121q-40 -80 -69 -110q-56 -57 -143 -57q-131 0 -205 57q-27 21 -88 107 q-42 57 -94 57q-31 0 -55.5 -11.5t-42.5 -34.5l-44 -85q-25 -45 -65 -45q-31 0 -54 20.5t-23 51.5q0 11 3 23q28 102 101 165q78 66 180 66z" />
<glyph unicode="&#xc4;" horiz-adv-x="981" d="M963 88q0 -88 -58 -88q-84 0 -119 79q-27 62 -37 178q-11 132 -25 176q-195 -67 -241 -86q-192 -76 -208 -118q0 -30 9 -88t9 -88q0 -2 -5 -53h-155q-9 30 -9 79q0 363 102 864q125 618 315 725q118 -7 185 -294q23 -132 74 -392q119 -540 153 -799q10 -67 10 -95z M634 739q0 72 -42 227t-79 211q-58 -54 -113 -276q-49 -192 -49 -306q283 109 283 144zM280 1844q131 0 131 -105q0 -30 -44 -58q-40 -25 -75 -25q-123 0 -123 103q0 29 37.5 57t73.5 28zM819 1852q34 0 69 -31.5t35 -61.5q0 -92 -143 -92q-41 0 -73 21q-36 24 -36 63 q0 69 45 89q25 12 103 12z" />
<glyph unicode="&#xc6;" horiz-adv-x="2226" d="M1152 672q-106 -3 -272 -19l-272 -25q-87 -119 -257 -385l-121 -185q-33 -46 -80 -46q-40 0 -72 29.5t-32 69.5q0 27 19 57q311 508 539 774l272 346q180 219 316 282q34 16 70 16q42 0 72 -29q120 32 226.5 48t200.5 16q262 0 388 -58q67 -31 67 -96q0 -42 -28.5 -73.5 t-69.5 -31.5q-12 0 -31 5q-187 48 -326 48q-82 0 -179 -15t-209 -46q9 -63 9 -104q0 -140 -17 -382l438 42q186 20 237 20q45 0 74 -29.5t29 -74.5q0 -84 -91 -102l-238 -20l-462 -43q-9 -142 -9 -252q0 -226 32 -260q27 -28 157 -28q62 0 186.5 3.5t187.5 3.5q19 0 58 6 t59 6q106 0 106 -103q0 -79 -85 -101t-216 -23l-218 2q-291 0 -381 97q-86 93 -86 397q0 114 9 263zM781 844q245 24 384 27q17 242 17 379q0 30 -5 68q-92 -84 -206 -230z" />
<glyph unicode="&#xc7;" horiz-adv-x="1030" d="M981 207q0 -70 -14.5 -119.5t-42.5 -87.5h-647q-60 38 -103 121q-39 76 -62 190q-18 92 -28 183t-10 195q0 123 16 260q22 184 68 328q56 174 134 270q93 114 214 114q99 0 169 -64q58 -54 93 -153q25 -67 37.5 -147t12.5 -146q0 -155 -1 -193q-3 -141 -21 -242 q-37 0 -67 -13q-10 -4 -24 -14q-47 0 -74 31q-16 18 -25 43t-13.5 54t-5.5 52.5t-1 56.5q0 45 2.5 115t2.5 76q0 79 -11 113q-15 45 -55 45q-37 0 -105 -75q-79 -87 -128 -205q-63 -149 -63 -306q0 -111 35 -196q24 -58 62 -92q43 -38 107 -50h239h241h17q29 -39 38 -54 q13 -24 13 -90zM498 2l85 -100l-11 -97l-78 -26l-7 -33l18 -45l63 4l38 29l40 60l12 67l-19 74l-33 48l-23 19h-85z" />
<glyph unicode="&#xc8;" horiz-adv-x="1025" d="M957 288q0 -46 -35 -220q-14 -74 -83 -74q-12 0 -35 2.5t-35 2.5h-518q-37 115 -76 527q-35 368 -35 551q0 176 243 382q227 190 414 222h9q47 0 47 -62q0 39 -14 -24l-28 -145q-16 -93 -25 -105q-23 -32 -84 -55q-101 -39 -155 -76q-83 -58 -159 -149q-95 -111 -95 -187 q0 -51 55 -49q387 167 417 167q48 0 48 -72q0 -21 -5.5 -60t-5.5 -60q0 -125 -60 -183q-35 -35 -176 -85l-250 -98q0 -102 60 -127q319 25 502 25q79 0 79 -48zM649 1738q0 -36 -28.5 -62.5t-64.5 -26.5q-43 0 -72 42l-100 149q-53 73 -124 128q-39 30 -39 71 q0 36 26.5 64.5t62.5 28.5q62 0 202 -166q137 -164 137 -228z" />
<glyph unicode="&#xc9;" horiz-adv-x="1025" d="M957 288q0 -46 -35 -220q-14 -74 -83 -74q-12 0 -35 2.5t-35 2.5h-518q-37 115 -76 527q-35 368 -35 551q0 176 243 382q227 190 414 222h9q47 0 47 -62q0 39 -14 -24l-28 -145q-16 -93 -25 -105q-23 -32 -84 -55q-101 -39 -155 -76q-83 -58 -159 -149q-95 -111 -95 -187 q0 -51 55 -49q387 167 417 167q48 0 48 -72q0 -21 -5.5 -60t-5.5 -60q0 -125 -60 -183q-35 -35 -176 -85l-250 -98q0 -102 60 -127q319 25 502 25q79 0 79 -48zM317 1512q-36 0 -63.5 28t-27.5 64q0 34 31 65q43 42 131 159q66 86 147 143q27 19 53 19q36 0 63 -28.5 t27 -64.5q0 -40 -38 -70q-70 -56 -135 -145q-68 -94 -129 -145q-28 -25 -59 -25z" />
<glyph unicode="&#xca;" horiz-adv-x="1279" d="M975 288q0 -46 -35 -220q-14 -74 -83 -74q-12 0 -35 2.5t-35 2.5h-518q-37 115 -76 527q-35 368 -35 551q0 176 243 382q227 190 414 222h9q47 0 47 -62q0 39 -14 -24l-28 -145q-16 -93 -25 -105q-23 -32 -84 -55q-101 -39 -155 -76q-83 -58 -159 -149q-95 -111 -95 -187 q0 -51 55 -49q387 167 417 167q48 0 48 -72q0 -21 -5.5 -60t-5.5 -60q0 -125 -60 -183q-35 -35 -176 -85l-250 -98q0 -102 60 -127q319 25 502 25q79 0 79 -48zM527 2246q55 0 132 -67q24 -21 109 -112l159 -170q26 -30 26 -61q0 -36 -27.5 -63.5t-64.5 -27.5q-33 0 -63 29 q-80 90 -250 260q-254 -312 -326 -312q-36 0 -63.5 28t-27.5 64q0 35 30 65q56 54 305 336q27 31 61 31z" />
<glyph unicode="&#xcb;" horiz-adv-x="1279" d="M975 288q0 -46 -35 -220q-14 -74 -83 -74q-12 0 -35 2.5t-35 2.5h-518q-37 115 -76 527q-35 368 -35 551q0 176 243 382q227 190 414 222h9q47 0 47 -62q0 39 -14 -24l-28 -145q-16 -93 -25 -105q-23 -32 -84 -55q-101 -39 -155 -76q-83 -58 -159 -149q-95 -111 -95 -187 q0 -51 55 -49q387 167 417 167q48 0 48 -72q0 -21 -5.5 -60t-5.5 -60q0 -125 -60 -183q-35 -35 -176 -85l-250 -98q0 -102 60 -127q319 25 502 25q79 0 79 -48zM230 1884q131 0 131 -105q0 -30 -44 -58q-40 -25 -75 -25q-123 0 -123 103q0 29 37.5 57t73.5 28zM769 1892 q34 0 69 -31.5t35 -61.5q0 -92 -143 -92q-41 0 -73 21q-36 24 -36 63q0 69 45 89q25 12 103 12z" />
<glyph unicode="&#xcc;" horiz-adv-x="1119" d="M380 287q10 -73 10 -135q0 -57 -11 -89.5t-37 -32.5q-33 -30 -76 -30q-40 0 -78 30q0 127 -28.5 318.5l-56.5 397t-28 399.5q0 196 8 339q2 49 9 111q17 9 28 13q37 14 68 14q23 0 42.5 -5.5t38.5 -21.5q0 -178 28 -508q18 -217 54 -545q28 -255 29 -255zM700 1767 q0 -36 -28.5 -62.5t-64.5 -26.5q-43 0 -72 42l-100 149q-53 73 -124 128q-39 30 -39 71q0 36 26.5 64.5t62.5 28.5q62 0 202 -166q137 -164 137 -228z" />
<glyph unicode="&#xcd;" horiz-adv-x="1119" d="M380 287q10 -73 10 -135q0 -57 -11 -89.5t-37 -32.5q-33 -30 -76 -30q-40 0 -78 30q0 127 -28.5 318.5l-56.5 397t-28 399.5q0 196 8 339q2 49 9 111q17 9 28 13q37 14 68 14q23 0 42.5 -5.5t38.5 -21.5q0 -178 28 -508q18 -217 54 -545q28 -255 29 -255zM470 1657 q-36 0 -63.5 28t-27.5 64q0 34 31 65q43 42 131 159q66 86 147 143q27 19 53 19q36 0 63 -28.5t27 -64.5q0 -40 -38 -70q-70 -56 -135 -145q-68 -94 -129 -145q-28 -25 -59 -25z" />
<glyph unicode="&#xce;" horiz-adv-x="1119" d="M380 287q10 -73 10 -135q0 -57 -11 -89.5t-37 -32.5q-33 -30 -76 -30q-40 0 -78 30q0 127 -28.5 318.5l-56.5 397t-28 399.5q0 196 8 339q2 49 9 111q17 9 28 13q37 14 68 14q23 0 42.5 -5.5t38.5 -21.5q0 -178 28 -508q18 -217 54 -545q28 -255 29 -255zM520 2177 q55 0 132 -67q24 -21 109 -112l159 -170q26 -30 26 -61q0 -36 -27.5 -63.5t-64.5 -27.5q-33 0 -63 29q-80 90 -250 260q-254 -312 -326 -312q-36 0 -63.5 28t-27.5 64q0 35 30 65q56 54 305 336q27 31 61 31z" />
<glyph unicode="&#xcf;" horiz-adv-x="1119" d="M380 287q10 -73 10 -135q0 -57 -11 -89.5t-37 -32.5q-33 -30 -76 -30q-40 0 -78 30q0 127 -28.5 318.5l-56.5 397t-28 399.5q0 196 8 339q2 49 9 111q17 9 28 13q37 14 68 14q23 0 42.5 -5.5t38.5 -21.5q0 -178 28 -508q18 -217 54 -545q28 -255 29 -255zM-62 1850 q131 0 131 -105q0 -30 -44 -58q-40 -25 -75 -25q-123 0 -123 103q0 29 37.5 57t73.5 28zM477 1858q34 0 69 -31.5t35 -61.5q0 -92 -143 -92q-41 0 -73 21q-36 24 -36 63q0 69 45 89q25 12 103 12z" />
<glyph unicode="&#xd1;" horiz-adv-x="1632" d="M1227 207q0 -16 1 -42t1 -37q0 -33 -4.5 -64.5t-18.5 -84.5h-117q-42 57 -195 229q-178 200 -321 346q-187 191 -273 249q0 -156 12 -309q6 -79 22 -216q12 -104 12 -142t-7 -62q-6 -14 -21 -20.5t-36 -6.5q-44 0 -88 22q-15 48 -27 120q-20 120 -30 297q-14 237 -14 569 q0 69 9.5 224.5t22.5 256.5q15 6 32.5 9t30.5 3q21 0 43.5 -6t44.5 -22q9 -14 12.5 -31.5t3.5 -39.5q0 -9 -1 -29t-1 -31v-16.5t4 -22.5l575 -613q-18 138 -21 166q-12 105 -17.5 183.5t-5.5 182.5q0 61 13 194q18 179 43 247q14 0 42 6t43 6q21 0 37.5 -8.5t30.5 -33.5 q0 -9 -11 -187q-6 -97 -6 -171q0 -72 4 -152t14 -178q23 -207 65 -366l65 -217t32 -202zM368 2061q100 0 161 -58l83 -106q47 -58 112 -58q57 0 85 37l46 88l20 59q14 29 60 29q75 0 75 -74q0 -36 -43 -121q-40 -80 -69 -110q-56 -57 -143 -57q-131 0 -205 57 q-27 21 -88 107q-42 57 -94 57q-31 0 -55.5 -11.5t-42.5 -34.5l-44 -85q-25 -45 -65 -45q-31 0 -54 20.5t-23 51.5q0 11 3 23q28 102 101 165q78 66 180 66z" />
<glyph unicode="&#xd2;" horiz-adv-x="1635" d="M910 825q0 -225 -10 -334q-21 -228 -89 -356q-89 -167 -257 -167q-186 0 -294 134q-85 106 -120 297q-24 132 -24 303q0 375 85 630q62 186 161 290q66 69 95 69q91 0 193 -103q111 -112 180 -296q80 -214 80 -467zM742 738q0 124 -53.5 251.5t-98.5 127.5q-11 0 -18 -8 q-43 -88 -117 -88q-48 0 -97 37q-25 0 -56 -91.5t-31 -177.5v-22t4 -29q25 -158 89 -253q46 -69 110 -101q36 -18 58 -18q118 0 173 148q37 100 37 224zM762 1783q0 -36 -28.5 -62.5t-64.5 -26.5q-43 0 -72 42l-100 149q-53 73 -124 128q-39 30 -39 71q0 36 26.5 64.5 t62.5 28.5q62 0 202 -166q137 -164 137 -228z" />
<glyph unicode="&#xd3;" horiz-adv-x="1635" d="M910 825q0 -225 -10 -334q-21 -228 -89 -356q-89 -167 -257 -167q-186 0 -294 134q-85 106 -120 297q-24 132 -24 303q0 375 85 630q62 186 161 290q66 69 95 69q91 0 193 -103q111 -112 180 -296q80 -214 80 -467zM742 738q0 124 -53.5 251.5t-98.5 127.5q-11 0 -18 -8 q-43 -88 -117 -88q-48 0 -97 37q-25 0 -56 -91.5t-31 -177.5v-22t4 -29q25 -158 89 -253q46 -69 110 -101q36 -18 58 -18q118 0 173 148q37 100 37 224zM977 1637q-36 0 -63.5 28t-27.5 64q0 34 31 65q43 42 131 159q66 86 147 143q27 19 53 19q36 0 63 -28.5t27 -64.5 q0 -40 -38 -70q-70 -56 -135 -145q-68 -94 -129 -145q-28 -25 -59 -25z" />
<glyph unicode="&#xd4;" horiz-adv-x="963" d="M910 825q0 -225 -10 -334q-21 -228 -89 -356q-89 -167 -257 -167q-186 0 -294 134q-85 106 -120 297q-24 132 -24 303q0 375 85 630q62 186 161 290q66 69 95 69q91 0 193 -103q111 -112 180 -296q80 -214 80 -467zM742 738q0 124 -53.5 251.5t-98.5 127.5q-11 0 -18 -8 q-43 -88 -117 -88q-48 0 -97 37q-25 0 -56 -91.5t-31 -177.5v-22t4 -29q25 -158 89 -253q46 -69 110 -101q36 -18 58 -18q118 0 173 148q37 100 37 224zM439 2140q55 0 132 -67q24 -21 109 -112l159 -170q26 -30 26 -61q0 -36 -27.5 -63.5t-64.5 -27.5q-33 0 -63 29 q-80 90 -250 260q-254 -312 -326 -312q-36 0 -63.5 28t-27.5 64q0 35 30 65q56 54 305 336q27 31 61 31z" />
<glyph unicode="&#xd5;" horiz-adv-x="1048" d="M910 825q0 -225 -10 -334q-21 -228 -89 -356q-89 -167 -257 -167q-186 0 -294 134q-85 106 -120 297q-24 132 -24 303q0 375 85 630q62 186 161 290q66 69 95 69q91 0 193 -103q111 -112 180 -296q80 -214 80 -467zM742 738q0 124 -53.5 251.5t-98.5 127.5q-11 0 -18 -8 q-43 -88 -117 -88q-48 0 -97 37q-25 0 -56 -91.5t-31 -177.5v-22t4 -29q25 -158 89 -253q46 -69 110 -101q36 -18 58 -18q118 0 173 148q37 100 37 224zM346 2098q100 0 161 -58l83 -106q47 -58 112 -58q57 0 85 37l46 88l20 59q14 29 60 29q75 0 75 -74q0 -36 -43 -121 q-40 -80 -69 -110q-56 -57 -143 -57q-131 0 -205 57q-27 21 -88 107q-42 57 -94 57q-31 0 -55.5 -11.5t-42.5 -34.5l-44 -85q-25 -45 -65 -45q-31 0 -54 20.5t-23 51.5q0 11 3 23q28 102 101 165q78 66 180 66z" />
<glyph unicode="&#xd6;" horiz-adv-x="1011" d="M910 825q0 -225 -10 -334q-21 -228 -89 -356q-89 -167 -257 -167q-186 0 -294 134q-85 106 -120 297q-24 132 -24 303q0 375 85 630q62 186 161 290q66 69 95 69q91 0 193 -103q111 -112 180 -296q80 -214 80 -467zM742 738q0 124 -53.5 251.5t-98.5 127.5q-11 0 -18 -8 q-43 -88 -117 -88q-48 0 -97 37q-25 0 -56 -91.5t-31 -177.5v-22t4 -29q25 -158 89 -253q46 -69 110 -101q36 -18 58 -18q118 0 173 148q37 100 37 224zM227 1882q131 0 131 -105q0 -30 -44 -58q-40 -25 -75 -25q-123 0 -123 103q0 29 37.5 57t73.5 28zM766 1890 q34 0 69 -31.5t35 -61.5q0 -92 -143 -92q-41 0 -73 21q-36 24 -36 63q0 69 45 89q25 12 103 12z" />
<glyph unicode="&#xd7;" horiz-adv-x="984" d="M601 638q69 -51 136 -124q90 -98 90 -153q0 -40 -22 -71q-25 -34 -63 -34q-73 0 -155 132q-30 49 -96 93l-148 -186q-25 -71 -95 -71q-42 0 -71 26.5t-29 67.5q0 58 51 116q82 93 84 97l50 81q-71 71 -104 101q-60 55 -114 91q-48 32 -48 81q0 41 29.5 72.5t69.5 31.5 q68 0 286 -216q78 93 165 160q20 15 56 48q33 39 75 39q40 0 71.5 -30.5t31.5 -70.5q0 -49 -69 -108l-108 -88q-35 -36 -73 -85z" />
<glyph unicode="&#xd8;" horiz-adv-x="662" d="M376 1333l-100 -256q27 -14 41 -14q45 0 74 40.5t29 88.5q0 61 -44 141zM170 1179l54 130l54 130l-10 113q-55 -16 -100 -133q-29 -74 -29 -129q0 -57 31 -111zM108 1024q-94 139 -94 295q0 104 63 253q74 175 166 175q119 0 119 -97q0 -18 -2 -28q156 346 209 346 q33 0 61.5 -22.5t28.5 -55.5q0 -14 -2 -19q-104 -149 -199 -352q45 -51 81 -179t36 -206q0 -102 -71.5 -181t-174.5 -79q-55 0 -112 39q-86 -248 -131 -272q-72 0 -72 75q0 68 94 308z" />
<glyph unicode="&#xd9;" horiz-adv-x="1189" d="M1130 669q0 -184 -16 -303q-24 -179 -84 -275q-75 -120 -206 -120q-141 0 -256 20q-86 15 -176 45q-100 177 -154 373q-45 165 -63 375q-13 155 -13 380q0 82 5 181q12 238 12 266h177q0 -36 -6 -118t-11.5 -170.5t-5.5 -158.5q0 -434 80 -603t292 -169q175 0 229 87 q43 69 43 279q0 251 -94 378q-69 93 -178 111l41 376q8 3 48 3h30q58 0 124 -96q78 -114 125 -310q57 -238 57 -551zM733 1769q0 -36 -28.5 -62.5t-64.5 -26.5q-43 0 -72 42l-100 149q-53 73 -124 128q-39 30 -39 71q0 36 26.5 64.5t62.5 28.5q62 0 202 -166 q137 -164 137 -228z" />
<glyph unicode="&#xda;" horiz-adv-x="1509" d="M1130 669q0 -184 -16 -303q-24 -179 -84 -275q-75 -120 -206 -120q-141 0 -256 20q-86 15 -176 45q-100 177 -154 373q-45 165 -63 375q-13 155 -13 380q0 82 5 181q12 238 12 266h177q0 -36 -6 -118t-11.5 -170.5t-5.5 -158.5q0 -434 80 -603t292 -169q175 0 229 87 q43 69 43 279q0 251 -94 378q-69 93 -178 111l41 376q8 3 48 3h30q58 0 124 -96q78 -114 125 -310q57 -238 57 -551zM396 1655q-36 0 -63.5 28t-27.5 64q0 34 31 65q43 42 131 159q66 86 147 143q27 19 53 19q36 0 63 -28.5t27 -64.5q0 -40 -38 -70q-70 -56 -135 -145 q-68 -94 -129 -145q-28 -25 -59 -25z" />
<glyph unicode="&#xdb;" horiz-adv-x="1509" d="M1130 669q0 -184 -16 -303q-24 -179 -84 -275q-75 -120 -206 -120q-141 0 -256 20q-86 15 -176 45q-100 177 -154 373q-45 165 -63 375q-13 155 -13 380q0 82 5 181q12 238 12 266h177q0 -36 -6 -118t-11.5 -170.5t-5.5 -158.5q0 -434 80 -603t292 -169q175 0 229 87 q43 69 43 279q0 251 -94 378q-69 93 -178 111l41 376q8 3 48 3h30q58 0 124 -96q78 -114 125 -310q57 -238 57 -551zM492 2169q55 0 132 -67q24 -21 109 -112l159 -170q26 -30 26 -61q0 -36 -27.5 -63.5t-64.5 -27.5q-33 0 -63 29q-80 90 -250 260q-254 -312 -326 -312 q-36 0 -63.5 28t-27.5 64q0 35 30 65q56 54 305 336q27 31 61 31z" />
<glyph unicode="&#xdc;" horiz-adv-x="1509" d="M1123 669q0 -184 -16 -303q-24 -179 -84 -275q-75 -120 -206 -120q-141 0 -256 20q-86 15 -176 45q-100 177 -154 373q-45 165 -63 375q-13 155 -13 380q0 82 5 181q12 238 12 266h177q0 -36 -6 -118t-11.5 -170.5t-5.5 -158.5q0 -434 80 -603t292 -169q175 0 229 87 q43 69 43 279q0 251 -94 378q-69 93 -178 111l41 376q8 3 48 3h30q58 0 124 -96q78 -114 125 -310q57 -238 57 -551zM291 1904q131 0 131 -105q0 -30 -44 -58q-40 -25 -75 -25q-123 0 -123 103q0 29 37.5 57t73.5 28zM830 1912q34 0 69 -31.5t35 -61.5q0 -92 -143 -92 q-41 0 -73 21q-36 24 -36 63q0 69 45 89q25 12 103 12z" />
<glyph unicode="&#xdd;" horiz-adv-x="1301" d="M1067 1638q8 -44 11 -83t3 -84q0 -186 -73 -353q-56 -127 -151 -239q-51 -60 -122 -121q0 -63 8 -213t8 -241q0 -92 -3.5 -155.5t-15.5 -153.5h-180q0 121 -10.5 329.5t-22.5 314.5q-49 -13 -91 -19.5t-83 -6.5q-180 0 -256 143q-60 112 -60 327q0 72 7 162q3 33 15 155 q23 37 65.5 56.5t90.5 19.5q21 0 36.5 -3t37.5 -10q-16 -71 -25 -128q-12 -76 -12 -130q0 -87 25 -131q30 -54 98 -54q11 0 17.5 1t23.5 4q185 41 341 229q153 184 153 353q0 31 -6 60q47 22 95 22q34 0 55 -12.5t21 -38.5zM627 1728q-36 0 -63.5 28t-27.5 64q0 34 31 65 q43 42 131 159q66 86 147 143q27 19 53 19q36 0 63 -28.5t27 -64.5q0 -40 -38 -70q-70 -56 -135 -145q-68 -94 -129 -145q-28 -25 -59 -25z" />
<glyph unicode="&#xdf;" horiz-adv-x="908" d="M502 1379q-100 0 -158.5 -95.5t-75.5 -286.5q-18 -209 -18 -451q0 -61 3.5 -183t3.5 -184q0 -154 -8 -201q-22 -135 -105 -135q-40 0 -69 26t-29 65q0 7 2 20q20 137 20 264q0 53 5 159t5 159q0 39 -1 116.5t-1 115.5q0 347 58 517q97 285 372 285q162 0 254 -126 q81 -112 81 -280q0 -145 -206 -349q125 -85 187.5 -220.5t62.5 -320.5q0 -174 -85 -261t-255 -87q-90 0 -160 46q-80 53 -80 138q0 77 65 77q30 0 79.5 -36.5t90.5 -36.5q83 0 118 31q39 34 39 118q0 191 -78 306q-40 58 -145 136q-78 58 -78 108q0 43 63 103l117 110 q63 72 63 144q0 105 -34 157t-103 52z" />
<glyph unicode="&#xe0;" horiz-adv-x="795" d="M690 201q13 -72 16 -94t3 -42q0 -31 -18.5 -41.5t-72.5 -10.5q-82 0 -106 83q-18 121 -33 196q-105 -39 -149 -59q-66 -29 -82 -47q0 -24 1.5 -57.5t1.5 -35.5q0 -32 -1 -46t-8 -56h-144l-24 117q-8 50 -8 142q0 88 33 311q41 278 99 472q76 256 167 312q63 0 109 -94 q34 -71 66 -219l48 -245q35 -168 61 -316.5t41 -269.5zM390 624q0 18 -7.5 77.5t-17.5 106.5l-30 2q-15 -47 -28 -108t-22 -126q105 25 105 48zM644 1350q0 -36 -28.5 -62.5t-64.5 -26.5q-43 0 -72 42l-100 149q-53 73 -124 128q-39 30 -39 71q0 36 26.5 64.5t62.5 28.5 q62 0 202 -166q137 -164 137 -228z" />
<glyph unicode="&#xe1;" horiz-adv-x="762" d="M690 201q13 -72 16 -94t3 -42q0 -31 -18.5 -41.5t-72.5 -10.5q-82 0 -106 83q-18 121 -33 196q-105 -39 -149 -59q-66 -29 -82 -47q0 -24 1.5 -57.5t1.5 -35.5q0 -32 -1 -46t-8 -56h-144l-24 117q-8 50 -8 142q0 88 33 311q41 278 99 472q76 256 167 312q63 0 109 -94 q34 -71 66 -219l48 -245q35 -168 61 -316.5t41 -269.5zM390 624q0 18 -7.5 77.5t-17.5 106.5l-30 2q-15 -47 -28 -108t-22 -126q105 25 105 48zM182 1296q-36 0 -63.5 28t-27.5 64q0 34 31 65q43 42 131 159q66 86 147 143q27 19 53 19q36 0 63 -28.5t27 -64.5 q0 -40 -38 -70q-70 -56 -135 -145q-68 -94 -129 -145q-28 -25 -59 -25z" />
<glyph unicode="&#xe2;" horiz-adv-x="992" d="M705 201q13 -72 16 -94t3 -42q0 -31 -18.5 -41.5t-72.5 -10.5q-82 0 -106 83q-18 121 -33 196q-105 -39 -149 -59q-66 -29 -82 -47q0 -24 1.5 -57.5t1.5 -35.5q0 -32 -1 -46t-8 -56h-144l-24 117q-8 50 -8 142q0 88 33 311q41 278 99 472q76 256 167 312q63 0 109 -94 q34 -71 66 -219l48 -245q35 -168 61 -316.5t41 -269.5zM405 624q0 18 -7.5 77.5t-17.5 106.5l-30 2q-15 -47 -28 -108t-22 -126q105 25 105 48zM383.007 1628.02q38.501 0 92.4023 -46.9004q16.7998 -14.7002 76.3008 -78.4014l111.302 -119.002 q18.2012 -21.001 18.2012 -42.7012q0 -25.2002 -19.251 -44.4512q-19.25 -19.25 -45.1504 -19.25q-23.1006 0 -44.1006 20.3008q-56.001 63.001 -175.004 182.003q-177.803 -218.404 -228.203 -218.404q-25.2012 0 -44.4512 19.6006t-19.25 44.8008q0 24.501 21 45.501 q39.2012 37.8008 213.504 235.204q18.9004 21.7002 42.7002 21.7002z" />
<glyph unicode="&#xe3;" horiz-adv-x="1048" d="M690 201q13 -72 16 -94t3 -42q0 -31 -18.5 -41.5t-72.5 -10.5q-82 0 -106 83q-18 121 -33 196q-105 -39 -149 -59q-66 -29 -82 -47q0 -24 1.5 -57.5t1.5 -35.5q0 -32 -1 -46t-8 -56h-144l-24 117q-8 50 -8 142q0 88 33 311q41 278 99 472q76 256 167 312q63 0 109 -94 q34 -71 66 -219l48 -245q35 -168 61 -316.5t41 -269.5zM390 624q0 18 -7.5 77.5t-17.5 106.5l-30 2q-15 -47 -28 -108t-22 -126q105 25 105 48zM231 1677q100 0 161 -58l83 -106q47 -58 112 -58q57 0 85 37l46 88l20 59q14 29 60 29q75 0 75 -74q0 -36 -43 -121 q-40 -80 -69 -110q-56 -57 -143 -57q-131 0 -205 57q-27 21 -88 107q-42 57 -94 57q-31 0 -55.5 -11.5t-42.5 -34.5l-44 -85q-25 -45 -65 -45q-31 0 -54 20.5t-23 51.5q0 11 3 23q28 102 101 165q78 66 180 66z" />
<glyph unicode="&#xe4;" horiz-adv-x="1048" d="M690 201q13 -72 16 -94t3 -42q0 -31 -18.5 -41.5t-72.5 -10.5q-82 0 -106 83q-18 121 -33 196q-105 -39 -149 -59q-66 -29 -82 -47q0 -24 1.5 -57.5t1.5 -35.5q0 -32 -1 -46t-8 -56h-144l-24 117q-8 50 -8 142q0 88 33 311q41 278 99 472q76 256 167 312q63 0 109 -94 q34 -71 66 -219l48 -245q35 -168 61 -316.5t41 -269.5zM390 624q0 18 -7.5 77.5t-17.5 106.5l-30 2q-15 -47 -28 -108t-22 -126q105 25 105 48zM83 1508q131 0 131 -105q0 -30 -44 -58q-40 -25 -75 -25q-123 0 -123 103q0 29 37.5 57t73.5 28zM622 1516q34 0 69 -31.5 t35 -61.5q0 -92 -143 -92q-41 0 -73 21q-36 24 -36 63q0 69 45 89q25 12 103 12z" />
<glyph unicode="&#xe5;" horiz-adv-x="1048" d="M912 201q13 -72 16 -94t3 -42q0 -31 -18.5 -41.5t-72.5 -10.5q-82 0 -106 83q-18 121 -33 196q-105 -39 -149 -59q-66 -29 -82 -47q0 -24 1.5 -57.5t1.5 -35.5q0 -32 -1 -46t-8 -56h-144l-24 117q-8 50 -8 142q0 88 33 311q41 278 99 472q76 256 167 312q63 0 109 -94 q34 -71 66 -219l48 -245q35 -168 61 -316.5t41 -269.5zM612 624q0 18 -7.5 77.5t-17.5 106.5l-30 2q-15 -47 -28 -108t-22 -126q105 25 105 48zM707.29 1583.63q0 -46.0029 -5.09961 -80.0059q-8.09961 -54.4023 -28.7988 -85.2051q-26.6992 -39.6016 -72.8975 -39.6016 q-51.2979 0 -80.9961 32.002q-23.999 25.6016 -33.5986 71.2041q-6.59961 31.2021 -6.59961 73.6045q0 89.6055 26.3984 149.609q19.1992 43.6025 49.498 67.6035q19.7998 15.6016 28.1992 15.6016q24.8984 0 52.7979 -24.002q30.2988 -26.002 49.1973 -69.6045 q21.8994 -50.4033 21.8994 -111.206zM649.393 1564.43q0 32.8018 -9.89941 58.0029q-9.89941 25.2021 -18.2998 24.002q-12.8994 -19.2012 -26.998 -19.2012q-13.5 0 -38.0986 18.4004q-6.90039 -6.7998 -12.8994 -20.001q-9.2998 -20.8008 -9.2998 -46.0029 q0 -8.7998 0.599609 -13.6006q3.59961 -37.2021 22.7988 -52.4033q12.5996 -10.001 30.5996 -10.001q2.69922 0 4.64941 0.200195t3.4502 0.600586q24.5986 0 38.998 16.8008t14.3994 43.2031z" />
<glyph unicode="&#xe7;" horiz-adv-x="876" d="M822 183q0 -73 -23 -127q-12 -27 -34 -56h-528q-92 56 -137 207q-41 138 -41 347q0 132 30 289q39 205 111 329q91 157 222 157q102 0 168 -74q55 -62 81 -167q21 -85 21 -176q0 -114 -2 -192t-21 -166q-33 0 -60 -11q-9 -3 -21 -12q-60 0 -82 58q-17 44 -17 136 q0 36 1 70l2 68q0 60 -9 86q-12 35 -43 35q-27 0 -76 -55q-56 -63 -92 -151q-45 -109 -45 -224q0 -101 27 -155q33 -67 112 -81h405l38 -57q13 -23 13 -78zM428 2l85 -100l-11 -97l-78 -26l-7 -33l18 -45l63 4l38 29l40 60l12 67l-19 74l-33 48l-23 19h-85z" />
<glyph unicode="&#xe8;" horiz-adv-x="1122" d="M754 308q9 -9 9 -50q0 -38 -5 -81t-11 -90q0 -57 -38 -80q-27 -16 -76 -16q-12 0 -22.5 0.5t-19.5 0.5h-410q-17 34 -39.5 203t-38.5 358t-16 281q0 109 106 234q90 105 222 190q123 79 197 89q4 1 12 1q36 0 52 -38q12 -29 12 -77q0 -16 -1.5 -30t-2.5 -27 q0 -135 -49 -166l-181 -95q-77 -56 -133 -108q-66 -62 -66 -86q0 -13 21 -13l215.5 88t100.5 37q40 0 56 -55q10 -35 10 -97v-28q0 -102 -31 -144q-26 -35 -107 -66q-175 -67 -204 -80q-3 -20 -4 -32t1 -14q79 3 161.5 5.5t121.5 2.5q73 0 113 -3.5t45 -13.5z M367.907 1292.92q0 -25.2002 -19.9502 -43.75q-19.9512 -18.5508 -45.1514 -18.5508q-30.1006 0 -50.4004 29.4004l-70.001 104.302q-37.1016 51.1016 -86.8018 89.6016q-27.3008 21.001 -27.3008 49.7012q0 25.2002 18.5508 45.1504q18.5498 19.9512 43.75 19.9512 q43.4014 0 141.403 -116.202q95.9014 -114.803 95.9014 -159.604z" />
<glyph unicode="&#xe9;" horiz-adv-x="773" d="M754 308q9 -9 9 -50q0 -38 -5 -81t-11 -90q0 -57 -38 -80q-27 -16 -76 -16q-12 0 -22.5 0.5t-19.5 0.5h-410q-17 34 -39.5 203t-38.5 358t-16 281q0 109 106 234q90 105 222 190q123 79 197 89q4 1 12 1q36 0 52 -38q12 -29 12 -77q0 -16 -1.5 -30t-2.5 -27 q0 -135 -49 -166l-181 -95q-77 -56 -133 -108q-66 -62 -66 -86q0 -13 21 -13l215.5 88t100.5 37q40 0 56 -55q10 -35 10 -97v-28q0 -102 -31 -144q-26 -35 -107 -66q-175 -67 -204 -80q-3 -20 -4 -32t1 -14q79 3 161.5 5.5t121.5 2.5q73 0 113 -3.5t45 -13.5zM227 1172 q-36 0 -63.5 28t-27.5 64q0 34 31 65q43 42 131 159q66 86 147 143q27 19 53 19q36 0 63 -28.5t27 -64.5q0 -40 -38 -70q-70 -56 -135 -145q-68 -94 -129 -145q-28 -25 -59 -25z" />
<glyph unicode="&#xea;" horiz-adv-x="1122" d="M754 308q9 -9 9 -50q0 -38 -5 -81t-11 -90q0 -57 -38 -80q-27 -16 -76 -16q-12 0 -22.5 0.5t-19.5 0.5h-410q-17 34 -39.5 203t-38.5 358t-16 281q0 109 106 234q90 105 222 190q123 79 197 89q4 1 12 1q36 0 52 -38q12 -29 12 -77q0 -16 -1.5 -30t-2.5 -27 q0 -135 -49 -166l-181 -95q-77 -56 -133 -108q-66 -62 -66 -86q0 -13 21 -13l215.5 88t100.5 37q40 0 56 -55q10 -35 10 -97v-28q0 -102 -31 -144q-26 -35 -107 -66q-175 -67 -204 -80q-3 -20 -4 -32t1 -14q79 3 161.5 5.5t121.5 2.5q73 0 113 -3.5t45 -13.5z M573.973 1739.17q43.999 5.49902 85.1992 -41.2021q12.9004 -14.4004 54.7002 -77.8008l75.4004 -120.202q12.5996 -21.3008 3.2998 -46.0996q-11.0996 -29.5996 -41.749 -54.3984q-30.6494 -24.7998 -59.4482 -28.3984q-26.4004 -3.2998 -41.7002 16.9014 q-37 64.001 -122.8 182.902q-296.493 -274.189 -354.092 -281.388q-28.7998 -3.59961 -42.4004 16.0508q-13.5996 19.6504 -2.7998 48.4502q10.499 27.999 43.999 54.2988q60.1982 48.6973 344.292 299.988q30.8994 27.499 58.0986 30.8975z" />
<glyph unicode="&#xeb;" horiz-adv-x="1122" d="M754 308q9 -9 9 -50q0 -38 -5 -81t-11 -90q0 -57 -38 -80q-27 -16 -76 -16q-12 0 -22.5 0.5t-19.5 0.5h-410q-17 34 -39.5 203t-38.5 358t-16 281q0 109 106 234q90 105 222 190q123 79 197 89q4 1 12 1q36 0 52 -38q12 -29 12 -77q0 -16 -1.5 -30t-2.5 -27 q0 -135 -49 -166l-181 -95q-77 -56 -133 -108q-66 -62 -66 -86q0 -13 21 -13l215.5 88t100.5 37q40 0 56 -55q10 -35 10 -97v-28q0 -102 -31 -144q-26 -35 -107 -66q-175 -67 -204 -80q-3 -20 -4 -32t1 -14q79 3 161.5 5.5t121.5 2.5q73 0 113 -3.5t45 -13.5zM131 1555 q131 0 131 -105q0 -30 -44 -58q-40 -25 -75 -25q-123 0 -123 103q0 29 37.5 57t73.5 28zM670 1563q34 0 69 -31.5t35 -61.5q0 -92 -143 -92q-41 0 -73 21q-36 24 -36 63q0 69 45 89q25 12 103 12z" />
<glyph unicode="&#xec;" horiz-adv-x="574" d="M375 454q0 -60 3.5 -179.5t3.5 -179.5q0 -44 -27 -72t-71 -28q-43 0 -70.5 28t-27.5 72q0 60 -3.5 179.5t-3.5 179.5q0 94 10 234.5t10 234.5q0 45 27.5 73t70.5 28t70.5 -28t27.5 -73q0 -94 -10 -234.5t-10 -234.5zM453 1267q0 -36 -28.5 -62.5t-64.5 -26.5 q-43 0 -72 42l-100 149q-53 73 -124 128q-39 30 -39 71q0 36 26.5 64.5t62.5 28.5q62 0 202 -166q137 -164 137 -228z" />
<glyph unicode="&#xed;" horiz-adv-x="574" d="M375 454q0 -60 3.5 -179.5t3.5 -179.5q0 -44 -27 -72t-71 -28q-43 0 -70.5 28t-27.5 72q0 60 -3.5 179.5t-3.5 179.5q0 94 10 234.5t10 234.5q0 45 27.5 73t70.5 28t70.5 -28t27.5 -73q0 -94 -10 -234.5t-10 -234.5zM187 1187q-36 0 -63.5 28t-27.5 64q0 34 31 65 q43 42 131 159q66 86 147 143q27 19 53 19q36 0 63 -28.5t27 -64.5q0 -40 -38 -70q-70 -56 -135 -145q-68 -94 -129 -145q-28 -25 -59 -25z" />
<glyph unicode="&#xee;" horiz-adv-x="574" d="M375 454q0 -60 3.5 -179.5t3.5 -179.5q0 -44 -27 -72t-71 -28q-43 0 -70.5 28t-27.5 72q0 60 -3.5 179.5t-3.5 179.5q0 94 10 234.5t10 234.5q0 45 27.5 73t70.5 28t70.5 -28t27.5 -73q0 -94 -10 -234.5t-10 -234.5zM254 1640q55 0 132 -67q24 -21 109 -112l159 -170 q26 -30 26 -61q0 -36 -27.5 -63.5t-64.5 -27.5q-33 0 -63 29q-80 90 -250 260q-254 -312 -326 -312q-36 0 -63.5 28t-27.5 64q0 35 30 65q56 54 305 336q27 31 61 31z" />
<glyph unicode="&#xef;" horiz-adv-x="574" d="M375 454q0 -60 3.5 -179.5t3.5 -179.5q0 -44 -27 -72t-71 -28q-43 0 -70.5 28t-27.5 72q0 60 -3.5 179.5t-3.5 179.5q0 94 10 234.5t10 234.5q0 45 27.5 73t70.5 28t70.5 -28t27.5 -73q0 -94 -10 -234.5t-10 -234.5zM-11 1372q131 0 131 -105q0 -30 -44 -58 q-40 -25 -75 -25q-123 0 -123 103q0 29 37.5 57t73.5 28zM528 1380q34 0 69 -31.5t35 -61.5q0 -92 -143 -92q-41 0 -73 21q-36 24 -36 63q0 69 45 89q25 12 103 12z" />
<glyph unicode="&#xf1;" horiz-adv-x="1072" d="M1008 183v-28.5t1 -26.5q0 -33 -3.5 -60t-17.5 -85h-120q-31 43 -135 164l-223 249q-131 139 -206 203q0 -124 10.5 -243l21.5 -238q0 -30 -5 -46q-7 -16 -25.5 -24t-43.5 -8q-41 0 -78 20q-15 45 -24 100q-15 85 -24 236q-12 193 -12 446q0 43 8.5 175.5t18.5 214.5 q16 6 35.5 9t31.5 3q26 0 47 -8t36 -18q13 -22 15.5 -73t4.5 -63l94 -102l144 -158l143 -160q-13 127 -18 206.5t-5 138.5q0 48 11 155q15 147 37 209q16 0 33 2q43 5 51 5q24 0 40.5 -9t31.5 -35q0 -22 -6 -114t-6 -170q0 -64 2.5 -122t9.5 -133q18 -157 51 -285l51 -171 q23 -81 23 -156zM349 1768q100 0 161 -58l83 -106q47 -58 112 -58q57 0 85 37l46 88l20 59q14 29 60 29q75 0 75 -74q0 -36 -43 -121q-40 -80 -69 -110q-56 -57 -143 -57q-131 0 -205 57q-27 21 -88 107q-42 57 -94 57q-31 0 -55.5 -11.5t-42.5 -34.5l-44 -85 q-25 -45 -65 -45q-31 0 -54 20.5t-23 51.5q0 11 3 23q28 102 101 165q78 66 180 66z" />
<glyph unicode="&#xf2;" horiz-adv-x="1077" d="M723 660q0 -160 -13 -267q-22 -182 -80 -286q-74 -133 -205 -133q-145 0 -229 107q-68 87 -95 239q-18 102 -18 246q0 301 73 503q53 147 137 229q55 54 79 54q72 0 151 -82q86 -89 139 -236q61 -169 61 -374zM548 594q0 95 -21.5 185.5t-46.5 90.5q-4 0 -9 -3 q-41 -80 -108 -80q-38 0 -78 26q-14 -11 -26 -68t-12 -115v-23q2 -9 2 -13q17 -124 63 -193q50 -74 99 -74q79 0 114 107q23 70 23 160zM820 1267q0 -36 -28.5 -62.5t-64.5 -26.5q-43 0 -72 42l-100 149q-53 73 -124 128q-39 30 -39 71q0 36 26.5 64.5t62.5 28.5 q62 0 202 -166q137 -164 137 -228z" />
<glyph unicode="&#xf3;" horiz-adv-x="1077" d="M723 660q0 -160 -13 -267q-22 -182 -80 -286q-74 -133 -205 -133q-145 0 -229 107q-68 87 -95 239q-18 102 -18 246q0 301 73 503q53 147 137 229q55 54 79 54q72 0 151 -82q86 -89 139 -236q61 -169 61 -374zM548 594q0 95 -21.5 185.5t-46.5 90.5q-4 0 -9 -3 q-41 -80 -108 -80q-38 0 -78 26q-14 -11 -26 -68t-12 -115v-23q2 -9 2 -13q17 -124 63 -193q50 -74 99 -74q79 0 114 107q23 70 23 160zM207 1333q-36 0 -63.5 28t-27.5 64q0 34 31 65q43 42 131 159q66 86 147 143q27 19 53 19q36 0 63 -28.5t27 -64.5q0 -40 -38 -70 q-70 -56 -135 -145q-68 -94 -129 -145q-28 -25 -59 -25z" />
<glyph unicode="&#xf4;" horiz-adv-x="1077" d="M723 660q0 -160 -13 -267q-22 -182 -80 -286q-74 -133 -205 -133q-145 0 -229 107q-68 87 -95 239q-18 102 -18 246q0 301 73 503q53 147 137 229q55 54 79 54q72 0 151 -82q86 -89 139 -236q61 -169 61 -374zM548 594q0 95 -21.5 185.5t-46.5 90.5q-4 0 -9 -3 q-41 -80 -108 -80q-38 0 -78 26q-14 -11 -26 -68t-12 -115v-23q2 -9 2 -13q17 -124 63 -193q50 -74 99 -74q79 0 114 107q23 70 23 160zM407 1818q55 0 132 -67q24 -21 109 -112l159 -170q26 -30 26 -61q0 -36 -27.5 -63.5t-64.5 -27.5q-33 0 -63 29q-80 90 -250 260 q-254 -312 -326 -312q-36 0 -63.5 28t-27.5 64q0 35 30 65q56 54 305 336q27 31 61 31z" />
<glyph unicode="&#xf5;" horiz-adv-x="1077" d="M723 660q0 -160 -13 -267q-22 -182 -80 -286q-74 -133 -205 -133q-145 0 -229 107q-68 87 -95 239q-18 102 -18 246q0 301 73 503q53 147 137 229q55 54 79 54q72 0 151 -82q86 -89 139 -236q61 -169 61 -374zM548 594q0 95 -21.5 185.5t-46.5 90.5q-4 0 -9 -3 q-41 -80 -108 -80q-38 0 -78 26q-14 -11 -26 -68t-12 -115v-23q2 -9 2 -13q17 -124 63 -193q50 -74 99 -74q79 0 114 107q23 70 23 160zM463 1554q100 0 161 -58l83 -106q47 -58 112 -58q57 0 85 37l46 88l20 59q14 29 60 29q75 0 75 -74q0 -36 -43 -121q-40 -80 -69 -110 q-56 -57 -143 -57q-131 0 -205 57q-27 21 -88 107q-42 57 -94 57q-31 0 -55.5 -11.5t-42.5 -34.5l-44 -85q-25 -45 -65 -45q-31 0 -54 20.5t-23 51.5q0 11 3 23q28 102 101 165q78 66 180 66z" />
<glyph unicode="&#xf6;" horiz-adv-x="1077" d="M723 660q0 -160 -13 -267q-22 -182 -80 -286q-74 -133 -205 -133q-145 0 -229 107q-68 87 -95 239q-18 102 -18 246q0 301 73 503q53 147 137 229q55 54 79 54q72 0 151 -82q86 -89 139 -236q61 -169 61 -374zM548 594q0 95 -21.5 185.5t-46.5 90.5q-4 0 -9 -3 q-41 -80 -108 -80q-38 0 -78 26q-14 -11 -26 -68t-12 -115v-23q2 -9 2 -13q17 -124 63 -193q50 -74 99 -74q79 0 114 107q23 70 23 160zM128 1496q131 0 131 -105q0 -30 -44 -58q-40 -25 -75 -25q-123 0 -123 103q0 29 37.5 57t73.5 28zM667 1504q34 0 69 -31.5t35 -61.5 q0 -92 -143 -92q-41 0 -73 21q-36 24 -36 63q0 69 45 89q25 12 103 12z" />
<glyph unicode="&#xf7;" horiz-adv-x="984" d="M627 732q20 0 61 2.5t61 2.5q164 0 164 -94q0 -37 -25 -64.5t-61 -27.5q-12 0 -36 4t-37 4q-92 0 -275.5 -6.5t-275.5 -6.5q-155 0 -155 92q0 63 51 79q22 7 104 7q58 0 175 6.5t176 6.5q12 0 36.5 -2.5t36.5 -2.5zM453 1140q89 0 89 -89t-91 -89q-90 0 -90 89t92 89z M380 276q0 37 26 63.5t63 26.5t63 -26.5t26 -63.5q0 -36 -26 -62.5t-63 -26.5t-63 26.5t-26 62.5z" />
<glyph unicode="&#xf8;" horiz-adv-x="680" d="M387 1608l-100 -256q27 -14 41 -14q45 0 74 40.5t29 88.5q0 61 -44 141zM181 1454l54 130l54 130l-10 113q-55 -16 -100 -133q-29 -74 -29 -129q0 -57 31 -111zM119 1299q-94 139 -94 295q0 104 63 253q74 175 166 175q119 0 119 -97q0 -18 -2 -28q156 346 209 346 q33 0 61.5 -22.5t28.5 -55.5q0 -14 -2 -19q-104 -149 -199 -352q45 -51 81 -179t36 -206q0 -102 -71.5 -181t-174.5 -79q-55 0 -112 39q-86 -248 -131 -272q-72 0 -72 75q0 68 94 308z" />
<glyph unicode="&#xf9;" horiz-adv-x="1065" d="M882 540q0 -146 -15 -246q-21 -140 -73 -221q-62 -96 -166 -96q-110 0 -197 16q-68 12 -142 39q-78 141 -120 295q-36 134 -50 295q-10 118 -10 299q0 70 3 140q9 211 9 228h180q0 -33 -12 -220q-6 -94 -6 -148q0 -323 54 -448t204 -125q119 0 154 63q26 47 26 198 q0 183 -66 273q-49 67 -139 86l34 330q24 3 54 3h26q46 0 100 -76q65 -91 104 -245q48 -189 48 -440zM818 1275q0 -36 -28.5 -62.5t-64.5 -26.5q-43 0 -72 42l-100 149q-53 73 -124 128q-39 30 -39 71q0 36 26.5 64.5t62.5 28.5q62 0 202 -166q137 -164 137 -228z" />
<glyph unicode="&#xfa;" horiz-adv-x="1065" d="M882 540q0 -146 -15 -246q-21 -140 -73 -221q-62 -96 -166 -96q-110 0 -197 16q-68 12 -142 39q-78 141 -120 295q-36 134 -50 295q-10 118 -10 299q0 70 3 140q9 211 9 228h180q0 -33 -12 -220q-6 -94 -6 -148q0 -323 54 -448t204 -125q119 0 154 63q26 47 26 198 q0 183 -66 273q-49 67 -139 86l34 330q24 3 54 3h26q46 0 100 -76q65 -91 104 -245q48 -189 48 -440zM322 1364q-36 0 -63.5 28t-27.5 64q0 34 31 65q43 42 131 159q66 86 147 143q27 19 53 19q36 0 63 -28.5t27 -64.5q0 -40 -38 -70q-70 -56 -135 -145q-68 -94 -129 -145 q-28 -25 -59 -25z" />
<glyph unicode="&#xfb;" horiz-adv-x="1065" d="M882 540q0 -146 -15 -246q-21 -140 -73 -221q-62 -96 -166 -96q-110 0 -197 16q-68 12 -142 39q-78 141 -120 295q-36 134 -50 295q-10 118 -10 299q0 70 3 140q9 211 9 228h180q0 -33 -12 -220q-6 -94 -6 -148q0 -323 54 -448t204 -125q119 0 154 63q26 47 26 198 q0 183 -66 273q-49 67 -139 86l34 330q24 3 54 3h26q46 0 100 -76q65 -91 104 -245q48 -189 48 -440zM406 1856q55 0 132 -67q24 -21 109 -112l159 -170q26 -30 26 -61q0 -36 -27.5 -63.5t-64.5 -27.5q-33 0 -63 29q-80 90 -250 260q-254 -312 -326 -312q-36 0 -63.5 28 t-27.5 64q0 35 30 65q56 54 305 336q27 31 61 31z" />
<glyph unicode="&#xfc;" horiz-adv-x="1065" d="M882 540q0 -146 -15 -246q-21 -140 -73 -221q-62 -96 -166 -96q-110 0 -197 16q-68 12 -142 39q-78 141 -120 295q-36 134 -50 295q-10 118 -10 299q0 70 3 140q9 211 9 228h180q0 -33 -12 -220q-6 -94 -6 -148q0 -323 54 -448t204 -125q119 0 154 63q26 47 26 198 q0 183 -66 273q-49 67 -139 86l34 330q24 3 54 3h26q46 0 100 -76q65 -91 104 -245q48 -189 48 -440zM143 1554q131 0 131 -105q0 -30 -44 -58q-40 -25 -75 -25q-123 0 -123 103q0 29 37.5 57t73.5 28zM682 1562q34 0 69 -31.5t35 -61.5q0 -92 -143 -92q-41 0 -73 21 q-36 24 -36 63q0 69 45 89q25 12 103 12z" />
<glyph unicode="&#xfd;" horiz-adv-x="870" d="M444 260v-452q-33 -68 -115 -72v537q-276 61 -276 371q0 170 68 348q77 205 208 289v524q0 65 115 70v-552q27 4 41 4q84 0 131 -117q35 -87 35 -179q0 -128 -70 -230h-65q20 39 20 78q0 98 -92 142v-587q113 19 213.5 91t147.5 167h12q70 0 70 -80q0 -152 -140 -254 q-131 -96 -303 -98zM329 438v595q-151 -52 -151 -362q0 -192 151 -233z" />
<glyph unicode="&#xff;" horiz-adv-x="883" d="M825 1298q12 -72 12 -137q0 -141 -53 -270q-41 -100 -111 -187q-41 -51 -97 -102q0 -47 3 -116q7 -162 7 -221q0 -73 -3 -129.5t-14 -138.5h-177q0 94 -7 247t-16 245q-32 -7 -58.5 -10.5t-55.5 -3.5q-147 0 -210 121q-49 95 -49 275q0 57 4.5 116t11.5 131 q21 32 60.5 50.5t84.5 18.5q44 0 80 -14q-19 -81 -25 -116q-12 -66 -12 -111q0 -51 17 -80t57 -29q11 0 26 3q134 32 244 167t110 266q0 27 -6 53q51 26 99 26q35 0 56.5 -14.5t21.5 -39.5zM164 1575q131 0 131 -105q0 -30 -44 -58q-40 -25 -75 -25q-123 0 -123 103 q0 29 37.5 57t73.5 28zM703 1583q34 0 69 -31.5t35 -61.5q0 -92 -143 -92q-41 0 -73 21q-36 24 -36 63q0 69 45 89q25 12 103 12z" />
<glyph unicode="&#x100;" horiz-adv-x="1498" d="M970 88q0 -88 -58 -88q-84 0 -119 79q-27 62 -37 178q-11 132 -25 176q-195 -67 -241 -86q-192 -76 -208 -118q0 -30 9 -88t9 -88q0 -2 -5 -53h-155q-9 30 -9 79q0 363 102 864q125 618 315 725q118 -7 185 -294q23 -132 74 -392q119 -540 153 -799q10 -67 10 -95z M641 739q0 72 -42 227t-79 211q-58 -54 -113 -276q-49 -192 -49 -306q283 109 283 144zM846 1794q39 0 118.5 -4.5t118.5 -4.5q41 0 122 2t121 2q78 0 78 -75q0 -60 -65 -73l-112 -5h-155q-48 0 -144 3t-145 3q-72 0 -72 76q0 51 46 67q24 9 89 9z" />
<glyph unicode="&#x101;" horiz-adv-x="1048" d="M675 201q13 -72 16 -94t3 -42q0 -31 -18.5 -41.5t-72.5 -10.5q-82 0 -106 83q-18 121 -33 196q-105 -39 -149 -59q-66 -29 -82 -47q0 -24 1.5 -57.5t1.5 -35.5q0 -32 -1 -46t-8 -56h-144l-24 117q-8 50 -8 142q0 88 33 311q41 278 99 472q76 256 167 312q63 0 109 -94 q34 -71 66 -219l48 -245q35 -168 61 -316.5t41 -269.5zM375 624q0 18 -7.5 77.5t-17.5 106.5l-30 2q-15 -47 -28 -108t-22 -126q105 25 105 48zM375 1344q39 0 118.5 -4.5t118.5 -4.5q41 0 122 2t121 2q78 0 78 -75q0 -60 -65 -73l-112 -5h-155q-48 0 -144 3t-145 3 q-72 0 -72 76q0 51 46 67q24 9 89 9z" />
<glyph unicode="&#x102;" horiz-adv-x="1498" d="M970 88q0 -88 -58 -88q-84 0 -119 79q-27 62 -37 178q-11 132 -25 176q-195 -67 -241 -86q-192 -76 -208 -118q0 -30 9 -88t9 -88q0 -2 -5 -53h-155q-9 30 -9 79q0 363 102 864q125 618 315 725q118 -7 185 -294q23 -132 74 -392q119 -540 153 -799q10 -67 10 -95z M641 739q0 72 -42 227t-79 211q-58 -54 -113 -276q-49 -192 -49 -306q283 109 283 144zM965 1779q293 0 336 160q17 63 72 63q32 0 55.5 -21t21.5 -52l-2 -14q-12 -152 -176 -228q-128 -58 -307 -58q-142 0 -249 96q-110 98 -110 239q0 75 74 75q75 0 75 -75q0 -78 67 -133 q63 -52 143 -52z" />
<glyph unicode="&#x103;" horiz-adv-x="1048" d="M675 201q13 -72 16 -94t3 -42q0 -31 -18.5 -41.5t-72.5 -10.5q-82 0 -106 83q-18 121 -33 196q-105 -39 -149 -59q-66 -29 -82 -47q0 -24 1.5 -57.5t1.5 -35.5q0 -32 -1 -46t-8 -56h-144l-24 117q-8 50 -8 142q0 88 33 311q41 278 99 472q76 256 167 312q63 0 109 -94 q34 -71 66 -219l48 -245q35 -168 61 -316.5t41 -269.5zM375 624q0 18 -7.5 77.5t-17.5 106.5l-30 2q-15 -47 -28 -108t-22 -126q105 25 105 48zM484 1329q293 0 336 160q17 63 72 63q32 0 55.5 -21t21.5 -52l-2 -14q-12 -152 -176 -228q-128 -58 -307 -58q-142 0 -249 96 q-110 98 -110 239q0 75 74 75q75 0 75 -75q0 -78 67 -133q63 -52 143 -52z" />
<glyph unicode="&#x106;" horiz-adv-x="1234" d="M1018 162q0 -94 -46 -161h-680q-202 130 -202 733q0 295 88 563q121 365 352 365q316 0 316 -637q0 -149 -26 -284q-41 -7 -81 -28q-121 2 -121 237q0 35 2.5 103.5t2.5 103.5q0 163 -72 163q-35 0 -98 -58q-233 -214 -233 -519q0 -414 228 -435h528q42 -58 42 -146z M765 1637q-36 0 -63.5 28t-27.5 64q0 34 31 65q43 42 131 159q66 86 147 143q27 19 53 19q36 0 63 -28.5t27 -64.5q0 -40 -38 -70q-70 -56 -135 -145q-68 -94 -129 -145q-28 -25 -59 -25z" />
<glyph unicode="&#x107;" horiz-adv-x="1052" d="M868 183q0 -73 -23 -127q-12 -27 -34 -56h-528q-92 56 -137 207q-41 138 -41 347q0 132 30 289q39 205 111 329q91 157 222 157q102 0 168 -74q55 -62 81 -167q21 -85 21 -176q0 -114 -2 -192t-21 -166q-33 0 -60 -11q-9 -3 -21 -12q-60 0 -82 58q-17 44 -17 136 q0 36 1 70l2 68q0 60 -9 86q-12 35 -43 35q-27 0 -76 -55q-56 -63 -92 -151q-45 -109 -45 -224q0 -101 27 -155q33 -67 112 -81h405l38 -57q13 -23 13 -78zM560 1187q-36 0 -63.5 28t-27.5 64q0 34 31 65q43 42 131 159q66 86 147 143q27 19 53 19q36 0 63 -28.5t27 -64.5 q0 -40 -38 -70q-70 -56 -135 -145q-68 -94 -129 -145q-28 -25 -59 -25z" />
<glyph unicode="&#x108;" horiz-adv-x="1234" d="M1018 162q0 -94 -46 -161h-680q-202 130 -202 733q0 295 88 563q121 365 352 365q316 0 316 -637q0 -149 -26 -284q-41 -7 -81 -28q-121 2 -121 237q0 35 2.5 103.5t2.5 103.5q0 163 -72 163q-35 0 -98 -58q-233 -214 -233 -519q0 -414 228 -435h528q42 -58 42 -146z M811 2140q55 0 132 -67q24 -21 109 -112l159 -170q26 -30 26 -61q0 -36 -27.5 -63.5t-64.5 -27.5q-33 0 -63 29q-80 90 -250 260q-254 -312 -326 -312q-36 0 -63.5 28t-27.5 64q0 35 30 65q56 54 305 336q27 31 61 31z" />
<glyph unicode="&#x109;" horiz-adv-x="1052" d="M868 183q0 -73 -23 -127q-12 -27 -34 -56h-528q-92 56 -137 207q-41 138 -41 347q0 132 30 289q39 205 111 329q91 157 222 157q102 0 168 -74q55 -62 81 -167q21 -85 21 -176q0 -114 -2 -192t-21 -166q-33 0 -60 -11q-9 -3 -21 -12q-60 0 -82 58q-17 44 -17 136 q0 36 1 70l2 68q0 60 -9 86q-12 35 -43 35q-27 0 -76 -55q-56 -63 -92 -151q-45 -109 -45 -224q0 -101 27 -155q33 -67 112 -81h405l38 -57q13 -23 13 -78zM636 1590q55 0 132 -67q24 -21 109 -112l159 -170q26 -30 26 -61q0 -36 -27.5 -63.5t-64.5 -27.5q-33 0 -63 29 q-80 90 -250 260q-254 -312 -326 -312q-36 0 -63.5 28t-27.5 64q0 35 30 65q56 54 305 336q27 31 61 31z" />
<glyph unicode="&#x10a;" horiz-adv-x="1234" d="M1018 162q0 -94 -46 -161h-680q-202 130 -202 733q0 295 88 563q121 365 352 365q316 0 316 -637q0 -149 -26 -284q-41 -7 -81 -28q-121 2 -121 237q0 35 2.5 103.5t2.5 103.5q0 163 -72 163q-35 0 -98 -58q-233 -214 -233 -519q0 -414 228 -435h528q42 -58 42 -146z M1011 1728q0 -36 -34 -65.5t-71 -29.5q-32 0 -85.5 48t-53.5 79q0 37 36 66q33 28 70 28q31 0 84.5 -48.5t53.5 -77.5z" />
<glyph unicode="&#x10b;" horiz-adv-x="1052" d="M868 183q0 -73 -23 -127q-12 -27 -34 -56h-528q-92 56 -137 207q-41 138 -41 347q0 132 30 289q39 205 111 329q91 157 222 157q102 0 168 -74q55 -62 81 -167q21 -85 21 -176q0 -114 -2 -192t-21 -166q-33 0 -60 -11q-9 -3 -21 -12q-60 0 -82 58q-17 44 -17 136 q0 36 1 70l2 68q0 60 -9 86q-12 35 -43 35q-27 0 -76 -55q-56 -63 -92 -151q-45 -109 -45 -224q0 -101 27 -155q33 -67 112 -81h405l38 -57q13 -23 13 -78zM776 1278q0 -36 -34 -65.5t-71 -29.5q-32 0 -85.5 48t-53.5 79q0 37 36 66q33 28 70 28q31 0 84.5 -48.5t53.5 -77.5 z" />
<glyph unicode="&#x10c;" horiz-adv-x="1234" d="M1018 162q0 -94 -46 -161h-680q-202 130 -202 733q0 295 88 563q121 365 352 365q316 0 316 -637q0 -149 -26 -284q-41 -7 -81 -28q-121 2 -121 237q0 35 2.5 103.5t2.5 103.5q0 163 -72 163q-35 0 -98 -58q-233 -214 -233 -519q0 -414 228 -435h528q42 -58 42 -146z M850 1809l220 197q24 20 49 20q30 0 53 -23.5t23 -53.5t-26 -55q-285 -268 -328 -268q-31 0 -66 37l-50 62l-117 134q-83 103 -83 144q0 30 24 52t55 22q39 0 63 -40q33 -55 183 -228z" />
<glyph unicode="&#x10d;" horiz-adv-x="1234" d="M868 183q0 -73 -23 -127q-12 -27 -34 -56h-528q-92 56 -137 207q-41 138 -41 347q0 132 30 289q39 205 111 329q91 157 222 157q102 0 168 -74q55 -62 81 -167q21 -85 21 -176q0 -114 -2 -192t-21 -166q-33 0 -60 -11q-9 -3 -21 -12q-60 0 -82 58q-17 44 -17 136 q0 36 1 70l2 68q0 60 -9 86q-12 35 -43 35q-27 0 -76 -55q-56 -63 -92 -151q-45 -109 -45 -224q0 -101 27 -155q33 -67 112 -81h405l38 -57q13 -23 13 -78zM655 1359l220 197q24 20 49 20q30 0 53 -23.5t23 -53.5t-26 -55q-285 -268 -328 -268q-31 0 -66 37l-50 62l-117 134 q-83 103 -83 144q0 30 24 52t55 22q39 0 63 -40q33 -55 183 -228z" />
<glyph unicode="&#x10e;" horiz-adv-x="1478" d="M1203 864q0 -357 -53 -542q-91 -323 -359 -323q-107 0 -255 30q-175 34 -237 82q-14 113 -36 393l95 -23q-18 151 -36 274q-21 138 -59 268l-80 -68v346q132 189 216 259q137 114 312 114q310 0 421 -271q71 -173 71 -539zM1098 923q0 137 -96 264q-102 137 -232 137 q-123 0 -387 -239q46 -121 69 -301l31 -307q130 -64 269 -64q118 0 175 30q82 43 132 216q39 137 39 264zM786 1809l220 197q24 20 49 20q30 0 53 -23.5t23 -53.5t-26 -55q-285 -268 -328 -268q-31 0 -66 37l-50 62l-117 134q-83 103 -83 144q0 30 24 52t55 22q39 0 63 -40 q33 -55 183 -228z" />
<glyph unicode="&#x10f;" horiz-adv-x="1698" d="M927 680q0 -344 -62 -507q-52 -136 -162 -172q-55 -18 -226 -18q-125 0 -196.5 24.5t-105.5 81.5q-4 32 -7 65q-11 97 -15 148q-8 99 -8 157l65 -16q0 53 -16 140q-12 67 -31 136q-19 -9 -60 -18v349q110 166 194 227q91 66 228 66q176 0 272 -106q81 -89 110 -254 q20 -113 20 -303zM784 692q0 115 -98 209q-84 80 -149 80q-74 0 -136 -48q-77 -59 -77 -159q0 -76 21 -190q13 -73 36 -161q26 -14 83 -30t91 -16q147 0 188 55t41 260zM1547 1440q0 -97 -51 -208q-59 -129 -138 -129q-71 0 -71 73q0 28 23 63l40 57q15 24 24 53 q-87 51 -87 130q0 54 36.5 89t91.5 35q132 0 132 -163z" />
<glyph unicode="&#x112;" horiz-adv-x="1279" d="M957 288q0 -46 -35 -220q-14 -74 -83 -74q-12 0 -35 2.5t-35 2.5h-518q-37 115 -76 527q-35 368 -35 551q0 176 243 382q227 190 414 222h9q47 0 47 -62q0 39 -14 -24l-28 -145q-16 -93 -25 -105q-23 -32 -84 -55q-101 -39 -155 -76q-83 -58 -159 -149q-95 -111 -95 -187 q0 -51 55 -49q387 167 417 167q48 0 48 -72q0 -21 -5.5 -60t-5.5 -60q0 -125 -60 -183q-35 -35 -176 -85l-250 -98q0 -102 60 -127q319 25 502 25q79 0 79 -48zM626 1874q39 0 118.5 -4.5t118.5 -4.5q41 0 122 2t121 2q78 0 78 -75q0 -60 -65 -73l-112 -5h-155q-48 0 -144 3 t-145 3q-72 0 -72 76q0 51 46 67q24 9 89 9z" />
<glyph unicode="&#x113;" horiz-adv-x="1122" d="M754 308q9 -9 9 -50q0 -38 -5 -81t-11 -90q0 -57 -38 -80q-27 -16 -76 -16q-12 0 -22.5 0.5t-19.5 0.5h-410q-17 34 -39.5 203t-38.5 358t-16 281q0 109 106 234q90 105 222 190q123 79 197 89q4 1 12 1q36 0 52 -38q12 -29 12 -77q0 -16 -1.5 -30t-2.5 -27 q0 -135 -49 -166l-181 -95q-77 -56 -133 -108q-66 -62 -66 -86q0 -13 21 -13l215.5 88t100.5 37q40 0 56 -55q10 -35 10 -97v-28q0 -102 -31 -144q-26 -35 -107 -66q-175 -67 -204 -80q-3 -20 -4 -32t1 -14q79 3 161.5 5.5t121.5 2.5q73 0 113 -3.5t45 -13.5zM424 1344 q39 0 118.5 -4.5t118.5 -4.5q41 0 122 2t121 2q78 0 78 -75q0 -60 -65 -73l-112 -5h-155q-48 0 -144 3t-145 3q-72 0 -72 76q0 51 46 67q24 9 89 9z" />
<glyph unicode="&#x114;" horiz-adv-x="1279" d="M957 288q0 -46 -35 -220q-14 -74 -83 -74q-12 0 -35 2.5t-35 2.5h-518q-37 115 -76 527q-35 368 -35 551q0 176 243 382q227 190 414 222h9q47 0 47 -62q0 39 -14 -24l-28 -145q-16 -93 -25 -105q-23 -32 -84 -55q-101 -39 -155 -76q-83 -58 -159 -149q-95 -111 -95 -187 q0 -51 55 -49q387 167 417 167q48 0 48 -72q0 -21 -5.5 -60t-5.5 -60q0 -125 -60 -183q-35 -35 -176 -85l-250 -98q0 -102 60 -127q319 25 502 25q79 0 79 -48zM775 1829q293 0 336 160q17 63 72 63q32 0 55.5 -21t21.5 -52l-2 -14q-12 -152 -176 -228q-128 -58 -307 -58 q-142 0 -249 96q-110 98 -110 239q0 75 74 75q75 0 75 -75q0 -78 67 -133q63 -52 143 -52z" />
<glyph unicode="&#x115;" horiz-adv-x="1122" d="M754 308q9 -9 9 -50q0 -38 -5 -81t-11 -90q0 -57 -38 -80q-27 -16 -76 -16q-12 0 -22.5 0.5t-19.5 0.5h-410q-17 34 -39.5 203t-38.5 358t-16 281q0 109 106 234q90 105 222 190q123 79 197 89q4 1 12 1q36 0 52 -38q12 -29 12 -77q0 -16 -1.5 -30t-2.5 -27 q0 -135 -49 -166l-181 -95q-77 -56 -133 -108q-66 -62 -66 -86q0 -13 21 -13l215.5 88t100.5 37q40 0 56 -55q10 -35 10 -97v-28q0 -102 -31 -144q-26 -35 -107 -66q-175 -67 -204 -80q-3 -20 -4 -32t1 -14q79 3 161.5 5.5t121.5 2.5q73 0 113 -3.5t45 -13.5zM553 1329 q293 0 336 160q17 63 72 63q32 0 55.5 -21t21.5 -52l-2 -14q-12 -152 -176 -228q-128 -58 -307 -58q-142 0 -249 96q-110 98 -110 239q0 75 74 75q75 0 75 -75q0 -78 67 -133q63 -52 143 -52z" />
<glyph unicode="&#x116;" horiz-adv-x="1279" d="M957 288q0 -46 -35 -220q-14 -74 -83 -74q-12 0 -35 2.5t-35 2.5h-518q-37 115 -76 527q-35 368 -35 551q0 176 243 382q227 190 414 222h9q47 0 47 -62q0 39 -14 -24l-28 -145q-16 -93 -25 -105q-23 -32 -84 -55q-101 -39 -155 -76q-83 -58 -159 -149q-95 -111 -95 -187 q0 -51 55 -49q387 167 417 167q48 0 48 -72q0 -21 -5.5 -60t-5.5 -60q0 -125 -60 -183q-35 -35 -176 -85l-250 -98q0 -102 60 -127q319 25 502 25q79 0 79 -48zM506 1672q0 -36 -34 -65.5t-71 -29.5q-32 0 -85.5 48t-53.5 79q0 37 36 66q33 28 70 28q31 0 84.5 -48.5 t53.5 -77.5z" />
<glyph unicode="&#x117;" horiz-adv-x="1122" d="M754 308q9 -9 9 -50q0 -38 -5 -81t-11 -90q0 -57 -38 -80q-27 -16 -76 -16q-12 0 -22.5 0.5t-19.5 0.5h-410q-17 34 -39.5 203t-38.5 358t-16 281q0 109 106 234q90 105 222 190q123 79 197 89q4 1 12 1q36 0 52 -38q12 -29 12 -77q0 -16 -1.5 -30t-2.5 -27 q0 -135 -49 -166l-181 -95q-77 -56 -133 -108q-66 -62 -66 -86q0 -13 21 -13l215.5 88t100.5 37q40 0 56 -55q10 -35 10 -97v-28q0 -102 -31 -144q-26 -35 -107 -66q-175 -67 -204 -80q-3 -20 -4 -32t1 -14q79 3 161.5 5.5t121.5 2.5q73 0 113 -3.5t45 -13.5zM711 1278 q0 -36 -34 -65.5t-71 -29.5q-32 0 -85.5 48t-53.5 79q0 37 36 66q33 28 70 28q31 0 84.5 -48.5t53.5 -77.5z" />
<glyph unicode="&#x11a;" horiz-adv-x="1279" d="M957 288q0 -46 -35 -220q-14 -74 -83 -74q-12 0 -35 2.5t-35 2.5h-518q-37 115 -76 527q-35 368 -35 551q0 176 243 382q227 190 414 222h9q47 0 47 -62q0 39 -14 -24l-28 -145q-16 -93 -25 -105q-23 -32 -84 -55q-101 -39 -155 -76q-83 -58 -159 -149q-95 -111 -95 -187 q0 -51 55 -49q387 167 417 167q48 0 48 -72q0 -21 -5.5 -60t-5.5 -60q0 -125 -60 -183q-35 -35 -176 -85l-250 -98q0 -102 60 -127q319 25 502 25q79 0 79 -48zM812 1839l220 197q24 20 49 20q30 0 53 -23.5t23 -53.5t-26 -55q-285 -268 -328 -268q-31 0 -66 37l-50 62 l-117 134q-83 103 -83 144q0 30 24 52t55 22q39 0 63 -40q33 -55 183 -228z" />
<glyph unicode="&#x11b;" horiz-adv-x="1122" d="M754 308q9 -9 9 -50q0 -38 -5 -81t-11 -90q0 -57 -38 -80q-27 -16 -76 -16q-12 0 -22.5 0.5t-19.5 0.5h-410q-17 34 -39.5 203t-38.5 358t-16 281q0 109 106 234q90 105 222 190q123 79 197 89q4 1 12 1q36 0 52 -38q12 -29 12 -77q0 -16 -1.5 -30t-2.5 -27 q0 -135 -49 -166l-181 -95q-77 -56 -133 -108q-66 -62 -66 -86q0 -13 21 -13l215.5 88t100.5 37q40 0 56 -55q10 -35 10 -97v-28q0 -102 -31 -144q-26 -35 -107 -66q-175 -67 -204 -80q-3 -20 -4 -32t1 -14q79 3 161.5 5.5t121.5 2.5q73 0 113 -3.5t45 -13.5zM640 1359 l220 197q24 20 49 20q30 0 53 -23.5t23 -53.5t-26 -55q-285 -268 -328 -268q-31 0 -66 37l-50 62l-117 134q-83 103 -83 144q0 30 24 52t55 22q39 0 63 -40q33 -55 183 -228z" />
<glyph unicode="&#x11e;" horiz-adv-x="1392" d="M997 -361q-11 487 -11 501q0 23 -14 39q-23 -5 -90 -49q-93 -60 -151 -85q-106 -47 -205 -47q-253 0 -366 278q-81 197 -81 495q0 289 95 560q127 361 361 361q162 0 229 -118q35 -62 76 -264q49 -238 49 -277q0 -42 -33 -42q-95 0 -141 88q-18 55 -60 162 q-37 88 -116 88q-131 0 -240 -255q-93 -217 -93 -372q0 -151 82.5 -240t230.5 -89q145 0 231 84v55h-275l-7 322q88 53 324 53q162 0 233 -169q56 -132 63 -356q2 -107 -9 -637q-20 -90 -82 -86zM783 1779q293 0 336 160q17 63 72 63q32 0 55.5 -21t21.5 -52l-2 -14 q-12 -152 -176 -228q-128 -58 -307 -58q-142 0 -249 96q-110 98 -110 239q0 75 74 75q75 0 75 -75q0 -78 67 -133q63 -52 143 -52z" />
<glyph unicode="&#x11f;" horiz-adv-x="1087" d="M884 164q0 -168 -2 -249t-4.5 -139t-3.5 -58q-30 -32 -57.5 -45.5t-65.5 -13.5q-10 41 -13 163t-4.5 240.5t-7.5 148.5q-24 -88 -96 -157q-87 -83 -199 -83q-141 0 -232 106q-76 89 -112 246q-29 126 -29 276q0 83 25 222q38 213 109 343q97 179 244 179q97 0 154 -47 q48 -40 76 -119q16 -47 40 -161q6 -32 9 -73t3 -81q0 -59 -6.5 -97t-20.5 -42q91 -31 140 -154q37 -92 48 -231q5 -63 5 -174zM620 734q-38 20 -62 85l-38 106q-27 53 -78 53q-64 0 -115 -94q-40 -73 -67 -191q-22 -96 -22 -145q0 -86 39 -142q48 -70 147 -70q38 0 83 25 q52 29 52 61l-210 19l-5 228q38 31 105.5 48t170.5 17zM562 1329q293 0 336 160q17 63 72 63q32 0 55.5 -21t21.5 -52l-2 -14q-12 -152 -176 -228q-128 -58 -307 -58q-142 0 -249 96q-110 98 -110 239q0 75 74 75q75 0 75 -75q0 -78 67 -133q63 -52 143 -52z" />
<glyph unicode="&#x130;" horiz-adv-x="1119" d="M380 287q10 -73 10 -135q0 -57 -11 -89.5t-37 -32.5q-33 -30 -76 -30q-40 0 -78 30q0 127 -28.5 318.5l-56.5 397t-28 399.5q0 196 8 339q2 49 9 111q17 9 28 13q37 14 68 14q23 0 42.5 -5.5t38.5 -21.5q0 -178 28 -508q18 -217 54 -545q28 -255 29 -255zM626 1728 q0 -36 -34 -65.5t-71 -29.5q-32 0 -85.5 48t-53.5 79q0 37 36 66q33 28 70 28q31 0 84.5 -48.5t53.5 -77.5z" />
<glyph unicode="&#x131;" horiz-adv-x="574" d="M375 454q0 -60 3.5 -179.5t3.5 -179.5q0 -44 -27 -72t-71 -28q-43 0 -70.5 28t-27.5 72q0 60 -3.5 179.5t-3.5 179.5q0 94 10 234.5t10 234.5q0 45 27.5 73t70.5 28t70.5 -28t27.5 -73q0 -94 -10 -234.5t-10 -234.5z" />
<glyph unicode="&#x132;" horiz-adv-x="2307" d="M380 287q10 -73 10 -135q0 -57 -11 -89.5t-37 -32.5q-33 -30 -76 -30q-40 0 -78 30q0 127 -28.5 318.5l-56.5 397t-28 399.5q0 196 8 339q2 49 9 111q17 9 28 13q37 14 68 14q23 0 42.5 -5.5t38.5 -21.5q0 -178 28 -508q18 -217 54 -545q28 -255 29 -255zM1802 1361 q-83 -8 -167 -46q-67 -30 -151 -90q-56 -39 -139 -109q-124 -106 -175 -220q-22 -48 -39 -150q-10 -56 -43 -56q-75 0 -103 53q-6 12 -27 102q-3 17 -4 43t-1 29q0 187 167 383q131 153 328 277q169 106 230 106q43 0 70 -11q18 -8 53 -35q16 -16 23.5 -44t7.5 -62 q0 -50 -15 -115q-5 -21 -15 -55zM1709 245v-31q0 -93 -20 -146q-33 -88 -121 -88q-20 0 -93 25q-109 37 -179 94q-99 80 -109 192q0 17 -1.5 41.5t-2.5 53.5q0 37 7 57.5t30 33.5q15 7 71 -31.5l111 -76.5q68 -44 98 -44q20 0 28 14q2 4 2 11q-20 132 -35 257t-15 223v327 l58 41q26 17 48 17q24 0 62 -19v-57q-3 -208 -3 -225q0 -121 16 -289q11 -116 31 -264q16 -116 17 -116z" />
<glyph unicode="&#x133;" horiz-adv-x="1086" d="M444 254q3 -35 3.5 -45.5t0.5 -34.5q0 -60 -9 -98t-31 -46q-29 -26 -61 -26q-37 0 -77 34q0 106 -22.5 253l-45.5 307.5t-23 306.5q0 150 5 273q1 41 5 93q15 9 25 13q31 13 61 13q21 0 40.5 -6.5t37.5 -22.5q0 -140 23 -397q16 -176 44 -421q23 -196 24 -196zM1052 1052 q-76 -8 -147 -41q-85 -40 -199 -142q-140 -123 -172 -281q-11 -55 -37 -55q-69 0 -95 47q-9 17 -25 92q-4 27 -4 58q0 152 130 309q102 123 257 223q132 85 180 85q39 0 62 -10q15 -6 46 -30q15 -16 21.5 -41.5t6.5 -59.5q0 -45 -12 -104q-4 -19 -12 -50zM986 212 q0 -86 -13 -131q-28 -98 -114 -98q-18 0 -76 21q-85 30 -144 81q-81 69 -87.5 134t-6.5 94q0 37 9 61.5t32 39.5q13 6 92 -58q84 -68 112 -68q13 0 19 11l-26 184.5t-14 181.5v214l44 33q34 24 59 24q24 0 69 -24v-32q-3 -122 -3 -151q0 -93 12 -222q9 -99 22 -197t14 -98z " />
<glyph unicode="&#x134;" horiz-adv-x="1362" d="M943 1361q-83 -8 -167 -46q-67 -30 -151 -90q-56 -39 -139 -109q-124 -106 -175 -220q-22 -48 -39 -150q-10 -56 -43 -56q-75 0 -103 53q-6 12 -27 102q-3 17 -4 43t-1 29q0 187 167 383q131 153 328 277q169 106 230 106q43 0 70 -11q18 -8 53 -35q16 -16 23.5 -44 t7.5 -62q0 -50 -15 -115q-5 -21 -15 -55zM850 245v-31q0 -93 -20 -146q-33 -88 -121 -88q-20 0 -93 25q-109 37 -179 94q-99 80 -109 192q0 17 -1.5 41.5t-2.5 53.5q0 37 7 57.5t30 33.5q15 7 71 -31.5l111 -76.5q68 -44 98 -44q20 0 28 14q2 4 2 11q-20 132 -35 257 t-15 223v327l58 41q26 17 48 17q24 0 62 -19v-57q-3 -208 -3 -225q0 -121 16 -289q11 -116 31 -264q16 -116 17 -116zM781 2140q55 0 132 -67q24 -21 109 -112l159 -170q26 -30 26 -61q0 -36 -27.5 -63.5t-64.5 -27.5q-33 0 -63 29q-80 90 -250 260q-254 -312 -326 -312 q-36 0 -63.5 28t-27.5 64q0 35 30 65q56 54 305 336q27 31 61 31z" />
<glyph unicode="&#x135;" horiz-adv-x="826" d="M766 1280q0 -36 -27.5 -63.5t-64.5 -27.5q-33 0 -63 29q-80 90 -250 260q-254 -312 -326 -312q-36 0 -63.5 28t-27.5 64q0 35 30 65q56 54 305 336q27 31 61 31q55 0 132 -67q24 -21 109 -112l159 -170q26 -30 26 -61zM656 -222q0 -139 -83 -252q-90 -123 -219 -123 q-215 0 -360 331q-12 27 -12 48q0 40 31.5 69t71.5 29q59 0 123 -130q16 -34 56 -98q39 -50 90 -50q44 0 75 66q24 50 29 99l1 1q1 117 -34 599q-34 463 -34 551q0 50 28.5 89t72.5 39q34 0 68 -25t36 -51q12 -197 33 -576q27 -492 27 -616z" />
<glyph unicode="&#x136;" horiz-adv-x="1251" d="M1085 -30q-66 8 -158 37.5l-184 60.5q-128 41 -222 63q9 -28 13 -43q14 -49 14 -67q0 -13 -6 -13h-177q-46 191 -85 610q-25 270 -49 685q-9 162 -17 325h70h81q28 -64 41 -268l16.5 -339.5t29.5 -177.5l149 258q101 179 153 295q70 156 70 232q0 17 13.5 24t38.5 7 q36 0 92 -15q19 -5 50 -16q0 -225 -120 -518t-312 -532q-1 -3 -1 -10q0 -44 125 -98q50 -21 237 -85q132 -45 138 -62v-353zM1088 -196q0 -124 -60.5 -186.5t-181.5 -62.5q-85 0 -161 32q-96 42 -96 115q0 54 68 54q36 0 81.5 -24.5t96.5 -24.5q49 1 73 24t24 68 q0 60 -70 110q-56 40 -125 57q-65 15 -65 73q0 76 72 76q120 0 230 -95q114 -98 114 -216z" />
<glyph unicode="&#x137;" horiz-adv-x="1106" d="M861 -24q-74 10 -196 51q-167 56 -224 71q1 -10 1.5 -21.5t0.5 -22.5q0 -22 -2.5 -34t-8.5 -12h-89t-61 -3q-36 153 -67 498q-22 244 -39 550q-7 130 -13 261q17 1 46.5 2t41.5 1q38 0 65 -3q21 -51 29 -182q3 -42 6.5 -204t11.5 -202l108 193q65 120 103 209 q47 110 47 164q0 19 18.5 26.5t48.5 7.5q33 0 81 -9q15 -3 41 -9q0 -192 -88 -421.5t-238 -422.5q0 -37 115 -82l260 -100zM992 -196q0 -124 -60.5 -186.5t-181.5 -62.5q-85 0 -161 32q-96 42 -96 115q0 54 68 54q36 0 81.5 -24.5t96.5 -24.5q49 1 73 24t24 68q0 60 -70 110 q-56 40 -125 57q-65 15 -65 73q0 76 72 76q120 0 230 -95q114 -98 114 -216z" />
<glyph unicode="&#x138;" horiz-adv-x="1106" d="M1038 57q0 -40 -32 -69t-72 -29q-52 0 -85 58q-55 99 -162 243q-138 186 -172 237q-58 -46 -180 -129q-11 -155 -11 -302q0 -44 -27.5 -72.5t-70.5 -28.5q-101 0 -101 136q0 83 11.5 248.5t11.5 248.5v465q0 44 27 72.5t71 28.5t71 -28.5t27 -72.5t-1 -133.5t-1 -134.5 q0 -51 2 -179q112 86 248 220l234 235q35 34 71 34q40 0 71 -31t31 -72q0 -72 -332 -376l213 -289q158 -218 158 -280z" />
<glyph unicode="&#x139;" horiz-adv-x="1128" d="M1094 20q-125 -13 -204 -18t-176 -5q-165 0 -432 23q-9 35 -43 128q-26 71 -46 170q-30 145 -60 389q-4 25 -12 145t-14 267t-6 264q0 98 4.5 161.5t14.5 92.5q47 0 76.5 -4.5t49.5 -24.5q19 -96 26 -263.5l14 -342.5q14 -266 47 -538q84 -8 160 -12.5t124 -4.5 q34 0 223 11q103 6 200 6q11 -52 32 -235q13 -119 22 -209zM498 1637q-36 0 -63.5 28t-27.5 64q0 34 31 65q43 42 131 159q66 86 147 143q27 19 53 19q36 0 63 -28.5t27 -64.5q0 -40 -38 -70q-70 -56 -135 -145q-68 -94 -129 -145q-28 -25 -59 -25z" />
<glyph unicode="&#x13a;" horiz-adv-x="561" d="M974 18q-84 -8 -120 -11q-97 -8 -190 -8q-128 0 -349 19q-8 30 -36 111q-21 60 -36 137q-22 110 -45 303q-1 9 -7.5 113.5t-11.5 226t-5 208.5q0 83 3.5 135t11.5 78q50 0 81 -6t54 -29q15 -78 20.5 -212l11.5 -272q11 -201 35 -407q58 -7 109 -10t86 -3q25 0 177 10 q91 6 163 6q10 -50 28 -207zM407 1687q-36 0 -63.5 28t-27.5 64q0 34 31 65q43 42 131 159q66 86 147 143q27 19 53 19q36 0 63 -28.5t27 -64.5q0 -40 -38 -70q-70 -56 -135 -145q-68 -94 -129 -145q-28 -25 -59 -25z" />
<glyph unicode="&#x13b;" horiz-adv-x="1128" d="M1089 135q0 -64 -64 -94q-94 -44 -286 -82q56 -76 56 -155q0 -249 -242 -249q-85 0 -161 32q-96 42 -96 115q0 54 68 54q36 0 81.5 -24.5t96.5 -24.5q97 1 97 92q0 72 -97 127q-145 -19 -236 -19q-101 0 -145 31q-60 42 -60 154q0 -8 20 331q26 458 26 1016q0 43 28.5 73 t70.5 30q43 0 71.5 -30t28.5 -73q0 -565 -27 -1028q-1 -28 -13 -152q-8 -83 -6 -147q261 -3 660 123q17 5 32 5q43 0 72 -34q25 -31 25 -71z" />
<glyph unicode="&#x13c;" horiz-adv-x="561" d="M675 -196q0 -249 -242 -249q-85 0 -161 32q-96 42 -96 115q0 54 68 54q36 0 81.5 -24.5t96.5 -24.5q97 1 97 92q0 60 -70 110q-55 39 -125 57l-5 1q-20 -10 -47 -10q-98 0 -98 102q0 121 11 363.5t11 363.5q0 158 5 361.5t5 361.5q0 100 98 100q99 0 99 -100 q0 -158 -5 -361.5t-5 -361.5q0 -125 -15 -497q-1 -60 -4 -178q114 -18 205 -107q96 -93 96 -200z" />
<glyph unicode="&#x13d;" horiz-adv-x="1128" d="M1094 20q-125 -13 -204 -18t-176 -5q-165 0 -432 23q-9 35 -43 128q-26 71 -46 170q-30 145 -60 389q-4 25 -12 145t-14 267t-6 264q0 98 4.5 161.5t14.5 92.5q47 0 76.5 -4.5t49.5 -24.5q19 -96 26 -263.5l14 -342.5q14 -266 47 -538q84 -8 160 -12.5t124 -4.5 q34 0 223 11q103 6 200 6q11 -52 32 -235q13 -119 22 -209zM917 1370q0 -97 -51 -208q-59 -129 -138 -129q-71 0 -71 73q0 28 23 63l40 57q15 24 24 53q-87 51 -87 130q0 54 36.5 89t91.5 35q132 0 132 -163z" />
<glyph unicode="&#x13e;" horiz-adv-x="951" d="M974 18q-84 -8 -120 -11q-97 -8 -190 -8q-128 0 -349 19q-8 30 -36 111q-21 60 -36 137q-22 110 -45 303q-1 9 -7.5 113.5t-11.5 226t-5 208.5q0 83 3.5 135t11.5 78q50 0 81 -6t54 -29q15 -78 20.5 -212l11.5 -272q11 -201 35 -407q58 -7 109 -10t86 -3q25 0 177 10 q91 6 163 6q10 -50 28 -207zM896 1440q0 -97 -51 -208q-59 -129 -138 -129q-71 0 -71 73q0 28 23 63l40 57q15 24 24 53q-87 51 -87 130q0 54 36.5 89t91.5 35q132 0 132 -163z" />
<glyph unicode="&#x13f;" horiz-adv-x="1128" d="M1094 20q-125 -13 -204 -18t-176 -5q-165 0 -432 23q-9 35 -43 128q-26 71 -46 170q-30 145 -60 389q-4 25 -12 145t-14 267t-6 264q0 98 4.5 161.5t14.5 92.5q47 0 76.5 -4.5t49.5 -24.5q19 -96 26 -263.5l14 -342.5q14 -266 47 -538q84 -8 160 -12.5t124 -4.5 q34 0 223 11q103 6 200 6q11 -52 32 -235q13 -119 22 -209zM945 716q0 -51 -36.5 -87.5t-87.5 -36.5q-52 0 -88 36.5t-36 87.5t36 87.5t88 36.5q51 0 87.5 -36.5t36.5 -87.5z" />
<glyph unicode="&#x140;" horiz-adv-x="809" d="M974 18q-84 -8 -120 -11q-97 -8 -190 -8q-128 0 -349 19q-8 30 -36 111q-21 60 -36 137q-22 110 -45 303q-1 9 -7.5 113.5t-11.5 226t-5 208.5q0 83 3.5 135t11.5 78q50 0 81 -6t54 -29q15 -78 20.5 -212l11.5 -272q11 -201 35 -407q58 -7 109 -10t86 -3q25 0 177 10 q91 6 163 6q10 -50 28 -207zM914 716q0 -51 -36.5 -87.5t-87.5 -36.5q-52 0 -88 36.5t-36 87.5t36 87.5t88 36.5q51 0 87.5 -36.5t36.5 -87.5z" />
<glyph unicode="&#x143;" horiz-adv-x="1632" d="M1227 207q0 -16 1 -42t1 -37q0 -33 -4.5 -64.5t-18.5 -84.5h-117q-42 57 -195 229q-178 200 -321 346q-187 191 -273 249q0 -156 12 -309q6 -79 22 -216q12 -104 12 -142t-7 -62q-6 -14 -21 -20.5t-36 -6.5q-44 0 -88 22q-15 48 -27 120q-20 120 -30 297q-14 237 -14 569 q0 69 9.5 224.5t22.5 256.5q15 6 32.5 9t30.5 3q21 0 43.5 -6t44.5 -22q9 -14 12.5 -31.5t3.5 -39.5q0 -9 -1 -29t-1 -31v-16.5t4 -22.5l575 -613q-18 138 -21 166q-12 105 -17.5 183.5t-5.5 182.5q0 61 13 194q18 179 43 247q14 0 42 6t43 6q21 0 37.5 -8.5t30.5 -33.5 q0 -9 -11 -187q-6 -97 -6 -171q0 -72 4 -152t14 -178q23 -207 65 -366l65 -217t32 -202zM757 1637q-36 0 -63.5 28t-27.5 64q0 34 31 65q43 42 131 159q66 86 147 143q27 19 53 19q36 0 63 -28.5t27 -64.5q0 -40 -38 -70q-70 -56 -135 -145q-68 -94 -129 -145 q-28 -25 -59 -25z" />
<glyph unicode="&#x144;" horiz-adv-x="1072" d="M1008 183v-28.5t1 -26.5q0 -33 -3.5 -60t-17.5 -85h-120q-31 43 -135 164l-223 249q-131 139 -206 203q0 -124 10.5 -243l21.5 -238q0 -30 -5 -46q-7 -16 -25.5 -24t-43.5 -8q-41 0 -78 20q-15 45 -24 100q-15 85 -24 236q-12 193 -12 446q0 43 8.5 175.5t18.5 214.5 q16 6 35.5 9t31.5 3q26 0 47 -8t36 -18q13 -22 15.5 -73t4.5 -63l94 -102l144 -158l143 -160q-13 127 -18 206.5t-5 138.5q0 48 11 155q15 147 37 209q16 0 33 2q43 5 51 5q24 0 40.5 -9t31.5 -35q0 -22 -6 -114t-6 -170q0 -64 2.5 -122t9.5 -133q18 -157 51 -285l51 -171 q23 -81 23 -156zM536 1187q-36 0 -63.5 28t-27.5 64q0 34 31 65q43 42 131 159q66 86 147 143q27 19 53 19q36 0 63 -28.5t27 -64.5q0 -40 -38 -70q-70 -56 -135 -145q-68 -94 -129 -145q-28 -25 -59 -25z" />
<glyph unicode="&#x145;" horiz-adv-x="1632" d="M1227 207q0 -16 1 -42t1 -37q0 -33 -4.5 -64.5t-18.5 -84.5h-117q-42 57 -195 229q-178 200 -321 346q-187 191 -273 249q0 -156 12 -309q6 -79 22 -216q12 -104 12 -142t-7 -62q-6 -14 -21 -20.5t-36 -6.5q-44 0 -88 22q-15 48 -27 120q-20 120 -30 297q-14 237 -14 569 q0 69 9.5 224.5t22.5 256.5q15 6 32.5 9t30.5 3q21 0 43.5 -6t44.5 -22q9 -14 12.5 -31.5t3.5 -39.5q0 -9 -1 -29t-1 -31v-16.5t4 -22.5l575 -613q-18 138 -21 166q-12 105 -17.5 183.5t-5.5 182.5q0 61 13 194q18 179 43 247q14 0 42 6t43 6q21 0 37.5 -8.5t30.5 -33.5 q0 -9 -11 -187q-6 -97 -6 -171q0 -72 4 -152t14 -178q23 -207 65 -366l65 -217t32 -202zM1068 -196q0 -124 -60.5 -186.5t-181.5 -62.5q-85 0 -161 32q-96 42 -96 115q0 54 68 54q36 0 81.5 -24.5t96.5 -24.5q49 1 73 24t24 68q0 60 -70 110q-56 40 -125 57q-65 15 -65 73 q0 76 72 76q120 0 230 -95q114 -98 114 -216z" />
<glyph unicode="&#x146;" horiz-adv-x="1072" d="M1008 183v-28.5t1 -26.5q0 -33 -3.5 -60t-17.5 -85h-120q-31 43 -135 164l-223 249q-131 139 -206 203q0 -124 10.5 -243l21.5 -238q0 -30 -5 -46q-7 -16 -25.5 -24t-43.5 -8q-41 0 -78 20q-15 45 -24 100q-15 85 -24 236q-12 193 -12 446q0 43 8.5 175.5t18.5 214.5 q16 6 35.5 9t31.5 3q26 0 47 -8t36 -18q13 -22 15.5 -73t4.5 -63l94 -102l144 -158l143 -160q-13 127 -18 206.5t-5 138.5q0 48 11 155q15 147 37 209q16 0 33 2q43 5 51 5q24 0 40.5 -9t31.5 -35q0 -22 -6 -114t-6 -170q0 -64 2.5 -122t9.5 -133q18 -157 51 -285l51 -171 q23 -81 23 -156zM867 -196q0 -124 -60.5 -186.5t-181.5 -62.5q-85 0 -161 32q-96 42 -96 115q0 54 68 54q36 0 81.5 -24.5t96.5 -24.5q49 1 73 24t24 68q0 60 -70 110q-56 40 -125 57q-65 15 -65 73q0 76 72 76q120 0 230 -95q114 -98 114 -216z" />
<glyph unicode="&#x147;" horiz-adv-x="1632" d="M1227 207q0 -16 1 -42t1 -37q0 -33 -4.5 -64.5t-18.5 -84.5h-117q-42 57 -195 229q-178 200 -321 346q-187 191 -273 249q0 -156 12 -309q6 -79 22 -216q12 -104 12 -142t-7 -62q-6 -14 -21 -20.5t-36 -6.5q-44 0 -88 22q-15 48 -27 120q-20 120 -30 297q-14 237 -14 569 q0 69 9.5 224.5t22.5 256.5q15 6 32.5 9t30.5 3q21 0 43.5 -6t44.5 -22q9 -14 12.5 -31.5t3.5 -39.5q0 -9 -1 -29t-1 -31v-16.5t4 -22.5l575 -613q-18 138 -21 166q-12 105 -17.5 183.5t-5.5 182.5q0 61 13 194q18 179 43 247q14 0 42 6t43 6q21 0 37.5 -8.5t30.5 -33.5 q0 -9 -11 -187q-6 -97 -6 -171q0 -72 4 -152t14 -178q23 -207 65 -366l65 -217t32 -202zM872 1809l220 197q24 20 49 20q30 0 53 -23.5t23 -53.5t-26 -55q-285 -268 -328 -268q-31 0 -66 37l-50 62l-117 134q-83 103 -83 144q0 30 24 52t55 22q39 0 63 -40q33 -55 183 -228z " />
<glyph unicode="&#x148;" horiz-adv-x="1072" d="M1008 183v-28.5t1 -26.5q0 -33 -3.5 -60t-17.5 -85h-120q-31 43 -135 164l-223 249q-131 139 -206 203q0 -124 10.5 -243l21.5 -238q0 -30 -5 -46q-7 -16 -25.5 -24t-43.5 -8q-41 0 -78 20q-15 45 -24 100q-15 85 -24 236q-12 193 -12 446q0 43 8.5 175.5t18.5 214.5 q16 6 35.5 9t31.5 3q26 0 47 -8t36 -18q13 -22 15.5 -73t4.5 -63l94 -102l144 -158l143 -160q-13 127 -18 206.5t-5 138.5q0 48 11 155q15 147 37 209q16 0 33 2q43 5 51 5q24 0 40.5 -9t31.5 -35q0 -22 -6 -114t-6 -170q0 -64 2.5 -122t9.5 -133q18 -157 51 -285l51 -171 q23 -81 23 -156zM661 1359l220 197q24 20 49 20q30 0 53 -23.5t23 -53.5t-26 -55q-285 -268 -328 -268q-31 0 -66 37l-50 62l-117 134q-83 103 -83 144q0 30 24 52t55 22q39 0 63 -40q33 -55 183 -228z" />
<glyph unicode="&#x149;" horiz-adv-x="1272" d="M492 1380q0 -16 -0.5 -30t-5.5 -25q-4 -14 -45 -98l-284 -219l22 49.5t19 45.5q4 11 6 28l4 35q0 51 -8 85.5t-26 52.5q-34 34 -117 34l282 218q86 0 118 -35q35 -33 35 -141zM1199 183v-28.5t1 -26.5q0 -33 -3.5 -60t-17.5 -85h-120q-31 43 -135 164l-223 249 q-131 139 -206 203q0 -124 10.5 -243l21.5 -238q0 -30 -5 -46q-7 -16 -25.5 -24t-43.5 -8q-41 0 -78 20q-15 45 -24 100q-15 85 -24 236q-12 193 -12 446q0 43 8.5 175.5t18.5 214.5q16 6 35.5 9t31.5 3q26 0 47 -8t36 -18q13 -22 15.5 -73t4.5 -63l94 -102l144 -158 l143 -160q-13 127 -18 206.5t-5 138.5q0 48 11 155q15 147 37 209q16 0 33 2q43 5 51 5q24 0 40.5 -9t31.5 -35q0 -22 -6 -114t-6 -170q0 -64 2.5 -122t9.5 -133q18 -157 51 -285l51 -171q23 -81 23 -156z" />
<glyph unicode="&#x14a;" horiz-adv-x="1632" d="M1547 885q0 -111 -3 -331.5t-3 -331.5q0 -383 -60 -532q-87 -216 -350 -216q-208 0 -208 115q0 39 29.5 69.5t70.5 30.5q13 0 27 -3q44 -13 81 -13q130 0 168 112q20 58 20 221q-16 12 -32 27q-407 385 -934 1111q-1 -51 -5 -227q-3 -156 -3 -228q0 -83 3.5 -249 t3.5 -250q0 -269 -104 -269q-55 0 -87 35q-29 31 -29 74q0 42 6.5 127t6.5 127q0 62 4 185.5t4 185.5q0 66 -3 199.5t-3 199.5q0 63 -12 187.5t-12 187.5q0 46 39.5 84t89.5 38q53 0 131 -116q249 -373 448 -620q237 -293 520 -560q3 43 0 127q-3 109 -3 126q0 439 -34 699 q-4 26 -27 105q-20 68 -20 106q0 116 106 116q174 0 174 -649z" />
<glyph unicode="&#x14b;" horiz-adv-x="1072" d="M1016 -222q0 -137 -81 -250q-90 -125 -221 -125q-129 0 -205 68q-60 54 -115 186q-12 29 -12 48q0 40 31.5 69t72.5 29q55 0 105.5 -100.5t122.5 -100.5q44 0 77 69q28 58 28 107q0 114 -26 341.5t-26 341.5q0 32 3.5 95t3.5 95q0 216 -80 216q-121 0 -236 -163 q-99 -141 -122 -276q-15 -87 -15 -195q0 -30 6 -90t6 -90q0 -44 -27 -72.5t-71 -28.5t-71 28.5t-27 72.5q0 30 -6.5 90t-6.5 90q0 96 14.5 286t14.5 285q0 32 -3.5 95t-3.5 95q0 42 28.5 70t70.5 28q79 0 97 -92q3 -16 7 -155q168 224 345 224q164 0 227 -150 q44 -104 44 -308q0 -30 -1 -82t-1 -73q0 -113 26.5 -338.5t26.5 -339.5z" />
<glyph unicode="&#x14c;" horiz-adv-x="1635" d="M910 825q0 -225 -10 -334q-21 -228 -89 -356q-89 -167 -257 -167q-186 0 -294 134q-85 106 -120 297q-24 132 -24 303q0 375 85 630q62 186 161 290q66 69 95 69q91 0 193 -103q111 -112 180 -296q80 -214 80 -467zM742 738q0 124 -53.5 251.5t-98.5 127.5q-11 0 -18 -8 q-43 -88 -117 -88q-48 0 -97 37q-25 0 -56 -91.5t-31 -177.5v-22t4 -29q25 -158 89 -253q46 -69 110 -101q36 -18 58 -18q118 0 173 148q37 100 37 224zM781 1794q39 0 118.5 -4.5t118.5 -4.5q41 0 122 2t121 2q78 0 78 -75q0 -60 -65 -73l-112 -5h-155q-48 0 -144 3t-145 3 q-72 0 -72 76q0 51 46 67q24 9 89 9z" />
<glyph unicode="&#x14d;" horiz-adv-x="1077" d="M717 660q0 -160 -13 -267q-22 -182 -80 -286q-74 -133 -205 -133q-145 0 -229 107q-68 87 -95 239q-18 102 -18 246q0 301 73 503q53 147 137 229q55 54 79 54q72 0 151 -82q86 -89 139 -236q61 -169 61 -374zM542 594q0 95 -21.5 185.5t-46.5 90.5q-4 0 -9 -3 q-41 -80 -108 -80q-38 0 -78 26q-14 -11 -26 -68t-12 -115v-23q2 -9 2 -13q17 -124 63 -193q50 -74 99 -74q79 0 114 107q23 70 23 160zM385 1344q39 0 118.5 -4.5t118.5 -4.5q41 0 122 2t121 2q78 0 78 -75q0 -60 -65 -73l-112 -5h-155q-48 0 -144 3t-145 3q-72 0 -72 76 q0 51 46 67q24 9 89 9z" />
<glyph unicode="&#x14e;" horiz-adv-x="1635" d="M910 825q0 -225 -10 -334q-21 -228 -89 -356q-89 -167 -257 -167q-186 0 -294 134q-85 106 -120 297q-24 132 -24 303q0 375 85 630q62 186 161 290q66 69 95 69q91 0 193 -103q111 -112 180 -296q80 -214 80 -467zM742 738q0 124 -53.5 251.5t-98.5 127.5q-11 0 -18 -8 q-43 -88 -117 -88q-48 0 -97 37q-25 0 -56 -91.5t-31 -177.5v-22t4 -29q25 -158 89 -253q46 -69 110 -101q36 -18 58 -18q118 0 173 148q37 100 37 224zM964 1779q293 0 336 160q17 63 72 63q32 0 55.5 -21t21.5 -52l-2 -14q-12 -152 -176 -228q-128 -58 -307 -58 q-142 0 -249 96q-110 98 -110 239q0 75 74 75q75 0 75 -75q0 -78 67 -133q63 -52 143 -52z" />
<glyph unicode="&#x14f;" horiz-adv-x="1077" d="M717 660q0 -160 -13 -267q-22 -182 -80 -286q-74 -133 -205 -133q-145 0 -229 107q-68 87 -95 239q-18 102 -18 246q0 301 73 503q53 147 137 229q55 54 79 54q72 0 151 -82q86 -89 139 -236q61 -169 61 -374zM542 594q0 95 -21.5 185.5t-46.5 90.5q-4 0 -9 -3 q-41 -80 -108 -80q-38 0 -78 26q-14 -11 -26 -68t-12 -115v-23q2 -9 2 -13q17 -124 63 -193q50 -74 99 -74q79 0 114 107q23 70 23 160zM564 1329q293 0 336 160q17 63 72 63q32 0 55.5 -21t21.5 -52l-2 -14q-12 -152 -176 -228q-128 -58 -307 -58q-142 0 -249 96 q-110 98 -110 239q0 75 74 75q75 0 75 -75q0 -78 67 -133q63 -52 143 -52z" />
<glyph unicode="&#x150;" horiz-adv-x="1635" d="M910 825q0 -225 -10 -334q-21 -228 -89 -356q-89 -167 -257 -167q-186 0 -294 134q-85 106 -120 297q-24 132 -24 303q0 375 85 630q62 186 161 290q66 69 95 69q91 0 193 -103q111 -112 180 -296q80 -214 80 -467zM742 738q0 124 -53.5 251.5t-98.5 127.5q-11 0 -18 -8 q-43 -88 -117 -88q-48 0 -97 37q-25 0 -56 -91.5t-31 -177.5v-22t4 -29q25 -158 89 -253q46 -69 110 -101q36 -18 58 -18q118 0 173 148q37 100 37 224zM997 2045q30 0 53.5 -23t23.5 -53q0 -25 -20 -49q-39 -47 -125 -129q-89 -84 -126 -128q-26 -30 -58 -30 q-30 0 -53.5 22.5t-23.5 53.5q0 37 117 156l156 153q26 27 56 27zM1333 2014q30 0 52 -23.5t22 -54.5t-37 -62l-149 -142q-105 -99 -142 -99q-30 0 -52.5 24t-22.5 54q0 33 31 58l147 142q108 103 151 103z" />
<glyph unicode="&#x151;" horiz-adv-x="1077" d="M717 660q0 -160 -13 -267q-22 -182 -80 -286q-74 -133 -205 -133q-145 0 -229 107q-68 87 -95 239q-18 102 -18 246q0 301 73 503q53 147 137 229q55 54 79 54q72 0 151 -82q86 -89 139 -236q61 -169 61 -374zM542 594q0 95 -21.5 185.5t-46.5 90.5q-4 0 -9 -3 q-41 -80 -108 -80q-38 0 -78 26q-14 -11 -26 -68t-12 -115v-23q2 -9 2 -13q17 -124 63 -193q50 -74 99 -74q79 0 114 107q23 70 23 160zM601 1595q30 0 53.5 -23t23.5 -53q0 -25 -20 -49q-39 -47 -125 -129q-89 -84 -126 -128q-26 -30 -58 -30q-30 0 -53.5 22.5t-23.5 53.5 q0 37 117 156l156 153q26 27 56 27zM937 1564q30 0 52 -23.5t22 -54.5t-37 -62l-149 -142q-105 -99 -142 -99q-30 0 -52.5 24t-22.5 54q0 33 31 58l147 142q108 103 151 103z" />
<glyph unicode="&#x153;" horiz-adv-x="1837" d="M876 153q-129 -212 -362 -212q-168 0 -289 124q-135 138 -142 371q-6 226 114 398q140 203 390 203q219 0 319 -216q138 224 388 224q166 0 271 -56q129 -70 129 -212q0 -100 -113 -182q-50 -36 -212 -112l-382 -181q112 -167 334 -167q69 0 162 26q118 33 152 86.5 t73 53.5q35 0 62.5 -26.5t27.5 -61.5q0 -111 -179 -191q-153 -68 -298 -68q-310 0 -445 199zM1535 785q-86 80 -241 80q-244 0 -324 -379l307 146q181 88 258 153zM783 446q14 387 -209 388q-147 1 -228 -140q-66 -113 -66 -258t79 -226q66 -67 155 -67q104 0 179 76 q85 84 90 227z" />
<glyph unicode="&#x154;" horiz-adv-x="1287" d="M1053 -29q-59 7 -153.5 43l-186.5 72q-114 43 -191 60q5 -31 5 -36v-14q0 -88 -87 -98q-54 -2 -72 -3q-43 178 -68 390q-19 156 -25 296q-2 58 -3 117q-24 0 -40 6q-46 17 -74 71q-41 78 -41 219q0 149 84 290q75 126 196 209.5t226 83.5q153 0 234 -74q66 -61 89 -176 q14 -71 14 -203q0 -131 -52 -282q-45 -129 -120 -254q-65 -108 -135 -184q0 -36 100 -74q29 -11 189 -59q105 -31 111 -50v-350zM777 1224q0 39 -41.5 63.5t-92.5 24.5q-16 0 -23.5 -2l-11.5 -3q-80 -23 -125 -72q-6 -7 -114 -207q60 -48 82 -138q10 -42 18 -144 q5 -70 23 -77q31 54 124 196q79 121 112 188q49 100 49 171zM593 1687q-36 0 -63.5 28t-27.5 64q0 34 31 65q43 42 131 159q66 86 147 143q27 19 53 19q36 0 63 -28.5t27 -64.5q0 -40 -38 -70q-70 -56 -135 -145q-68 -94 -129 -145q-28 -25 -59 -25z" />
<glyph unicode="&#x155;" horiz-adv-x="984" d="M889 -23q-76 10 -150 14.5t-174.5 5.5t-233.5 1q-29 127 -49 271q-16 117 -22 204.5t-6 144.5q-44 9 -72 52q-43 66 -43 199q0 182 138 333q129 141 262 141q124 0 190 -61q55 -51 74 -145q12 -59 12 -168q0 -107 -32.5 -205t-97.5 -203q-54 -87 -158 -220 q0 -39 176.5 -49.5t180.5 -22.5zM635 969q0 21 -23 33.5t-51 12.5q-7 0 -12 -0.5t-14 -3.5q-72 -19 -127 -71q-46 -43 -86 -116q34 -36 46 -98q7 -74 15 -147q30 48 105 139t101 131q46 70 46 120zM549 1187q-36 0 -63.5 28t-27.5 64q0 34 31 65q43 42 131 159 q66 86 147 143q27 19 53 19q36 0 63 -28.5t27 -64.5q0 -40 -38 -70q-70 -56 -135 -145q-68 -94 -129 -145q-28 -25 -59 -25z" />
<glyph unicode="&#x156;" horiz-adv-x="1287" d="M1053 -29q-59 7 -153.5 43l-186.5 72q-114 43 -191 60q5 -31 5 -36v-14q0 -88 -87 -98q-54 -2 -72 -3q-43 178 -68 390q-19 156 -25 296q-2 58 -3 117q-24 0 -40 6q-46 17 -74 71q-41 78 -41 219q0 149 84 290q75 126 196 209.5t226 83.5q153 0 234 -74q66 -61 89 -176 q14 -71 14 -203q0 -131 -52 -282q-45 -129 -120 -254q-65 -108 -135 -184q0 -36 100 -74q29 -11 189 -59q105 -31 111 -50v-350zM777 1224q0 39 -41.5 63.5t-92.5 24.5q-16 0 -23.5 -2l-11.5 -3q-80 -23 -125 -72q-6 -7 -114 -207q60 -48 82 -138q10 -42 18 -144 q5 -70 23 -77q31 54 124 196q79 121 112 188q49 100 49 171zM934 -196q0 -124 -60.5 -186.5t-181.5 -62.5q-85 0 -161 32q-96 42 -96 115q0 54 68 54q36 0 81.5 -24.5t96.5 -24.5q49 1 73 24t24 68q0 60 -70 110q-56 40 -125 57q-65 15 -65 73q0 76 72 76q120 0 230 -95 q114 -98 114 -216z" />
<glyph unicode="&#x157;" horiz-adv-x="984" d="M918 809q0 -52 -1 -70q-7 -125 -100 -125q-86 0 -86 99q0 19 -3 70l-3 84q-158 -19 -253 -89q-89 -65 -148 -196v-490q96 -37 163 -115q71 -84 71 -173q0 -249 -242 -249q-85 0 -161 32q-96 42 -96 115q0 54 68 54q36 0 81.5 -24.5t96.5 -24.5q97 1 97 92q0 85 -130 144 q-20 -10 -45 -10q-88 0 -88 101v702q0 33 2.5 99t2.5 99q0 101 88 101q62 0 81 -57q11 -31 11 -109q192 185 433 185q161 0 161 -245z" />
<glyph unicode="&#x158;" horiz-adv-x="1287" d="M1053 -29q-59 7 -153.5 43l-186.5 72q-114 43 -191 60q5 -31 5 -36v-14q0 -88 -87 -98q-54 -2 -72 -3q-43 178 -68 390q-19 156 -25 296q-2 58 -3 117q-24 0 -40 6q-46 17 -74 71q-41 78 -41 219q0 149 84 290q75 126 196 209.5t226 83.5q153 0 234 -74q66 -61 89 -176 q14 -71 14 -203q0 -131 -52 -282q-45 -129 -120 -254q-65 -108 -135 -184q0 -36 100 -74q29 -11 189 -59q105 -31 111 -50v-350zM777 1224q0 39 -41.5 63.5t-92.5 24.5q-16 0 -23.5 -2l-11.5 -3q-80 -23 -125 -72q-6 -7 -114 -207q60 -48 82 -138q10 -42 18 -144 q5 -70 23 -77q31 54 124 196q79 121 112 188q49 100 49 171zM658 1809l220 197q24 20 49 20q30 0 53 -23.5t23 -53.5t-26 -55q-285 -268 -328 -268q-31 0 -66 37l-50 62l-117 134q-83 103 -83 144q0 30 24 52t55 22q39 0 63 -40q33 -55 183 -228z" />
<glyph unicode="&#x159;" horiz-adv-x="984" d="M889 -23q-76 10 -150 14.5t-174.5 5.5t-233.5 1q-29 127 -49 271q-16 117 -22 204.5t-6 144.5q-44 9 -72 52q-43 66 -43 199q0 182 138 333q129 141 262 141q124 0 190 -61q55 -51 74 -145q12 -59 12 -168q0 -107 -32.5 -205t-97.5 -203q-54 -87 -158 -220 q0 -39 176.5 -49.5t180.5 -22.5zM635 969q0 21 -23 33.5t-51 12.5q-7 0 -12 -0.5t-14 -3.5q-72 -19 -127 -71q-46 -43 -86 -116q34 -36 46 -98q7 -74 15 -147q30 48 105 139t101 131q46 70 46 120zM604 1359l220 197q24 20 49 20q30 0 53 -23.5t23 -53.5t-26 -55 q-285 -268 -328 -268q-31 0 -66 37l-50 62l-117 134q-83 103 -83 144q0 30 24 52t55 22q39 0 63 -40q33 -55 183 -228z" />
<glyph unicode="&#x15a;" horiz-adv-x="1420" d="M1201 530q0 -316 -121 -436q-109 -108 -376 -108h-355q-1 10 9 110l20.5 202.5t10.5 108.5q37 34 125 60q29 8 81 19q35 0 49 -34q33 -77 110 -77q78 0 116 6q68 11 80 42q9 56 -126 109q-145 57 -344 57q-27 0 -55.5 -1t-57.5 -4q-135 28 -173 75q-61 75 -61 307 q0 229 145 408q109 134 283 224q134 69 193 69q31 0 74.5 -63.5t43.5 -112.5q-2 -42 -7 -82.5t-20 -109.5q-175 0 -316 -96q-128 -87 -140 -180q-4 -20 21 -26.5t80 -6.5q46 0 78 1t61 2q155 0 254 -24q146 -35 223 -126q95 -112 95 -313zM754 1637q-36 0 -63.5 28t-27.5 64 q0 34 31 65q43 42 131 159q66 86 147 143q27 19 53 19q36 0 63 -28.5t27 -64.5q0 -40 -38 -70q-70 -56 -135 -145q-68 -94 -129 -145q-28 -25 -59 -25z" />
<glyph unicode="&#x15b;" horiz-adv-x="997" d="M894 431q0 -257 -97 -354q-86 -86 -300 -86h-291q-2 18 7.5 127.5l20.5 226.5q36 34 110 58q25 8 69 17q25 0 43 -42t78 -42q9 0 23.5 -0.5t33.5 -1.5q28 0 45.5 4.5t22.5 18.5q7 37 -88.5 68t-233.5 31h-60q-26 -3 -38 -4q-112 23 -145 62q-53 64 -53 257q0 183 115 326 q87 109 225 180q106 55 153 55q29 0 71 -56.5t42 -100.5q-1 -12 -1 -22q-5 -57 -25 -151q-136 0 -239 -65q-93 -59 -101 -127q-3 -15 15 -20.5t59 -5.5q14 0 52 1t60 1q119 0 191 -18q106 -27 165 -98q71 -86 71 -239zM492 1187q-36 0 -63.5 28t-27.5 64q0 34 31 65 q43 42 131 159q66 86 147 143q27 19 53 19q36 0 63 -28.5t27 -64.5q0 -40 -38 -70q-70 -56 -135 -145q-68 -94 -129 -145q-28 -25 -59 -25z" />
<glyph unicode="&#x15c;" horiz-adv-x="1420" d="M1201 530q0 -316 -121 -436q-109 -108 -376 -108h-355q-1 10 9 110l20.5 202.5t10.5 108.5q37 34 125 60q29 8 81 19q35 0 49 -34q33 -77 110 -77q78 0 116 6q68 11 80 42q9 56 -126 109q-145 57 -344 57q-27 0 -55.5 -1t-57.5 -4q-135 28 -173 75q-61 75 -61 307 q0 229 145 408q109 134 283 224q134 69 193 69q31 0 74.5 -63.5t43.5 -112.5q-2 -42 -7 -82.5t-20 -109.5q-175 0 -316 -96q-128 -87 -140 -180q-4 -20 21 -26.5t80 -6.5q46 0 78 1t61 2q155 0 254 -24q146 -35 223 -126q95 -112 95 -313zM810 2140q55 0 132 -67 q24 -21 109 -112l159 -170q26 -30 26 -61q0 -36 -27.5 -63.5t-64.5 -27.5q-33 0 -63 29q-80 90 -250 260q-254 -312 -326 -312q-36 0 -63.5 28t-27.5 64q0 35 30 65q56 54 305 336q27 31 61 31z" />
<glyph unicode="&#x15d;" horiz-adv-x="997" d="M894 431q0 -257 -97 -354q-86 -86 -300 -86h-291q-2 18 7.5 127.5l20.5 226.5q36 34 110 58q25 8 69 17q25 0 43 -42t78 -42q9 0 23.5 -0.5t33.5 -1.5q28 0 45.5 4.5t22.5 18.5q7 37 -88.5 68t-233.5 31h-60q-26 -3 -38 -4q-112 23 -145 62q-53 64 -53 257q0 183 115 326 q87 109 225 180q106 55 153 55q29 0 71 -56.5t42 -100.5q-1 -12 -1 -22q-5 -57 -25 -151q-136 0 -239 -65q-93 -59 -101 -127q-3 -15 15 -20.5t59 -5.5q14 0 52 1t60 1q119 0 191 -18q106 -27 165 -98q71 -86 71 -239zM448 1690q55 0 132 -67q24 -21 109 -112l159 -170 q26 -30 26 -61q0 -36 -27.5 -63.5t-64.5 -27.5q-33 0 -63 29q-80 90 -250 260q-254 -312 -326 -312q-36 0 -63.5 28t-27.5 64q0 35 30 65q56 54 305 336q27 31 61 31z" />
<glyph unicode="&#x15e;" horiz-adv-x="1420" d="M1321 446q0 -200 -159 -335q-138 -117 -352 -154q55 -75 55 -153q0 -249 -242 -249q-85 0 -161 32q-96 42 -96 115q0 54 68 54q36 0 81.5 -24.5t96.5 -24.5q97 1 97 92t-143 150q-170 19 -287 87q-142 83 -145 213q-1 42 28.5 68.5t72.5 26.5q49 0 86 -56q51 -76 91 -103 q85 -56 247 -56q155 0 288 67q170 86 170 239q0 126 -143 199q-121 63 -299 68q-158 6 -269 69q-142 81 -142 232q0 178 202 325q193 139 399 139q97 0 219 -33q162 -43 162 -110q0 -88 -90 -88q-40 0 -140.5 21.5t-154.5 20.5q-156 -2 -265 -77q-112 -77 -112 -187 q0 -83 148 -117q55 -13 213 -24q229 -17 358 -144q118 -116 118 -283z" />
<glyph unicode="&#x15f;" horiz-adv-x="997" d="M912 871q0 -45 -27.5 -73t-70.5 -28q-55 0 -77 37q-15 26 -26 108q-75 -19 -231 -70q-161 -64 -162 -158q30 -11 59 -16q230 -41 342 -113q163 -105 163 -304q0 -246 -299 -302q52 -73 52 -148q0 -249 -242 -249q-85 0 -161 32q-96 42 -96 115q0 54 68 54 q36 0 81.5 -24.5t96.5 -24.5q97 1 97 92q0 92 -145 150q-293 45 -293 191q0 40 31.5 70t71.5 30q31 0 80 -48q24 -23 108 -38q67 -12 113 -12q84 0 148 20q93 29 93 92q0 136 -190 184q-17 4 -104 23q-133 29 -189 68q-81 56 -81 169q0 209 197 298q60 27 192 64.5t189 63.5 q41 18 89 18q43 0 70.5 -28t27.5 -73q0 -29 12.5 -85t12.5 -85z" />
<glyph unicode="&#x160;" horiz-adv-x="1420" d="M1172 530q0 -316 -121 -436q-109 -108 -376 -108h-355q-1 10 9 110l20.5 202.5t10.5 108.5q37 34 125 60q29 8 81 19q35 0 49 -34q33 -77 110 -77q78 0 116 6q68 11 80 42q9 56 -126 109q-145 57 -344 57q-27 0 -55.5 -1t-57.5 -4q-135 28 -173 75q-61 75 -61 307 q0 229 145 408q109 134 283 224q134 69 193 69q31 0 74.5 -63.5t43.5 -112.5q-2 -42 -7 -82.5t-20 -109.5q-175 0 -316 -96q-128 -87 -140 -180q-4 -20 21 -26.5t80 -6.5q46 0 78 1t61 2q155 0 254 -24q146 -35 223 -126q95 -112 95 -313zM902 1810l220 197q24 20 49 20 q30 0 53 -23.5t23 -53.5t-26 -55q-285 -268 -328 -268q-31 0 -66 37l-50 62l-117 134q-83 103 -83 144q0 30 24 52t55 22q39 0 63 -40q33 -55 183 -228z" />
<glyph unicode="&#x161;" horiz-adv-x="826" d="M896 431q0 -257 -97 -354q-86 -86 -300 -86h-291q-2 18 7.5 127.5l20.5 226.5q36 34 110 58q25 8 69 17q25 0 43 -42t78 -42q9 0 23.5 -0.5t33.5 -1.5q28 0 45.5 4.5t22.5 18.5q7 37 -88.5 68t-233.5 31h-60q-26 -3 -38 -4q-112 23 -145 62q-53 64 -53 257q0 183 115 326 q87 109 225 180q106 55 153 55q29 0 71 -56.5t42 -100.5q-1 -12 -1 -22q-5 -57 -25 -151q-136 0 -239 -65q-93 -59 -101 -127q-3 -15 15 -20.5t59 -5.5q14 0 52 1t60 1q119 0 191 -18q106 -27 165 -98q71 -86 71 -239zM502 1359l220 197q24 20 49 20q30 0 53 -23.5t23 -53.5 t-26 -55q-285 -268 -328 -268q-31 0 -66 37l-50 62l-117 134q-83 103 -83 144q0 30 24 52t55 22q39 0 63 -40q33 -55 183 -228z" />
<glyph unicode="&#x162;" horiz-adv-x="1392" d="M1031 1268q-8 1 -13 1q-51 0 -144 -38q-67 -28 -151 -72l-71 -40l58 -1078q-33 -34 -63 -45q-19 -7 -50 -7h-30q-16 -2 -32 -9l-81 1066l-78 -53q-96 -64 -147 -94q-81 -47 -87 -35l-26 482l144 80l302 159q186 93 268 119q42 14 113 20q23 1 63 3l19 -175q8 -78 13 -138 t5 -92q0 -54 -12 -54zM1088 -119q0 -124 -60.5 -186.5t-181.5 -62.5q-85 0 -161 32q-96 42 -96 115q0 54 68 54q36 0 81.5 -24.5t96.5 -24.5q49 1 73 24t24 68q0 60 -70 110q-56 40 -125 57q-65 15 -65 73q0 76 72 76q120 0 230 -95q114 -98 114 -216z" />
<glyph unicode="&#x163;" horiz-adv-x="965" d="M786 1382q15 -138 15 -249q0 -149 -22 -149q-49 6 -178 -57l-88 -46l29 -825q-33 -34 -66 -45l-110 -28l-46 817q-92 -50 -144 -75q-92 -45 -98 -33l-13 387l113 63l238 126q148 75 208 94q32 12 101 17q22 1 61 3zM836 -165q0 -124 -60.5 -186.5t-181.5 -62.5 q-85 0 -161 32q-96 42 -96 115q0 54 68 54q36 0 81.5 -24.5t96.5 -24.5q49 1 73 24t24 68q0 60 -70 110q-56 40 -125 57q-65 15 -65 73q0 76 72 76q120 0 230 -95q114 -98 114 -216z" />
<glyph unicode="&#x164;" horiz-adv-x="1392" d="M1031 1268q-8 1 -13 1q-51 0 -144 -38q-67 -28 -151 -72l-71 -40l58 -1078q-33 -34 -63 -45q-19 -7 -50 -7h-30q-16 -2 -32 -9l-81 1066l-78 -53q-96 -64 -147 -94q-81 -47 -87 -35l-26 482l144 80l302 159q186 93 268 119q42 14 113 20q23 1 63 3l19 -175q8 -78 13 -138 t5 -92q0 -54 -12 -54zM825 1859l220 197q24 20 49 20q30 0 53 -23.5t23 -53.5t-26 -55q-285 -268 -328 -268q-31 0 -66 37l-50 62l-117 134q-83 103 -83 144q0 30 24 52t55 22q39 0 63 -40q33 -55 183 -228z" />
<glyph unicode="&#x165;" horiz-adv-x="1309" d="M786 1382q15 -138 15 -249q0 -149 -22 -149q-49 6 -178 -57l-88 -46l29 -825q-33 -34 -66 -45l-110 -28l-46 817q-92 -50 -144 -75q-92 -45 -98 -33l-13 387l113 63l238 126q148 75 208 94q32 12 101 17q22 1 61 3zM1267 1230q0 -97 -51 -208q-59 -129 -138 -129 q-71 0 -71 73q0 28 23 63l40 57q15 24 24 53q-87 51 -87 130q0 54 36.5 89t91.5 35q132 0 132 -163z" />
<glyph unicode="&#x166;" horiz-adv-x="1392" d="M1389 1365q0 -43 -29 -72.5t-72 -29.5q-72 0 -219.5 11.5t-222.5 10.5h-85q3 -140 24 -414q118 -9 174 -9q43 0 71 -28t28 -71t-28 -71t-71 -28q-56 0 -159 7q10 -160 10 -283q0 -35 7 -106t7 -107q0 -183 -109 -183q-42 0 -73 29t-31 71q0 15 5.5 45t5.5 45q0 49 -7 147 t-7 148q0 91 -7 203q-34 0 -104 -8t-104 -8q-43 0 -71 29t-28 72q0 81 113 104q48 10 178 10q-12 134 -27 402l-91 -1q-221 -2 -344 32q-81 23 -81 99q0 46 29 75t74 29q53 0 160.5 -15t161.5 -15q61 0 182.5 2.5t182.5 2.5q76 0 228 -11t228 -11q43 0 72 -30t29 -73z" />
<glyph unicode="&#x167;" horiz-adv-x="965" d="M906 953q0 -99 -119 -99q-13 0 -39.5 1t-38.5 1q-23 0 -136 -15l7 -161q70 -6 140 -11q78 -19 78 -96q0 -43 -28 -71t-71 -28q-54 0 -111 6q7 -208 7 -344q0 -200 -106 -200q-40 0 -69.5 26t-29.5 65q0 38 3 114t3 114q0 103 -5 234q-20 -1 -63 -8t-65 -7q-43 0 -71 29 t-28 72q0 111 219 114l-7 150q-74 3 -222 17q-89 13 -89 99q0 42 26.5 72t69.5 30q-9 0 210 -17q0 43 -4.5 130t-4.5 130q0 42 29 69.5t71 27.5q109 0 109 -227q0 -28 -2 -72t-2 -57q126 16 184 16q74 0 107 -15q48 -23 48 -89z" />
<glyph unicode="&#x168;" horiz-adv-x="1509" d="M1123 669q0 -184 -16 -303q-24 -179 -84 -275q-75 -120 -206 -120q-141 0 -256 20q-86 15 -176 45q-100 177 -154 373q-45 165 -63 375q-13 155 -13 380q0 82 5 181q12 238 12 266h177q0 -36 -6 -118t-11.5 -170.5t-5.5 -158.5q0 -434 80 -603t292 -169q175 0 229 87 q43 69 43 279q0 251 -94 378q-69 93 -178 111l41 376q8 3 48 3h30q58 0 124 -96q78 -114 125 -310q57 -238 57 -551zM686 2004q100 0 161 -58l83 -106q47 -58 112 -58q57 0 85 37l46 88l20 59q14 29 60 29q75 0 75 -74q0 -36 -43 -121q-40 -80 -69 -110q-56 -57 -143 -57 q-131 0 -205 57q-27 21 -88 107q-42 57 -94 57q-31 0 -55.5 -11.5t-42.5 -34.5l-44 -85q-25 -45 -65 -45q-31 0 -54 20.5t-23 51.5q0 11 3 23q28 102 101 165q78 66 180 66z" />
<glyph unicode="&#x169;" horiz-adv-x="1065" d="M863 540q0 -146 -15 -246q-21 -140 -73 -221q-62 -96 -166 -96q-110 0 -197 16q-68 12 -142 39q-78 141 -120 295q-36 134 -50 295q-10 118 -10 299q0 70 3 140q9 211 9 228h180q0 -33 -12 -220q-6 -94 -6 -148q0 -323 54 -448t204 -125q119 0 154 63q26 47 26 198 q0 183 -66 273q-49 67 -139 86l34 330q24 3 54 3h26q46 0 100 -76q65 -91 104 -245q48 -189 48 -440zM407 1554q100 0 161 -58l83 -106q47 -58 112 -58q57 0 85 37l46 88l20 59q14 29 60 29q75 0 75 -74q0 -36 -43 -121q-40 -80 -69 -110q-56 -57 -143 -57q-131 0 -205 57 q-27 21 -88 107q-42 57 -94 57q-31 0 -55.5 -11.5t-42.5 -34.5l-44 -85q-25 -45 -65 -45q-31 0 -54 20.5t-23 51.5q0 11 3 23q28 102 101 165q78 66 180 66z" />
<glyph unicode="&#x16a;" horiz-adv-x="1509" d="M1123 669q0 -184 -16 -303q-24 -179 -84 -275q-75 -120 -206 -120q-141 0 -256 20q-86 15 -176 45q-100 177 -154 373q-45 165 -63 375q-13 155 -13 380q0 82 5 181q12 238 12 266h177q0 -36 -6 -118t-11.5 -170.5t-5.5 -158.5q0 -434 80 -603t292 -169q175 0 229 87 q43 69 43 279q0 251 -94 378q-69 93 -178 111l41 376q8 3 48 3h30q58 0 124 -96q78 -114 125 -310q57 -238 57 -551zM675 1794q39 0 118.5 -4.5t118.5 -4.5q41 0 122 2t121 2q78 0 78 -75q0 -60 -65 -73l-112 -5h-155q-48 0 -144 3t-145 3q-72 0 -72 76q0 51 46 67 q24 9 89 9z" />
<glyph unicode="&#x16b;" horiz-adv-x="1065" d="M882 540q0 -146 -15 -246q-21 -140 -73 -221q-62 -96 -166 -96q-110 0 -197 16q-68 12 -142 39q-78 141 -120 295q-36 134 -50 295q-10 118 -10 299q0 70 3 140q9 211 9 228h180q0 -33 -12 -220q-6 -94 -6 -148q0 -323 54 -448t204 -125q119 0 154 63q26 47 26 198 q0 183 -66 273q-49 67 -139 86l34 330q24 3 54 3h26q46 0 100 -76q65 -91 104 -245q48 -189 48 -440zM420 1344q39 0 118.5 -4.5t118.5 -4.5q41 0 122 2t121 2q78 0 78 -75q0 -60 -65 -73l-112 -5h-155q-48 0 -144 3t-145 3q-72 0 -72 76q0 51 46 67q24 9 89 9z" />
<glyph unicode="&#x16c;" horiz-adv-x="1509" d="M1123 669q0 -184 -16 -303q-24 -179 -84 -275q-75 -120 -206 -120q-141 0 -256 20q-86 15 -176 45q-100 177 -154 373q-45 165 -63 375q-13 155 -13 380q0 82 5 181q12 238 12 266h177q0 -36 -6 -118t-11.5 -170.5t-5.5 -158.5q0 -434 80 -603t292 -169q175 0 229 87 q43 69 43 279q0 251 -94 378q-69 93 -178 111l41 376q8 3 48 3h30q58 0 124 -96q78 -114 125 -310q57 -238 57 -551zM824 1779q293 0 336 160q17 63 72 63q32 0 55.5 -21t21.5 -52l-2 -14q-12 -152 -176 -228q-128 -58 -307 -58q-142 0 -249 96q-110 98 -110 239q0 75 74 75 q75 0 75 -75q0 -78 67 -133q63 -52 143 -52z" />
<glyph unicode="&#x16d;" horiz-adv-x="1065" d="M882 540q0 -146 -15 -246q-21 -140 -73 -221q-62 -96 -166 -96q-110 0 -197 16q-68 12 -142 39q-78 141 -120 295q-36 134 -50 295q-10 118 -10 299q0 70 3 140q9 211 9 228h180q0 -33 -12 -220q-6 -94 -6 -148q0 -323 54 -448t204 -125q119 0 154 63q26 47 26 198 q0 183 -66 273q-49 67 -139 86l34 330q24 3 54 3h26q46 0 100 -76q65 -91 104 -245q48 -189 48 -440zM544 1329q293 0 336 160q17 63 72 63q32 0 55.5 -21t21.5 -52l-2 -14q-12 -152 -176 -228q-128 -58 -307 -58q-142 0 -249 96q-110 98 -110 239q0 75 74 75q75 0 75 -75 q0 -78 67 -133q63 -52 143 -52z" />
<glyph unicode="&#x16e;" horiz-adv-x="1509" d="M1123 669q0 -184 -16 -303q-24 -179 -84 -275q-75 -120 -206 -120q-141 0 -256 20q-86 15 -176 45q-100 177 -154 373q-45 165 -63 375q-13 155 -13 380q0 82 5 181q12 238 12 266h177q0 -36 -6 -118t-11.5 -170.5t-5.5 -158.5q0 -434 80 -603t292 -169q175 0 229 87 q43 69 43 279q0 251 -94 378q-69 93 -178 111l41 376q8 3 48 3h30q58 0 124 -96q78 -114 125 -310q57 -238 57 -551zM1013 1694q0 -115 -17 -200q-27 -136 -96 -213q-89 -99 -243 -99q-171 0 -270 80q-80 64 -112 178q-22 78 -22 184q0 224 88 374q64 109 165 169 q66 39 94 39q83 0 176 -60q101 -65 164 -174q73 -126 73 -278zM820 1646q0 82 -33 145t-61 60q-43 -48 -90 -48q-45 0 -127 46q-23 -17 -43 -50q-31 -52 -31 -115q0 -22 2 -34q12 -93 76 -131q42 -25 102 -25q9 0 15.5 0.5t11.5 1.5q82 0 130 42t48 108z" />
<glyph unicode="&#x16f;" horiz-adv-x="1065" d="M998 540q0 -146 -15 -246q-21 -140 -73 -221q-62 -96 -166 -96q-110 0 -197 16q-68 12 -142 39q-78 141 -120 295q-36 134 -50 295q-10 118 -10 299q0 70 3 140q9 211 9 228h180q0 -33 -12 -220q-6 -94 -6 -148q0 -323 54 -448t204 -125q119 0 154 63q26 47 26 198 q0 183 -66 273q-49 67 -139 86l34 330q24 3 54 3h26q46 0 100 -76q65 -91 104 -245q48 -189 48 -440zM869 1244q0 -115 -17 -200q-27 -136 -96 -213q-89 -99 -243 -99q-171 0 -270 80q-80 64 -112 178q-22 78 -22 184q0 224 88 374q64 109 165 169q66 39 94 39q83 0 176 -60 q101 -65 164 -174q73 -126 73 -278zM676 1196q0 82 -33 145t-61 60q-43 -48 -90 -48q-45 0 -127 46q-23 -17 -43 -50q-31 -52 -31 -115q0 -22 2 -34q12 -93 76 -131q42 -25 102 -25q9 0 15.5 0.5t11.5 1.5q82 0 130 42t48 108z" />
<glyph unicode="&#x170;" horiz-adv-x="1509" d="M1123 669q0 -184 -16 -303q-24 -179 -84 -275q-75 -120 -206 -120q-141 0 -256 20q-86 15 -176 45q-100 177 -154 373q-45 165 -63 375q-13 155 -13 380q0 82 5 181q12 238 12 266h177q0 -36 -6 -118t-11.5 -170.5t-5.5 -158.5q0 -434 80 -603t292 -169q175 0 229 87 q43 69 43 279q0 251 -94 378q-69 93 -178 111l41 376q8 3 48 3h30q58 0 124 -96q78 -114 125 -310q57 -238 57 -551zM911 2045q30 0 53.5 -23t23.5 -53q0 -25 -20 -49q-39 -47 -125 -129q-89 -84 -126 -128q-26 -30 -58 -30q-30 0 -53.5 22.5t-23.5 53.5q0 37 117 156 l156 153q26 27 56 27zM1247 2014q30 0 52 -23.5t22 -54.5t-37 -62l-149 -142q-105 -99 -142 -99q-30 0 -52.5 24t-22.5 54q0 33 31 58l147 142q108 103 151 103z" />
<glyph unicode="&#x171;" horiz-adv-x="1065" d="M882 540q0 -146 -15 -246q-21 -140 -73 -221q-62 -96 -166 -96q-110 0 -197 16q-68 12 -142 39q-78 141 -120 295q-36 134 -50 295q-10 118 -10 299q0 70 3 140q9 211 9 228h180q0 -33 -12 -220q-6 -94 -6 -148q0 -323 54 -448t204 -125q119 0 154 63q26 47 26 198 q0 183 -66 273q-49 67 -139 86l34 330q24 3 54 3h26q46 0 100 -76q65 -91 104 -245q48 -189 48 -440zM671 1595q30 0 53.5 -23t23.5 -53q0 -25 -20 -49q-39 -47 -125 -129q-89 -84 -126 -128q-26 -30 -58 -30q-30 0 -53.5 22.5t-23.5 53.5q0 37 117 156l156 153q26 27 56 27 zM1007 1564q30 0 52 -23.5t22 -54.5t-37 -62l-149 -142q-105 -99 -142 -99q-30 0 -52.5 24t-22.5 54q0 33 31 58l147 142q108 103 151 103z" />
<glyph unicode="&#x172;" horiz-adv-x="1509" d="M1123 669q0 -184 -16 -303q-24 -179 -84 -275q-75 -120 -206 -120q-141 0 -256 20q-86 15 -176 45q-100 177 -154 373q-45 165 -63 375q-13 155 -13 380q0 82 5 181q12 238 12 266h177q0 -36 -6 -118t-11.5 -170.5t-5.5 -158.5q0 -434 80 -603t292 -169q175 0 229 87 q43 69 43 279q0 251 -94 378q-69 93 -178 111l41 376q8 3 48 3h30q58 0 124 -96q78 -114 125 -310q57 -238 57 -551zM809 -177q0 -36 26 -75q27 -43 62 -43q101 0 173 37q22 12 39 12q31 0 52.5 -24t21.5 -55q0 -63 -116 -96q-82 -23 -170 -23q-98 0 -169 86q-68 81 -68 181 q0 82 73 164.5t154 82.5q31 0 51.5 -23t20.5 -54q0 -44 -75 -81t-75 -89z" />
<glyph unicode="&#x173;" horiz-adv-x="1065" d="M882 540q0 -146 -15 -246q-21 -140 -73 -221q-62 -96 -166 -96q-110 0 -197 16q-68 12 -142 39q-78 141 -120 295q-36 134 -50 295q-10 118 -10 299q0 70 3 140q9 211 9 228h180q0 -33 -12 -220q-6 -94 -6 -148q0 -323 54 -448t204 -125q119 0 154 63q26 47 26 198 q0 183 -66 273q-49 67 -139 86l34 330q24 3 54 3h26q46 0 100 -76q65 -91 104 -245q48 -189 48 -440zM799 -177q0 -36 26 -75q27 -43 62 -43q101 0 173 37q22 12 39 12q31 0 52.5 -24t21.5 -55q0 -63 -116 -96q-82 -23 -170 -23q-98 0 -169 86q-68 81 -68 181q0 82 73 164.5 t154 82.5q31 0 51.5 -23t20.5 -54q0 -44 -75 -81t-75 -89z" />
<glyph unicode="&#x174;" horiz-adv-x="2129" d="M1507 779q0 -198 -35 -359q-42 -194 -127 -303q-100 -128 -251 -128q-131 0 -241 87q-48 38 -149 157q-34 -101 -76 -152q-52 -63 -123 -63q-111 0 -201 158q-77 136 -123 356q-42 201 -42 380q0 43 8 196t20 282q16 175 35 251h163q0 -407 20 -661.5t52 -377.5 q28 -108 63 -117q34 30 44 85.5t10 155.5q0 33 -0.5 69t-0.5 74q0 108 6 209t24 221q22 48 44.5 67t47.5 19q27 0 62 -26l51 -42q0 -33 -0.5 -67.5t-0.5 -70.5q0 -195 15 -315q23 -180 83 -277q75 -120 209 -120q92 0 151 70q56 66 56 159q0 117 -59 233q-45 88 -122 173 q-47 52 -102 98q0 119 25.5 253.5t68.5 223.5q106 -66 190 -180q96 -130 147 -298q58 -189 58 -420zM1165 2140q55 0 132 -67q24 -21 109 -112l159 -170q26 -30 26 -61q0 -36 -27.5 -63.5t-64.5 -27.5q-33 0 -63 29q-80 90 -250 260q-254 -312 -326 -312q-36 0 -63.5 28 t-27.5 64q0 35 30 65q56 54 305 336q27 31 61 31z" />
<glyph unicode="&#x175;" horiz-adv-x="1401" d="M1168 618q0 -157 -30 -286q-36 -153 -106 -240q-82 -101 -203 -101q-67 0 -124 26q-45 21 -94 64q-30 27 -73 75q-29 -67 -64 -102q-41 -40 -95 -40q-88 0 -162 124q-64 108 -102.5 276t-38.5 305q0 41 6 154.5t17.5 237.5t28.5 191h167q0 -450 18.5 -650.5t56.5 -229.5 q16 21 21.5 52t5.5 84q0 56 -1 96.5l-2 77.5q0 69 4.5 139.5t16.5 151.5q22 46 44.5 65t47.5 19q26 0 60 -23q37 -29 53 -40q0 -29 -1 -97t-1 -69q0 -134 12 -219q17 -119 58 -180q51 -75 141 -75q60 0 98 45.5t38 105.5q0 94 -53.5 188t-162.5 189q0 103 22 211.5t64 199.5 q147 -95 233 -263q100 -196 100 -462zM714 1690q55 0 132 -67q24 -21 109 -112l159 -170q26 -30 26 -61q0 -36 -27.5 -63.5t-64.5 -27.5q-33 0 -63 29q-80 90 -250 260q-254 -312 -326 -312q-36 0 -63.5 28t-27.5 64q0 35 30 65q56 54 305 336q27 31 61 31z" />
<glyph unicode="&#x176;" horiz-adv-x="1301" d="M1067 1638q8 -44 11 -83t3 -84q0 -186 -73 -353q-56 -127 -151 -239q-51 -60 -122 -121q0 -63 8 -213t8 -241q0 -92 -3.5 -155.5t-15.5 -153.5h-180q0 121 -10.5 329.5t-22.5 314.5q-49 -13 -91 -19.5t-83 -6.5q-180 0 -256 143q-60 112 -60 327q0 72 7 162q3 33 15 155 q23 37 65.5 56.5t90.5 19.5q21 0 36.5 -3t37.5 -10q-16 -71 -25 -128q-12 -76 -12 -130q0 -87 25 -131q30 -54 98 -54q11 0 17.5 1t23.5 4q185 41 341 229q153 184 153 353q0 31 -6 60q47 22 95 22q34 0 55 -12.5t21 -38.5zM551 2140q55 0 132 -67q24 -21 109 -112l159 -170 q26 -30 26 -61q0 -36 -27.5 -63.5t-64.5 -27.5q-33 0 -63 29q-80 90 -250 260q-254 -312 -326 -312q-36 0 -63.5 28t-27.5 64q0 35 30 65q56 54 305 336q27 31 61 31z" />
<glyph unicode="&#x177;" horiz-adv-x="1066" d="M825 1298q12 -72 12 -137q0 -141 -53 -270q-41 -100 -111 -187q-41 -51 -97 -102q0 -47 3 -116q7 -162 7 -221q0 -73 -3 -129.5t-14 -138.5h-177q0 94 -7 247t-16 245q-32 -7 -58.5 -10.5t-55.5 -3.5q-147 0 -210 121q-49 95 -49 275q0 57 4.5 116t11.5 131 q21 32 60.5 50.5t84.5 18.5q44 0 80 -14q-19 -81 -25 -116q-12 -66 -12 -111q0 -51 17 -80t57 -29q11 0 26 3q134 32 244 167t110 266q0 27 -6 53q51 26 99 26q35 0 56.5 -14.5t21.5 -39.5zM445 1690q55 0 132 -67q24 -21 109 -112l159 -170q26 -30 26 -61 q0 -36 -27.5 -63.5t-64.5 -27.5q-33 0 -63 29q-80 90 -250 260q-254 -312 -326 -312q-36 0 -63.5 28t-27.5 64q0 35 30 65q56 54 305 336q27 31 61 31z" />
<glyph unicode="&#x178;" horiz-adv-x="1301" d="M1067 1638q8 -44 11 -83t3 -84q0 -186 -73 -353q-56 -127 -151 -239q-51 -60 -122 -121q0 -63 8 -213t8 -241q0 -92 -3.5 -155.5t-15.5 -153.5h-180q0 121 -10.5 329.5t-22.5 314.5q-49 -13 -91 -19.5t-83 -6.5q-180 0 -256 143q-60 112 -60 327q0 72 7 162q3 33 15 155 q23 37 65.5 56.5t90.5 19.5q21 0 36.5 -3t37.5 -10q-16 -71 -25 -128q-12 -76 -12 -130q0 -87 25 -131q30 -54 98 -54q11 0 17.5 1t23.5 4q185 41 341 229q153 184 153 353q0 31 -6 60q47 22 95 22q34 0 55 -12.5t21 -38.5zM378 1827q131 0 131 -105q0 -30 -44 -58 q-40 -25 -75 -25q-123 0 -123 103q0 29 37.5 57t73.5 28zM917 1835q34 0 69 -31.5t35 -61.5q0 -92 -143 -92q-41 0 -73 21q-36 24 -36 63q0 69 45 89q25 12 103 12z" />
<glyph unicode="&#x179;" horiz-adv-x="1420" d="M1246 279q-9 -43 -13 -72q-14 -92 -14 -165q-111 0 -192.5 -2.5t-159 -7.5t-287.5 -23q-168 0 -206 7q-72 13 -96 72.5t-24 216.5q0 118 63 328q16 52 119 354q64 187 64 238q0 32 -19 32q-65 0 -139 -106q-80 -115 -112 -276q-13 -10 -21 -15q-26 -15 -52 -15 q-17 0 -32 6.5t-30 23.5q-14 42 -20.5 88t-6.5 96q0 75 13 152q4 26 14 64l64 113q69 111 142 176q102 92 205 92q160 0 219 -110q35 -65 35 -185q0 -192 -54 -352q-2 -6 -110 -260q-69 -163 -90 -321q17 -2 35 -2h37q57 0 146 7q203 16 251 16q129 0 192 -32 q79 -40 79 -138zM651 1687q-36 0 -63.5 28t-27.5 64q0 34 31 65q43 42 131 159q66 86 147 143q27 19 53 19q36 0 63 -28.5t27 -64.5q0 -40 -38 -70q-70 -56 -135 -145q-68 -94 -129 -145q-28 -25 -59 -25z" />
<glyph unicode="&#x17a;" horiz-adv-x="1102" d="M1064 223q-7 -35 -10 -58q-11 -75 -11 -131q-38 0 -272 -18q-117 -9 -240 -9q-180 0 -212 24q-48 36 -48 213q0 94 50 262q11 36 95 284q51 150 51 191q0 25 -15 25q-52 0 -111 -85q-64 -92 -90 -221q-15 -12 -25 -16q-18 -8 -33 -8q-13 0 -25.5 5.5t-24.5 18.5 q-10 30 -15.5 70t-5.5 77q0 61 10 122q3 21 11 51l51 90q56 88 115 142q81 73 163 73q128 0 175 -88q28 -52 28 -148q0 -153 -43 -281q-2 -7 -88 -209q-55 -130 -72 -257q50 0 128 7q189 17 233 17q109 0 164 -28q67 -34 67 -115zM581 1187q-36 0 -63.5 28t-27.5 64 q0 34 31 65q43 42 131 159q66 86 147 143q27 19 53 19q36 0 63 -28.5t27 -64.5q0 -40 -38 -70q-70 -56 -135 -145q-68 -94 -129 -145q-28 -25 -59 -25z" />
<glyph unicode="&#x17b;" horiz-adv-x="1420" d="M1246 279q-9 -43 -13 -72q-14 -92 -14 -165q-111 0 -192.5 -2.5t-159 -7.5t-287.5 -23q-168 0 -206 7q-72 13 -96 72.5t-24 216.5q0 118 63 328q16 52 119 354q64 187 64 238q0 32 -19 32q-65 0 -139 -106q-80 -115 -112 -276q-13 -10 -21 -15q-26 -15 -52 -15 q-17 0 -32 6.5t-30 23.5q-14 42 -20.5 88t-6.5 96q0 75 13 152q4 26 14 64l64 113q69 111 142 176q102 92 205 92q160 0 219 -110q35 -65 35 -185q0 -192 -54 -352q-2 -6 -110 -260q-69 -163 -90 -321q17 -2 35 -2h37q57 0 146 7q203 16 251 16q129 0 192 -32 q79 -40 79 -138zM857 1728q0 -36 -34 -65.5t-71 -29.5q-32 0 -85.5 48t-53.5 79q0 37 36 66q33 28 70 28q31 0 84.5 -48.5t53.5 -77.5z" />
<glyph unicode="&#x17c;" horiz-adv-x="1102" d="M1064 223q-7 -35 -10 -58q-11 -75 -11 -131q-38 0 -272 -18q-117 -9 -240 -9q-180 0 -212 24q-48 36 -48 213q0 94 50 262q11 36 95 284q51 150 51 191q0 25 -15 25q-52 0 -111 -85q-64 -92 -90 -221q-15 -12 -25 -16q-18 -8 -33 -8q-13 0 -25.5 5.5t-24.5 18.5 q-10 30 -15.5 70t-5.5 77q0 61 10 122q3 21 11 51l51 90q56 88 115 142q81 73 163 73q128 0 175 -88q28 -52 28 -148q0 -153 -43 -281q-2 -7 -88 -209q-55 -130 -72 -257q50 0 128 7q189 17 233 17q109 0 164 -28q67 -34 67 -115zM807 1278q0 -36 -34 -65.5t-71 -29.5 q-32 0 -85.5 48t-53.5 79q0 37 36 66q33 28 70 28q31 0 84.5 -48.5t53.5 -77.5z" />
<glyph unicode="&#x17d;" horiz-adv-x="1420" d="M1246 279q-9 -43 -13 -72q-14 -92 -14 -165q-111 0 -192.5 -2.5t-159 -7.5t-287.5 -23q-168 0 -206 7q-72 13 -96 72.5t-24 216.5q0 118 63 328q16 52 119 354q64 187 64 238q0 32 -19 32q-65 0 -139 -106q-80 -115 -112 -276q-13 -10 -21 -15q-26 -15 -52 -15 q-17 0 -32 6.5t-30 23.5q-14 42 -20.5 88t-6.5 96q0 75 13 152q4 26 14 64l64 113q69 111 142 176q102 92 205 92q160 0 219 -110q35 -65 35 -185q0 -192 -54 -352q-2 -6 -110 -260q-69 -163 -90 -321q17 -2 35 -2h37q57 0 146 7q203 16 251 16q129 0 192 -32 q79 -40 79 -138zM751 1907l220 197q24 20 49 20q30 0 53 -23.5t23 -53.5t-26 -55q-285 -268 -328 -268q-31 0 -66 37l-50 62l-117 134q-83 103 -83 144q0 30 24 52t55 22q39 0 63 -40q33 -55 183 -228z" />
<glyph unicode="&#x17e;" horiz-adv-x="1102" d="M1064 223q-7 -35 -10 -58q-11 -75 -11 -131q-38 0 -272 -18q-117 -9 -240 -9q-180 0 -212 24q-48 36 -48 213q0 94 50 262q11 36 95 284q51 150 51 191q0 25 -15 25q-52 0 -111 -85q-64 -92 -90 -221q-15 -12 -25 -16q-18 -8 -33 -8q-13 0 -25.5 5.5t-24.5 18.5 q-10 30 -15.5 70t-5.5 77q0 61 10 122q3 21 11 51l51 90q56 88 115 142q81 73 163 73q128 0 175 -88q28 -52 28 -148q0 -153 -43 -281q-2 -7 -88 -209q-55 -130 -72 -257q50 0 128 7q189 17 233 17q109 0 164 -28q67 -34 67 -115zM564 1359l220 197q24 20 49 20 q30 0 53 -23.5t23 -53.5t-26 -55q-285 -268 -328 -268q-31 0 -66 37l-50 62l-117 134q-83 103 -83 144q0 30 24 52t55 22q39 0 63 -40q33 -55 183 -228z" />
<glyph unicode="&#x192;" horiz-adv-x="874" d="M-12 -361q-39 0 -65 28.5t-26 68.5q0 70 74 90q161 42 234 140q58 79 97 258l81 415q-118 -9 -146 -9q-82 0 -82 72q0 92 104 115l176 13q93 346 176 483q149 248 414 248q122 0 122 -70q0 -120 -150 -120q-161 0 -260 -192q-55 -105 -110 -334q162 11 205 11 q136 0 136 -74q0 -119 -163 -119q-15 0 -44 1t-42 1l-141 -10l-72 -368q-41 -226 -99 -359q-46 -109 -163 -188q-103 -70 -232 -98q-12 -3 -24 -3z" />
<glyph unicode="&#x218;" horiz-adv-x="1420" d="M1201 530q0 -316 -121 -436q-109 -108 -376 -108h-355q-1 10 9 110l20.5 202.5t10.5 108.5q37 34 125 60q29 8 81 19q35 0 49 -34q33 -77 110 -77q78 0 116 6q68 11 80 42q9 56 -126 109q-145 57 -344 57q-27 0 -55.5 -1t-57.5 -4q-135 28 -173 75q-61 75 -61 307 q0 229 145 408q109 134 283 224q134 69 193 69q31 0 74.5 -63.5t43.5 -112.5q-2 -42 -7 -82.5t-20 -109.5q-175 0 -316 -96q-128 -87 -140 -180q-4 -20 21 -26.5t80 -6.5q46 0 78 1t61 2q155 0 254 -24q146 -35 223 -126q95 -112 95 -313zM936 -302q0 -97 -51 -208 q-59 -129 -138 -129q-71 0 -71 73q0 28 23 63l40 57q15 24 24 53q-87 51 -87 130q0 54 36.5 89t91.5 35q132 0 132 -163z" />
<glyph unicode="&#x219;" horiz-adv-x="997" d="M894 431q0 -257 -97 -354q-86 -86 -300 -86h-291q-2 18 7.5 127.5l20.5 226.5q36 34 110 58q25 8 69 17q25 0 43 -42t78 -42q9 0 23.5 -0.5t33.5 -1.5q28 0 45.5 4.5t22.5 18.5q7 37 -88.5 68t-233.5 31h-60q-26 -3 -38 -4q-112 23 -145 62q-53 64 -53 257q0 183 115 326 q87 109 225 180q106 55 153 55q29 0 71 -56.5t42 -100.5q-1 -12 -1 -22q-5 -57 -25 -151q-136 0 -239 -65q-93 -59 -101 -127q-3 -15 15 -20.5t59 -5.5q14 0 52 1t60 1q119 0 191 -18q106 -27 165 -98q71 -86 71 -239zM633 -302q0 -97 -51 -208q-59 -129 -138 -129 q-71 0 -71 73q0 28 23 63l40 57q15 24 24 53q-87 51 -87 130q0 54 36.5 89t91.5 35q132 0 132 -163z" />
<glyph unicode="&#x21a;" horiz-adv-x="1392" d="M1031 1268q-8 1 -13 1q-51 0 -144 -38q-67 -28 -151 -72l-71 -40l58 -1078q-33 -34 -63 -45q-19 -7 -50 -7h-30q-16 -2 -32 -9l-81 1066l-78 -53q-96 -64 -147 -94q-81 -47 -87 -35l-26 482l144 80l302 159q186 93 268 119q42 14 113 20q23 1 63 3l19 -175q8 -78 13 -138 t5 -92q0 -54 -12 -54zM923 -302q0 -97 -51 -208q-59 -129 -138 -129q-71 0 -71 73q0 28 23 63l40 57q15 24 24 53q-87 51 -87 130q0 54 36.5 89t91.5 35q132 0 132 -163z" />
<glyph unicode="&#x21b;" horiz-adv-x="965" d="M786 1382q15 -138 15 -249q0 -149 -22 -149q-49 6 -178 -57l-88 -46l29 -825q-33 -34 -66 -45l-110 -28l-46 817q-92 -50 -144 -75q-92 -45 -98 -33l-13 387l113 63l238 126q148 75 208 94q32 12 101 17q22 1 61 3zM643 -302q0 -97 -51 -208q-59 -129 -138 -129 q-71 0 -71 73q0 28 23 63l40 57q15 24 24 53q-87 51 -87 130q0 54 36.5 89t91.5 35q132 0 132 -163z" />
<glyph unicode="&#x2c6;" d="M590 1690q55 0 132 -67q24 -21 109 -112l159 -170q26 -30 26 -61q0 -36 -27.5 -63.5t-64.5 -27.5q-33 0 -63 29q-80 90 -250 260q-254 -312 -326 -312q-36 0 -63.5 28t-27.5 64q0 35 30 65q56 54 305 336q27 31 61 31z" />
<glyph unicode="&#x2c7;" d="M609 1359l220 197q24 20 49 20q30 0 53 -23.5t23 -53.5t-26 -55q-285 -268 -328 -268q-31 0 -66 37l-50 62l-117 134q-83 103 -83 144q0 30 24 52t55 22q39 0 63 -40q33 -55 183 -228z" />
<glyph unicode="&#x2c9;" d="M413 1344q39 0 118.5 -4.5t118.5 -4.5q41 0 122 2t121 2q78 0 78 -75q0 -60 -65 -73l-112 -5h-155q-48 0 -144 3t-145 3q-72 0 -72 76q0 51 46 67q24 9 89 9z" />
<glyph unicode="&#x2d8;" d="M572 1329q293 0 336 160q17 63 72 63q32 0 55.5 -21t21.5 -52l-2 -14q-12 -152 -176 -228q-128 -58 -307 -58q-142 0 -249 96q-110 98 -110 239q0 75 74 75q75 0 75 -75q0 -78 67 -133q63 -52 143 -52z" />
<glyph unicode="&#x2d9;" d="M560 1278q0 -36 -34 -65.5t-71 -29.5q-32 0 -85.5 48t-53.5 79q0 37 36 66q33 28 70 28q31 0 84.5 -48.5t53.5 -77.5z" />
<glyph unicode="&#x2da;" horiz-adv-x="837" d="M801 1244q0 -115 -17 -200q-27 -136 -96 -213q-89 -99 -243 -99q-171 0 -270 80q-80 64 -112 178q-22 78 -22 184q0 224 88 374q64 109 165 169q66 39 94 39q83 0 176 -60q101 -65 164 -174q73 -126 73 -278zM608 1196q0 82 -33 145t-61 60q-43 -48 -90 -48 q-45 0 -127 46q-23 -17 -43 -50q-31 -52 -31 -115q0 -22 2 -34q12 -93 76 -131q42 -25 102 -25q9 0 15.5 0.5t11.5 1.5q82 0 130 42t48 108z" />
<glyph unicode="&#x2db;" d="M447 -77q0 -36 26 -75q27 -43 62 -43q101 0 173 37q22 12 39 12q31 0 52.5 -24t21.5 -55q0 -63 -116 -96q-82 -23 -170 -23q-98 0 -169 86q-68 81 -68 181q0 82 73 164.5t154 82.5q31 0 51.5 -23t20.5 -54q0 -44 -75 -81t-75 -89z" />
<glyph unicode="&#x2dc;" d="M454 1554q100 0 161 -58l83 -106q47 -58 112 -58q57 0 85 37l46 88l20 59q14 29 60 29q75 0 75 -74q0 -36 -43 -121q-40 -80 -69 -110q-56 -57 -143 -57q-131 0 -205 57q-27 21 -88 107q-42 57 -94 57q-31 0 -55.5 -11.5t-42.5 -34.5l-44 -85q-25 -45 -65 -45 q-31 0 -54 20.5t-23 51.5q0 11 3 23q28 102 101 165q78 66 180 66z" />
<glyph unicode="&#x2dd;" d="M539 1595q30 0 53.5 -23t23.5 -53q0 -25 -20 -49q-39 -47 -125 -129q-89 -84 -126 -128q-26 -30 -58 -30q-30 0 -53.5 22.5t-23.5 53.5q0 37 117 156l156 153q26 27 56 27zM875 1564q30 0 52 -23.5t22 -54.5t-37 -62l-149 -142q-105 -99 -142 -99q-30 0 -52.5 24 t-22.5 54q0 33 31 58l147 142q108 103 151 103z" />
<glyph unicode="&#x384;" d="M736 1417q0 -31 -54 -114l-78 -112q-28 -42 -66 -42q-31 0 -52 24.5t-21 55.5q0 16 44 111q39 85 58 118q27 47 75 47q37 0 65.5 -25.5t28.5 -62.5z" />
<glyph unicode="&#x385;" d="M1055 1287q0 -92 -143 -92q-41 0 -73 21q-36 24 -36 63q0 69 45 89q25 12 103 12q34 0 69 -31.5t35 -61.5zM736 1417q0 -31 -54 -114l-78 -112q-28 -42 -66 -42q-31 0 -52 24.5t-21 55.5q0 16 44 111q39 85 58 118q27 47 75 47q37 0 65.5 -25.5t28.5 -62.5zM363 1267 q0 -30 -44 -58q-40 -25 -75 -25q-123 0 -123 103q0 29 37.5 57t73.5 28q131 0 131 -105z" />
<glyph unicode="&#x386;" horiz-adv-x="1498" d="M970 88q0 -88 -58 -88q-84 0 -119 79q-27 62 -37 178q-11 132 -25 176q-195 -67 -241 -86q-192 -76 -208 -118q0 -30 9 -88t9 -88q0 -2 -5 -53h-155q-9 30 -9 79q0 363 102 864q125 618 315 725q118 -7 185 -294q23 -132 74 -392q119 -540 153 -799q10 -67 10 -95z M641 739q0 72 -42 227t-79 211q-58 -54 -113 -276q-49 -192 -49 -306q283 109 283 144zM629 1467q0 -31 -54 -114l-78 -112q-28 -42 -66 -42q-31 0 -52 24.5t-21 55.5q0 16 44 111q39 85 58 118q27 47 75 47q37 0 65.5 -25.5t28.5 -62.5z" />
<glyph unicode="&#x387;" horiz-adv-x="286" d="M141 592q-52 0 -88 36t-36 88q0 51 36 87.5t88 36.5q51 0 87.5 -36.5t36.5 -87.5q0 -52 -36.5 -88t-87.5 -36z" />
<glyph unicode="&#x388;" horiz-adv-x="1616" d="M1231 288q0 -46 -35 -220q-14 -74 -83 -74q-12 0 -35 2.5t-35 2.5h-518q-37 115 -76 527q-35 368 -35 551q0 176 243 382q227 190 414 222h9q47 0 47 -62q0 39 -14 -24l-28 -145q-16 -93 -25 -105q-23 -32 -84 -55q-101 -39 -155 -76q-83 -58 -159 -149 q-95 -111 -95 -187q0 -51 55 -49q387 167 417 167q48 0 48 -72q0 -21 -5.5 -60t-5.5 -60q0 -125 -60 -183q-35 -35 -176 -85l-250 -98q0 -102 60 -127q319 25 502 25q79 0 79 -48zM413 1467q0 -31 -54 -114l-78 -112q-28 -42 -66 -42q-31 0 -52 24.5t-21 55.5q0 16 44 111 q39 85 58 118q27 47 75 47q37 0 65.5 -25.5t28.5 -62.5z" />
<glyph unicode="&#x389;" horiz-adv-x="2013" d="M1343 -14q-14 -16 -38.5 -23.5t-53.5 -7.5q-41 0 -59 13q-37 56 -66 214q-17 93 -38 268q-17 138 -24 147q-35 -22 -108 -39.5t-181 -17.5q7 -79 10.5 -151t3.5 -130q0 -66 -3.5 -124l-7.5 -121q-36 -21 -92 -21t-82 21q-16 19 -21.5 76t-5.5 147q0 66 1 134l2 136 l-63 1049q15 19 44.5 28.5t63.5 9.5q42 0 75 -13q13 -108 15 -260.5t4 -275.5t17 -160q52 0 145 21l137 32q0 45 0.5 230.5t1.5 355.5t2 170q16 8 32 11t37 3q35 0 66.5 -11t40.5 -24q18 -84 26 -274t8 -425q0 -178 28 -427q19 -171 54 -390q27 -171 29 -171zM466 1467 q0 -31 -54 -114l-78 -112q-28 -42 -66 -42q-31 0 -52 24.5t-21 55.5q0 16 44 111q39 85 58 118q27 47 75 47q37 0 65.5 -25.5t28.5 -62.5z" />
<glyph unicode="&#x38a;" horiz-adv-x="1549" d="M864 287q10 -73 10 -135q0 -57 -11 -89.5t-37 -32.5q-33 -30 -76 -30q-40 0 -78 30q0 127 -28.5 318.5l-56.5 397t-28 399.5q0 196 8 339q2 49 9 111q17 9 28 13q37 14 68 14q23 0 42.5 -5.5t38.5 -21.5q0 -178 28 -508q18 -217 54 -545q28 -255 29 -255zM315 1467 q0 -31 -54 -114l-78 -112q-28 -42 -66 -42q-31 0 -52 24.5t-21 55.5q0 16 44 111q39 85 58 118q27 47 75 47q37 0 65.5 -25.5t28.5 -62.5z" />
<glyph unicode="&#x38c;" horiz-adv-x="1795" d="M1062 825q0 -225 -10 -334q-21 -228 -89 -356q-89 -167 -257 -167q-186 0 -294 134q-85 106 -120 297q-24 132 -24 303q0 375 85 630q62 186 161 290q66 69 95 69q91 0 193 -103q111 -112 180 -296q80 -214 80 -467zM894 738q0 124 -53.5 251.5t-98.5 127.5q-11 0 -18 -8 q-43 -88 -117 -88q-48 0 -97 37q-25 0 -56 -91.5t-31 -177.5v-22t4 -29q25 -158 89 -253q46 -69 110 -101q36 -18 58 -18q118 0 173 148q37 100 37 224zM366 1467q0 -31 -54 -114l-78 -112q-28 -42 -66 -42q-31 0 -52 24.5t-21 55.5q0 16 44 111q39 85 58 118q27 47 75 47 q37 0 65.5 -25.5t28.5 -62.5z" />
<glyph unicode="&#x38e;" horiz-adv-x="1741" d="M1546 1638q8 -44 11 -83t3 -84q0 -186 -73 -353q-56 -127 -151 -239q-51 -60 -122 -121q0 -63 8 -213t8 -241q0 -92 -3.5 -155.5t-15.5 -153.5h-180q0 121 -10.5 329.5t-22.5 314.5q-49 -13 -91 -19.5t-83 -6.5q-180 0 -256 143q-60 112 -60 327q0 72 7 162q3 33 15 155 q23 37 65.5 56.5t90.5 19.5q21 0 36.5 -3t37.5 -10q-16 -71 -25 -128q-12 -76 -12 -130q0 -87 25 -131q30 -54 98 -54q11 0 17.5 1t23.5 4q185 41 341 229q153 184 153 353q0 31 -6 60q47 22 95 22q34 0 55 -12.5t21 -38.5zM316 1467q0 -31 -54 -114l-78 -112 q-28 -42 -66 -42q-31 0 -52 24.5t-21 55.5q0 16 44 111q39 85 58 118q27 47 75 47q37 0 65.5 -25.5t28.5 -62.5z" />
<glyph unicode="&#x390;" horiz-adv-x="574" d="M375 454q0 -60 3.5 -179.5t3.5 -179.5q0 -44 -27 -72t-71 -28q-43 0 -70.5 28t-27.5 72q0 60 -3.5 179.5t-3.5 179.5q0 94 10 234.5t10 234.5q0 45 27.5 73t70.5 28t70.5 -28t27.5 -73q0 -94 -10 -234.5t-10 -234.5zM825 1287q0 -92 -143 -92q-41 0 -73 21q-36 24 -36 63 q0 69 45 89q25 12 103 12q34 0 69 -31.5t35 -61.5zM506 1417q0 -31 -54 -114l-78 -112q-28 -42 -66 -42q-31 0 -52 24.5t-21 55.5q0 16 44 111q39 85 58 118q27 47 75 47q37 0 65.5 -25.5t28.5 -62.5zM133 1267q0 -30 -44 -58q-40 -25 -75 -25q-123 0 -123 103q0 29 37.5 57 t73.5 28q131 0 131 -105z" />
<glyph unicode="&#x391;" horiz-adv-x="2162" d="M2069 959q15 -139 23 -278.5t8 -279.5q0 -244 -25 -464.5t-80 -435.5h-1720q-66 41 -117 319.5t-51 647.5q0 225 20 441q30 332 110 636q87 329 222 583h1363q87 -274 149.5 -567t97.5 -602zM1904 -145q11 120 15 228t4 229q0 163 -9 308t-26 289q-35 292 -88.5 510.5 t-122.5 351.5h-1223q-5 0 -38 -108q-42 -135 -70 -300q-39 -229 -39 -454q0 -73 -2.5 -204.5t-2.5 -163.5q0 -129 7 -237.5t26 -219.5t56 -229h1513zM1448 300q5 -44 13.5 -89.5t8.5 -60.5q0 -28 -17.5 -38t-69.5 -10q-101 0 -121 109l-32 233l-205.5 -84.5t-112.5 -70.5 q0 -26 4 -68t4 -64q0 -29 -1.5 -41t-6.5 -42h-136l-26 121q-10 60 -10 170q0 105 38 370q47 331 114 561q88 302 191 362q70 0 119 -110q37 -83 70 -254l52 -288q41 -199 73 -378t51 -328zM1131 816q0 42 -21 155q-24 131 -47 167q-27 -28 -65.5 -185.5t-38.5 -230.5 q92 38 110 47q62 30 62 47z" />
<glyph unicode="&#x392;" horiz-adv-x="2070" d="M2069 959q15 -139 23 -278.5t8 -279.5q0 -244 -25 -464.5t-80 -435.5h-1720q-66 41 -117 319.5t-51 647.5q0 225 20 441q30 332 110 636q87 329 222 583h1363q87 -274 149.5 -567t97.5 -602zM1904 -145q11 120 15 228t4 229q0 163 -9 308t-26 289q-35 292 -88.5 510.5 t-122.5 351.5h-1223q-5 0 -38 -108q-42 -135 -70 -300q-39 -229 -39 -454q0 -73 -2.5 -204.5t-2.5 -163.5q0 -129 7 -237.5t26 -219.5t56 -229h1513zM1542 704q0 -272 -135 -451q-148 -196 -403 -196q-126 0 -176.5 50.5t-50.5 184.5q0 82 32 138l70 72q-6 92 -10.5 219 t-4.5 231q-40 -9 -47 -11q-26 -6 -41 -6q-41 0 -59 33q-21 39 -21 137q0 114 105 251q95 124 225 213t213 89q109 0 150 -58q29 -41 29 -123q0 -13 -1 -36.5t-1 -32.5q0 -124 -34 -217l-78 -150q93 -39 162 -116q76 -85 76 -221zM1278 1348q4 19 -14 33t-44 14q-13 0 -22 -4 q-78 -33 -140 -105.5t-62 -137.5l25 -142q103 62 171 162q55 80 86 180zM1401 617q0 46 -54 98q-57 55 -114 55q-98 0 -155 -72q-19 -24 -38 -72v-50q0 -108 5.5 -187.5t23.5 -96.5q9 -1 16.5 -1h15.5q111 0 189 83q57 61 89 155q22 64 22 88z" />
<glyph unicode="&#x393;" horiz-adv-x="2162" d="M2069 959q15 -139 23 -278.5t8 -279.5q0 -244 -25 -464.5t-80 -435.5h-1720q-66 41 -117 319.5t-51 647.5q0 225 20 441q30 332 110 636q87 329 222 583h1363q87 -274 149.5 -567t97.5 -602zM1904 -145q11 120 15 228t4 229q0 163 -9 308t-26 289q-35 292 -88.5 510.5 t-122.5 351.5h-1223q-5 0 -38 -108q-42 -135 -70 -300q-39 -229 -39 -454q0 -73 -2.5 -204.5t-2.5 -163.5q0 -129 7 -237.5t26 -219.5t56 -229h1513zM1579 260q0 -82 -25 -142q-12 -28 -31 -53h-642q-107 64 -158 242q-46 160 -46 409q0 158 34 341q45 244 130 391 q108 187 267 187q119 0 195 -86q61 -69 91 -193q24 -99 24 -203q0 -147 -1 -183q-4 -133 -23 -229q-34 0 -64 -12q-10 -4 -24 -13q-71 0 -98 71q-20 53 -20 163q0 29 2 86t2 84q0 74 -12 108q-15 43 -54 43q-37 0 -104 -71q-77 -82 -127 -194q-62 -140 -62 -290 q0 -131 43 -209q50 -90 158 -110h494l38 -51q13 -22 13 -86z" />
<glyph unicode="&#x394;" horiz-adv-x="2117" d="M2069 959q15 -139 23 -278.5t8 -279.5q0 -244 -25 -464.5t-80 -435.5h-1720q-66 41 -117 319.5t-51 647.5q0 225 20 441q30 332 110 636q87 329 222 583h1363q87 -274 149.5 -567t97.5 -602zM1904 -145q11 120 15 228t4 229q0 163 -9 308t-26 289q-35 292 -88.5 510.5 t-122.5 351.5h-1223q-5 0 -38 -108q-42 -135 -70 -300q-39 -229 -39 -454q0 -73 -2.5 -204.5t-2.5 -163.5q0 -129 7 -237.5t26 -219.5t56 -229h1513zM1568 838q0 -407 -72 -596q-61 -161 -192 -204q-64 -21 -270 -21q-152 0 -227 21q-87 24 -123 87q-5 38 -9 76 q-9 78 -18 179.5t-9 152.5l83 -20q-8 44 -15 89q-21 122 -33 185q-20 106 -35 154l-54 -40v385q130 190 227 258q108 76 272 76q211 0 325 -125q93 -102 127 -300q23 -134 23 -357zM1448 853q2 11 2 22.5v17.5q0 133 -100 244q-96 106 -196 106q-23 0 -45 -8 q-57 -21 -135 -76q-62 -43 -117 -90l-50 -45q12 -34 35 -175q17 -105 36 -239q8 -60 17 -120q43 -21 94 -33q66 -16 142 -16q155 0 214 70q68 81 103 342z" />
<glyph unicode="&#x395;" horiz-adv-x="2117" d="M2069 959q15 -139 23 -278.5t8 -279.5q0 -244 -25 -464.5t-80 -435.5h-1720q-66 41 -117 319.5t-51 647.5q0 225 20 441q30 332 110 636q87 329 222 583h1363q87 -274 149.5 -567t97.5 -602zM1904 -145q11 120 15 228t4 229q0 163 -9 308t-26 289q-35 292 -88.5 510.5 t-122.5 351.5h-1223q-5 0 -38 -108q-42 -135 -70 -300q-39 -229 -39 -454q0 -73 -2.5 -204.5t-2.5 -163.5q0 -129 7 -237.5t26 -219.5t56 -229h1513zM1471 377q9 -8 9 -44q0 -37 -7 -90q-10 -58 -19 -116q0 -54 -35 -76q-26 -16 -72 -16q-18 0 -32 1t-26 2h-496 q-21 38 -46.5 233t-44.5 427t-19 345q0 126 127 271q106 121 266 220q146 91 233 102q5 1 14 1q34 0 48 -31q11 -24 11 -68q0 -24 -3 -46l-5 -36q0 -154 -60 -189l-217 -108q-92 -65 -167 -148.5t-75 -126.5q0 -29 40 -29l95 39l183 74q102 40 111 40q36 0 51 -39 q11 -29 11 -81q0 -23 -1 -40.5l-2 -33.5q0 -118 -45 -174q-37 -46 -144 -88q-244 -96 -258 -103q0 -23 9 -44t25 -28l64 4q101 6 175 9t148 3q70 0 109.5 -3.5t44.5 -12.5z" />
<glyph unicode="&#x396;" horiz-adv-x="2117" d="M2069 959q15 -139 23 -278.5t8 -279.5q0 -244 -25 -464.5t-80 -435.5h-1720q-66 41 -117 319.5t-51 647.5q0 225 20 441q30 332 110 636q87 329 222 583h1363q87 -274 149.5 -567t97.5 -602zM1904 -145q11 120 15 228t4 229q0 163 -9 308t-26 289q-35 292 -88.5 510.5 t-122.5 351.5h-1223q-5 0 -38 -108q-42 -135 -70 -300q-39 -229 -39 -454q0 -73 -2.5 -204.5t-2.5 -163.5q0 -129 7 -237.5t26 -219.5t56 -229h1513zM1449 702q0 -11 1 -37.5t1 -40.5q0 -34 -3.5 -53.5t-16.5 -34.5q-25 -16 -121 -43l-165 -47q-88 -28 -109 -52q2 -28 3 -65 t1 -88q0 -93 -7 -158t-24 -65q-63 0 -86 33.5t-35 148.5t-24 247q-7 85 -13 170q-18 239 -24 327q-13 200 -13 254v30q0 38 3.5 75t15.5 69q32 40 140 100q92 51 201.5 96t143.5 45q47 0 67 -54l18 -128v-40t1 -37q0 -28 -3 -48.5t-12 -34.5q-22 -38 -77 -69l-133 -66 q-101 -52 -193 -119l8 -263q5 -1 16 -1q51 0 175 48l170 66q11 3 19 3q42 0 61 -61q14 -44 14 -107z" />
<glyph unicode="&#x397;" horiz-adv-x="1573" d="M978 -14q-14 -16 -38.5 -23.5t-53.5 -7.5q-41 0 -59 13q-37 56 -66 214q-17 93 -38 268q-17 138 -24 147q-35 -22 -108 -39.5t-181 -17.5q7 -79 10.5 -151t3.5 -130q0 -66 -3.5 -124l-7.5 -121q-36 -21 -92 -21t-82 21q-16 19 -21.5 76t-5.5 147q0 66 1 134l2 136 l-63 1049q15 19 44.5 28.5t63.5 9.5q42 0 75 -13q13 -108 15 -260.5t4 -275.5t17 -160q52 0 145 21l137 32q0 45 0.5 230.5t1.5 355.5t2 170q16 8 32 11t37 3q35 0 66.5 -11t40.5 -24q18 -84 26 -274t8 -425q0 -178 28 -427q19 -171 54 -390q27 -171 29 -171z" />
<glyph unicode="&#x399;" horiz-adv-x="1119" d="M380 287q10 -73 10 -135q0 -57 -11 -89.5t-37 -32.5q-33 -30 -76 -30q-40 0 -78 30q0 127 -28.5 318.5l-56.5 397t-28 399.5q0 196 8 339q2 49 9 111q17 9 28 13q37 14 68 14q23 0 42.5 -5.5t38.5 -21.5q0 -178 28 -508q18 -217 54 -545q28 -255 29 -255z" />
<glyph unicode="&#x39a;" horiz-adv-x="1251" d="M1085 -30q-66 8 -158 37.5l-184 60.5q-128 41 -222 63q9 -28 13 -43q14 -49 14 -67q0 -13 -6 -13h-177q-46 191 -85 610q-25 270 -49 685q-9 162 -17 325h70h81q28 -64 41 -268l16.5 -339.5t29.5 -177.5l149 258q101 179 153 295q70 156 70 232q0 17 13.5 24t38.5 7 q36 0 92 -15q19 -5 50 -16q0 -225 -120 -518t-312 -532q-1 -3 -1 -10q0 -44 125 -98q50 -21 237 -85q132 -45 138 -62v-353z" />
<glyph unicode="&#x39c;" horiz-adv-x="781" d="M289 145v-140q43 0 81 12.5t73 50.5q11 108 18.5 225t11.5 224q15 14 25 34.5t21 38.5t25 32t38 14q17 0 25.5 -14t13 -33t5.5 -40t1 -37q0 -124 -8.5 -246.5t-8.5 -246.5q52 0 87.5 29t66.5 78q6 58 10.5 106t5.5 95t1 94v105v37t-1 55t-1 55v37q-11 52 -43.5 75.5 t-69.5 23.5q-28 0 -49.5 -15t-39 -34.5t-35 -34.5t-36.5 -15q-20 0 -28.5 18t-17.5 41.5t-26 41t-54 17.5q-33 0 -55.5 -17.5t-43 -41t-40.5 -41.5t-43 -18h-16q0 8 -2 24.5l-4 34.5t-4.5 34.5t-4.5 22.5q0 5 -5.5 10.5t-9.5 8.5h-2l-4 3q-16 0 -32 -12.5t-30 -32t-25 -38.5 t-13 -36q-2 -11 -5.5 -38.5t-5.5 -57.5t-3 -59t-1 -40l-16 -17l-2 -41t-5 -96.5t-5.5 -114.5t-2.5 -98q0 -5 -1 -30t-1 -36q0 -30 2 -50.5t28 -20.5q7 0 26.5 12.5t41 29t38 31.5t18.5 23q13 61 12 134t3.5 143t22.5 130.5t71 99.5h8q5 0 7 1.5t4 1.5q11 0 24 -1.5t17 -20.5 v-69v-66q-2 -36 -4 -88.5t-4.5 -102t-4.5 -85.5l-2 -36z" />
<glyph unicode="&#x39d;" horiz-adv-x="1632" d="M1227 207q0 -16 1 -42t1 -37q0 -33 -4.5 -64.5t-18.5 -84.5h-117q-42 57 -195 229q-178 200 -321 346q-187 191 -273 249q0 -156 12 -309q6 -79 22 -216q12 -104 12 -142t-7 -62q-6 -14 -21 -20.5t-36 -6.5q-44 0 -88 22q-15 48 -27 120q-20 120 -30 297q-14 237 -14 569 q0 69 9.5 224.5t22.5 256.5q15 6 32.5 9t30.5 3q21 0 43.5 -6t44.5 -22q9 -14 12.5 -31.5t3.5 -39.5q0 -9 -1 -29t-1 -31v-16.5t4 -22.5l575 -613q-18 138 -21 166q-12 105 -17.5 183.5t-5.5 182.5q0 61 13 194q18 179 43 247q14 0 42 6t43 6q21 0 37.5 -8.5t30.5 -33.5 q0 -9 -11 -187q-6 -97 -6 -171q0 -72 4 -152t14 -178q23 -207 65 -366l65 -217t32 -202z" />
<glyph unicode="&#x39e;" horiz-adv-x="1475" d="M1353 1407q0 -43 -28 -71t-71 -28q-79 0 -236 -3t-235 -3h-423q-28 0 -85 3t-85 3q-43 0 -71 28t-28 71t28 71t71 28q28 0 85 -3t85 -3h423q78 0 235 3t236 3q43 0 71 -28t28 -71zM1197 783q0 -43 -28 -71t-71 -28q-56 0 -168 -2t-168 -2q-75 0 -225.5 -8.5t-225.5 -8.5 q-43 0 -71.5 28.5t-28.5 71.5t28.5 71t71.5 28q99 0 296.5 10.5t296.5 10.5h194q43 0 71 -28.5t28 -71.5zM1418 87q0 -43 -28.5 -71t-71.5 -28q-69 0 -205.5 6t-205.5 6q-120 0 -360.5 -16t-360.5 -16q-43 0 -71.5 28t-28.5 71t28.5 71t71.5 28q99 0 276 14q193 15 276 17 q130 3 191 3q65 0 194.5 -6.5t194.5 -6.5q43 0 71.5 -28.5t28.5 -71.5z" />
<glyph unicode="&#x39f;" horiz-adv-x="1635" d="M910 825q0 -225 -10 -334q-21 -228 -89 -356q-89 -167 -257 -167q-186 0 -294 134q-85 106 -120 297q-24 132 -24 303q0 375 85 630q62 186 161 290q66 69 95 69q91 0 193 -103q111 -112 180 -296q80 -214 80 -467zM742 738q0 124 -53.5 251.5t-98.5 127.5q-11 0 -18 -8 q-43 -88 -117 -88q-48 0 -97 37q-25 0 -56 -91.5t-31 -177.5v-22t4 -29q25 -158 89 -253q46 -69 110 -101q36 -18 58 -18q118 0 173 148q37 100 37 224z" />
<glyph unicode="&#x3a1;" horiz-adv-x="1066" d="M846 1232q0 -335 -72 -510q-56 -135 -169 -199l-197 -85q0 -46 6 -119q16 -195 16 -319h-154q-25 14 -66 284q-33 220 -68 537q-28 251 -42 411q0 214 107 349q97 122 223 122q196 0 302 -113q78 -83 103 -219q11 -59 11 -139zM675 1148q-22 69 -95 122q-65 47 -115 47 q-85 0 -132 -108q-35 -80 -35 -156q0 -31 8 -99l10 -85q147 13 246 98q87 74 113 181z" />
<glyph unicode="&#x3a4;" horiz-adv-x="1392" d="M1031 1268q-8 1 -13 1q-51 0 -144 -38q-67 -28 -151 -72l-71 -40l58 -1078q-33 -34 -63 -45q-19 -7 -50 -7h-30q-16 -2 -32 -9l-81 1066l-78 -53q-96 -64 -147 -94q-81 -47 -87 -35l-26 482l144 80l302 159q186 93 268 119q42 14 113 20q23 1 63 3l19 -175q8 -78 13 -138 t5 -92q0 -54 -12 -54z" />
<glyph unicode="&#x3a5;" horiz-adv-x="1301" d="M1067 1638q8 -44 11 -83t3 -84q0 -186 -73 -353q-56 -127 -151 -239q-51 -60 -122 -121q0 -63 8 -213t8 -241q0 -92 -3.5 -155.5t-15.5 -153.5h-180q0 121 -10.5 329.5t-22.5 314.5q-49 -13 -91 -19.5t-83 -6.5q-180 0 -256 143q-60 112 -60 327q0 72 7 162q3 33 15 155 q23 37 65.5 56.5t90.5 19.5q21 0 36.5 -3t37.5 -10q-16 -71 -25 -128q-12 -76 -12 -130q0 -87 25 -131q30 -54 98 -54q11 0 17.5 1t23.5 4q185 41 341 229q153 184 153 353q0 31 -6 60q47 22 95 22q34 0 55 -12.5t21 -38.5z" />
<glyph unicode="&#x3a7;" horiz-adv-x="1482" d="M1140 387q0 -151 -14.5 -240.5t-46.5 -129.5h-101q-62 95 -316 417q-25 -73 -42 -142.5t-23 -135.5q-62 -64 -115 -104q-67 -50 -109 -50q-17 0 -28 7q0 66 22 159.5t62 212.5q29 88 86 234l-179 214l-174 210q-78 97 -78 110q-8 9 -12 33.5t-4 63.5q0 96 23 192 q27 114 77 172q11 0 95 -93l194 -223l226 -265q52 127 86 218q40 106 63 184t23 118q0 14 -3 25l227 108q0 -135 -36 -284q-32 -133 -90 -279q-34 -86 -120 -273q127 -158 203 -270q87 -127 104 -189z" />
<glyph unicode="&#x3a8;" horiz-adv-x="512" d="M421 1583q45 -14 45 -129q0 -180 -74 -399q-71 -211 -231 -211q-88 0 -102 53q-29 103 -29 213q0 150 49 244q125 240 283 240q30 0 59 -11zM370 1358q2 29 -27 29q-32 0 -86.5 -35t-89.5 -76q-53 -63 -53 -164q0 -37 47 -37q41 0 88 26t60 58l39.5 103t21.5 96z" />
<glyph unicode="&#x3a9;" horiz-adv-x="270" d="M161 939q-51 144 -55 162q-37 131 -49 303q-2 80 16 135q17 50 41 50q58 0 60 -209q2 -93 69 -316q7 -22 7 -41q0 -57 -89 -84z" />
<glyph unicode="&#x3aa;" horiz-adv-x="493" d="M470 1026q0 -78 -97 -156q-100 -81 -210 -81q-31 0 -48 21q-20 26 -20 92q0 10 0.5 28t0.5 25q0 85 27 169q13 41 59 150q43 98 61 165q7 27 15 54q0 12 -7 18.5t-24 6.5q-46 0 -71 -42q-26 -44 -26 -122v-6.5v-3.5v-74q0 -16 -17 -36q-21 -23 -46 -23q-9 0 -18 4 q0 4 -6 73q-3 41 -3 62q0 26 2 46t7 43q17 79 35 123q27 65 66 99q47 41 116 41q44 0 60 -42q11 -28 11 -88v-27q0 -116 -31 -230q-20 -74 -67 -186q-49 -117 -63 -165q7 -3 14 -7q8 -2 17 -2q34 0 84 33q149 99 157 102q2 -19 12 -43z" />
<glyph unicode="&#x3ab;" horiz-adv-x="622" d="M244 1007q47 -14 92 -14q151 0 205 162q32 102 32 176q0 199 -225 207q2 18 15.5 59t13.5 57q0 50 -98 50q-23 0 -52 -2q-63 -7 -125 -11q-59 -14 -59 -69q0 -68 27 -99q20 -24 79 -45q-36 -67 -36 -116q0 -56 55 -43q37 8 74 8q67 0 170 -39q16 -6 16 -21 q0 -20 -33 -38.5t-84 -18.5q-22 0 -49 4q-57 10 -57 -106q0 -88 39 -101z" />
<glyph unicode="&#x3ac;" horiz-adv-x="504" d="M476 1161q0 -20 -36 -36q-14 -6 -32 -12q6 -41 12.5 -92t6.5 -84q0 -17 -1 -26t-4 -43h-91q-10 86 -15 123q-9 65 -18 88q-27 -10 -83 -25t-88 -15q-44 0 -66 17.5t-24.5 40t-2.5 36.5q0 85 57 243q50 139 120.5 267.5t130.5 140.5q13 -31 16 -46t3 -33q0 -7 -1.5 -46.5 t-1.5 -78.5q0 -78 4 -152l9 -119q-9 0 15.5 6.5l70.5 18.5q15 -31 17 -78t2 -95zM272 1278q-6 45 -11 101q-7 80 -7 81q19 25 -29 -77.5t-55 -127.5q10 0 58 11q17 4 44 12z" />
<glyph unicode="&#x3ad;" horiz-adv-x="644" d="M25 1257q6 39 74 213q76 197 110 211q72 21 263 21q96 0 112 -13q25 -22 25 -63q0 -29 -11.5 -56.5t-21.5 -29.5q-172 -25 -238.5 -45.5t-85.5 -46.5q-2 -5 -20 -68q63 -6 82 -18q37 -27 37 -119q0 -56 -13 -137q-22 -134 -78.5 -210.5t-123.5 -82.5q-70 -6 -70 92 q0 51 19 84q8 16 36 16h21q14 -2 22 -2q76 0 80 103q2 77 -59 98q-10 4 -109 10q-57 4 -51 43z" />
<glyph unicode="&#x3ae;" horiz-adv-x="553" d="M519 1212q0 -134 -49 -241q-43 -96 -114 -153q-67 -53 -134 -53q-72 0 -130 67q-66 78 -66 203q0 62 23 206q30 192 73 312q59 160 133 160q28 0 44.5 -13.5t16.5 -34.5q0 -42 -5 -72q-7 -43 -25 -68q-3 -5 -16 -5q-6 0 -12 0.5t-12 0.5q-11 0 -16 -6q-32 -55 -50.5 -123 t-37.5 -204q-5 -36 -5 -75q0 -29 4.5 -52.5t15.5 -35.5q7 73 44 170q38 102 88 169q57 77 112 77t84 -44q34 -51 34 -185zM433 1172q0 23 -3 37q-6 25 -23 36q-24 0 -66 -58q-37 -51 -68 -116.5t-31 -90.5q0 -5 1 -6q51 0 100 48q36 35 65 91q25 46 25 59z" />
<glyph unicode="&#x3af;" horiz-adv-x="516" d="M296 836q79 244 79 461q0 178 -53 178q-41 0 -97 -45t-60 -72q-7 -53 -54 -53q-55 0 -92 113q-6 18 -6 35q0 94 147 178q123 69 220 78q112 8 112 -291q0 -107 -10 -180q-39 -267 -186 -402z" />
<glyph unicode="&#x3b0;" horiz-adv-x="468" d="M417 967q-20 -59 -60.5 -89t-101.5 -30q-89 0 -147 64q-17 19 -33 47.5t-30 67.5q-1 5 -2.5 10t-1.5 7q-2 3 -4 9.5t-2 8.5q-9 24 -8 54q0 20 4 38.5l10 44.5q18 48 43 72q31 28 87 42q-18 19 -37 36q-36 32 -41 41q-16 24 -24 43q-9 24 -13 49t-3 52q1 39 13.5 81 t44.5 70q29 24 54 24t50.5 -9.5t48.5 -30.5q18 -13 32 -32t24 -41q10 -32 15.5 -73.5t4.5 -89.5q0 -28 -7 -54q-9 -33 -32 -71l32 -21q17 -13 36 -25q12 -11 22 -26t17 -33q26 -74 25 -141q-1 -50 -16 -95zM260 1437q3 9 4 21q0 9 -2 21t-5 24.5t-9 22.5t-16 18 q-14 18 -38 21q-9 2 -19 2q-28 0 -38 -30q-1 -5 -1 -10v-7q-1 -20 7 -47l10 -22l12 -20q11 -10 21.5 -17.5t19.5 -10t16 -2.5q14 0 23.5 8.5t14.5 27.5zM284 1038q3 10 4.5 18t1.5 18q0 15 -3 30t-9 31t-10 24.5t-12 18.5q-15 18 -36 24l-10 3l-11 2q-20 0 -33.5 -13.5 t-18.5 -41.5q0 -25 2 -44.5t10 -43.5q3 -14 8.5 -24.5t13.5 -20.5q7 -10 16.5 -17t19.5 -10.5t20 -3.5q17 0 29.5 11.5t17.5 38.5z" />
<glyph unicode="&#x3b1;" horiz-adv-x="446" d="M401 1316q-4 -31 -4 -74q0 -57 8 -186t8 -181q0 -114 -26 -114q-49 0 -74 510q-27 -56 -105.5 -98t-127.5 -42q-17 0 -25 7q-43 34 -43 143q0 158 111 297q61 78 93 100.5t89 28.5q24 0 49 -23.5t39 -23.5q6 0 16 4q9 2 11 -43t-3.5 -125t-15.5 -180zM137 1385 q59 4 104 31q54 31 56 78q2 27 -7.5 43t-33.5 10q-54 -12 -89.5 -66.5t-29.5 -95.5z" />
<glyph unicode="&#x3b2;" horiz-adv-x="324" d="M294 1499q0 -152 -10 -222q-12 -91 -47.5 -153t-114.5 -128h-44l-54 1018q10 8 25 12.5l29 8.5l22 -416q15 13 26 21q22 15 57 15q40 0 75.5 -50t35.5 -106zM220 1387v3.5t1 7.5q0 15 -3 24q-6 14 -18 20q-33 -9 -53 -34q-13 -15 -33 -54l7 -136q33 23 58 66q19 30 32 70 q4 17 9 33z" />
<glyph unicode="&#x3b3;" horiz-adv-x="369" d="M351 1836q1 -6 1 -21q0 -87 -9 -105q-15 -30 -89 -61l-3 -110q39 30 69 30q11 0 11 -69v-44q0 -39 -28 -58l-70 -36q2 -7 2 -28q0 -245 -33 -245l-3 -2q-19 0 -19 95q0 21 2 63.5t2 63.5q0 22 -4 29q-25 -4 -37 -16q-2 -36 -6 -131q0 -31 -3 -93q-5 -82 -22 -82 q-27 0 -27 71q0 -28 15 222l-73 -24q-18 0 -18 73v29q1 29 7 36.5t36 20.5q16 7 49 24q5 18 5 98v9q-32 -17 -81 -33q-7 4 -7 34q0 83 16 124q18 14 86 49q2 34 6 124q8 115 27 115q22 0 22 -115q0 20 -6 -101q20 3 45 20q7 10 16 205q9 178 43 178q14 -27 14 -61 q0 -76 -18 -306q55 28 82 28z" />
<glyph unicode="&#x3b4;" horiz-adv-x="669" d="M643 1548q-21 -84 -73 -112q-31 -18 -138 -29q18 -106 18 -144q0 -132 -81 -132q-23 0 -54 21q-3 40 -16.5 119.5t-17.5 119.5q-143 -8 -239 -8q-17 0 -17 18q0 42 42 99q36 49 201 58q-2 17 -2 76q0 132 11 191q33 25 75 25q31 0 49 -13v-45q0 -112 12 -221q111 9 181 9 q33 0 49 -32z" />
<glyph unicode="&#x3b5;" horiz-adv-x="579" d="M67 1366q-38 0 -38 37q0 25 24.5 86.5t41.5 81.5q7 8 70 21q25 4 73.5 16t145.5 41q115 33 136 33q25 0 25 -25q0 -26 -23 -96q-23 -76 -39 -84q-41 -27 -202.5 -69t-213.5 -42z" />
<glyph unicode="&#x3b6;" horiz-adv-x="1174" d="M617 429q0 -176 -99.5 -299.5t-229.5 -123.5q-50 0 -97 20.5t-90 64.5q-35 35 -51.5 81t-16.5 100q0 143 100 268q104 130 234 130q41 0 83 -15.5t82 -47.5l-41 1136q16 -8 26 -12q30 -14 51 -26l200 -168q139 -124 213 -268q100 -195 100 -457q0 -174 -33 -322 q-40 -177 -129 -328q-23 2 -34 4q-35 8 -35 28q0 5 5 15q33 54 42 71q24 44 43 92q30 79 37 112q16 78 16 231q0 100 -91 210q-67 81 -179 165l-128 92z" />
<glyph unicode="&#x3b7;" horiz-adv-x="1168" d="M1034 626l34.5 -130.5t17.5 -135.5q0 -91 -9.5 -140.5t-33.5 -90.5q-10 -32 -25.5 -44.5t-33.5 -12.5q-11 0 -17 2t-11 5q14 35 22.5 85t8.5 99q0 106 -89 214q-64 77 -175 156l-127 86l9 -299q0 -171 -98 -292.5t-225 -121.5q-50 0 -95.5 19.5t-88.5 63.5 q-33 33 -49.5 79t-16.5 97q0 140 98 263q102 128 230 128q41 0 80 -14.5t80 -47.5l-39 1111q10 1 16 1q18 0 29.5 -2.5t22.5 -11.5l203 -166q144 -126 218 -272q102 -200 102 -471q0 -42 -10 -76q-17 -46 -28 -81zM979 779q2 13 3 24.5t1 25.5q0 112 -92 215 q-87 98 -329 266l13 -69q-6 -2 -11 -4q4 -3 7 -5q20 -20 125 -108q90 -75 148 -141q84 -95 135 -204z" />
<glyph unicode="&#x3b8;" horiz-adv-x="692" d="M655 446q0 -167 -105 -303q-112 -149 -273 -149q-107 0 -171 83q-58 76 -58 186q0 152 111 289q118 148 265 148q87 0 148 -70v1018q29 66 83 97v-1299z" />
<glyph unicode="&#x3b9;" horiz-adv-x="820" d="M515 365q0 70 -28.5 126t-59.5 56q-85 0 -124 -60q-23 -37 -39.5 -102t-16.5 -105q0 -56 19 -93.5t50 -37.5q90 0 149 78q50 66 50 138zM676 645l2 1122l92 102v-24.5v-33.5v-129v-156v-158v-147v-130v-112v-94v-78v-63v-51v-41v-33v-26v-21v-16v-13q0 -47 -5 -51 q-6 -56 -27 -113q-7 -19 -21 -47q2 4 4 7q-34 -58 -87.5 -109.5t-116.5 -89.5q-102 -64 -193 -95q-78 -27 -139 -27q-79 0 -127 61q-43 55 -43 133q0 62 34 139t82 128q31 31 78 70q70 58 121 84q60 30 101 42q56 17 118 17q38 0 68.5 -11.5t58.5 -35.5z" />
<glyph unicode="&#x3ba;" horiz-adv-x="929" d="M254 29q-258 0 -258 185q0 165 233 288q205 109 410 109q109 0 188 -43q101 -53 101 -152q0 -231 -361 -338q-165 -49 -313 -49zM629 310q0 192 -154 192q-82 0 -141 -75.5t-59 -159.5q0 -131 159 -131q80 0 137.5 47t57.5 127z" />
<glyph unicode="&#x3bb;" horiz-adv-x="635" d="M453 987q0 -61 -76 -151q-104 -127 -110 -138q-2 -12 92 -124.5t94 -153.5q0 -12 -77 -95t-77 -147q0 -53 62 -166q-64 2 -136.5 99.5t-72.5 162.5q0 52 82 133.5t82 100.5q0 4 -82 122t-82 163q0 43 83 135t83 145q0 17 -47 74q-56 65 -64 80q51 -2 148.5 -95.5 t97.5 -144.5z" />
<glyph unicode="&#x3bc;" horiz-adv-x="1014" d="M691 911q0 -38 -34 -111t-63.5 -81.5t-149.5 -8.5q-48 0 -48 40q0 30 37 104t61 92q10 7 91 7q58 0 65 -2q41 -5 41 -40zM902 629q0 -27 -36.5 -114t-56.5 -95q-41 -12 -250 -27q-187 -12 -266 -12q-173 0 -173 60q0 27 38.5 100t62.5 90q22 3 141 3q80 0 240.5 16.5 t241.5 16.5q58 0 58 -38z" />
<glyph unicode="&#x3bd;" horiz-adv-x="895" d="M434 455q0 -24 21.5 -51.5t21.5 -40.5q0 -32 -61.5 -107t-92.5 -75q-35 0 -43 25q-4 12 -4 55t191 446q-183 -34 -207 -34q-158 0 -158 174q0 79 59 206q68 144 136 144q24 0 24 -25q0 -28 -20.5 -83.5t-20.5 -84.5q0 -57 70 -57q74 0 182 63q92 54 158 119q16 6 35 6 q45 0 45 -47q0 -24 -13 -49q-45 -92 -153.5 -259t-151.5 -275q-16 -41 -18 -50z" />
<glyph unicode="&#x3be;" horiz-adv-x="956" d="M415 -437l-86 -13v2069l86 12v-2068zM256 -419q-90 -43 -158 -43q-21 0 -41 2v2069q78 43 143 43q29 0 56 -2v-2069zM921 970q0 -58 -18 -131q-23 -93 -60 -107q-12 -4 -94 -15.5t-102 -11.5q-66 0 -66 68q0 39 27 128t49 112q10 10 100 20q80 10 113 10q51 0 51 -73z M921 429q0 -57 -18 -131q-23 -92 -60 -107q-12 -4 -94 -15t-102 -11q-66 0 -66 67q0 39 27 128t49 112q10 10 100 21q80 10 113 10q51 0 51 -74z" />
<glyph unicode="&#x3bf;" horiz-adv-x="956" d="M556 1627l86 13v-2069l-86 -12v2068zM716 1609q90 43 157 43q21 0 41 -2v-2069q-78 -43 -143 -43q-29 0 -55 2v2069zM50 220q0 58 18 131q23 93 60 107q12 4 94 15.5t102 11.5q66 0 66 -68q0 -39 -26.5 -128t-49.5 -112q-10 -10 -100 -20q-80 -10 -113 -10q-51 0 -51 73z M50 761q0 57 18 131q23 92 60 107q12 4 94 15t102 11q66 0 66 -67q0 -39 -26.5 -128t-49.5 -112q-10 -10 -100 -21q-80 -10 -113 -10q-51 0 -51 74z" />
<glyph unicode="&#x3c1;" horiz-adv-x="1530" d="M1261 631q0 -58 -20 -167q-20 -114 -39 -162q-56 -133 -167 -227q-35 -23 -86 -63q2 -13 12 -61q15 -86 15 -139q0 -102 -26 -222q-36 -167 -99 -167q-12 0 -19 8q-24 85 -27 152q96 161 96 302q0 18 -6 52q-6 44 -17 44q-7 0 -22 -4l-21 -5q-45 -6 -96 -6 q-204 0 -310 133q-97 122 -97 331q0 149 87 412q40 120 184 468q89 214 88 225l-83 657q14 49 49 49q18 0 66 -36q165 -124 165 -406q0 -101 -38 -211q-13 -39 -75 -201q12 -188 43 -563l23 -11q41 43 104 72t121 29q195 0 195 -283zM799 1825q0 54 -76 105q-15 0 -15 -25 q0 -150 31 -321l36 121q24 80 24 120zM1165 636q0 27 -39 47q-34 16 -65 16q-36 0 -113 -41q-85 -44 -85 -77q0 -51 10.5 -150t14.5 -154q79 28 178 153t99 206zM768 751l-45 497q-98 -217 -177 -420q-124 -317 -124 -409q0 -121 95 -163q2 -1 43 -15q0 202 136 407 q21 28 72 103zM839 247q-13 99 -34 299l-82 -107q-40 -52 -65 -120q-18 -50 -18 -55v-34q22 -6 51 -6q41 0 148 23z" />
<glyph unicode="&#x3c2;" horiz-adv-x="1978" d="M398 -227q-4 1 -43 16q2 60 11 182l19 78q0 5 -1 7q269 123 472 377q221 274 221 547q0 70 -34 164q-117 332 -485 332q-117 0 -258 -104q-152 -110 -152 -223q0 -26 51 -77t51 -126q0 -169 -48 -169q-15 0 -45 26q-107 97 -107 268q0 287 136 503q158 251 429 251 q284 0 437 -258q127 -214 127 -519q0 -448 -193 -756q-32 -52 -132 -179q-62 -80 -214 -201q-173 -139 -242 -139zM1668 1613q0 -50 -16 -114q-20 -80 -52 -93q-11 -3 -82.5 -13t-88.5 -10q-57 0 -57 59q0 34 23 111.5t43 97.5q8 9 87 17q69 9 98 9q45 0 45 -64zM1668 1142 q0 -50 -16 -114q-20 -80 -52 -93q-11 -3 -82.5 -13t-88.5 -10q-57 0 -57 59q0 34 23 111.5t43 97.5q8 9 87 18q69 9 98 9q45 0 45 -65z" />
<glyph unicode="&#x3c3;" horiz-adv-x="1400" d="M840 -141q-80 0 -154 25q-100 33 -100 98v29q0 96 31 162q41 88 125 88q41 0 133 -47l-35 -140q29 -2 64 -2q120 0 200 70t80 188q0 111 -100.5 199t-214.5 88q-109 0 -179 -82q-32 -37 -38 -120q-3 -64 -37 -64q-29 0 -47 43q-13 33 -13 68q0 90 64 166 q-10 63 -114.5 138t-104.5 109q0 17 98 94t117 148q-43 72 -43 172q0 25 8 58q12 45 27 45q14 0 32 -54q6 -22 21 -69q55 -121 213 -121q137 0 231.5 86t94.5 221q0 113 -129 172q-91 41 -166 41q-35 0 -64 -4l35 -141q-88 -47 -135 -47q-154 0 -154 282q0 54 98 86 q74 23 140 23q215 0 346 -141.5t131 -356.5q0 -194 -117 -308t-311 -114q-76 0 -146 47q-28 -67 -88 -123q72 -73 95 -121q96 56 194 56q162 0 268 -121q99 -115 99 -279q0 -96 -27 -209q-35 -147 -156.5 -242.5t-271.5 -95.5zM381 -112l-82 -12v1973l82 12v-1973zM228 -94 q-85 -41 -150 -41q-19 0 -39 2v1973q74 41 137 41q27 0 52 -2v-1973z" />
<glyph unicode="&#x3c8;" horiz-adv-x="1516" d="M7 713q0 41 74 219l153 379q52 141 118 363q43 149 54 147q22 -6 22 -149q0 -54 -4 -183q-4 -112 -4 -149q4 -113 37 -213q66 14 126 61q141 113 232 371q16 6 29 6q41 0 41 -59q0 -97 -49 -148q-110 -143 -96 -172q13 -12 29 -12q58 0 114 108q15 31 48 119q20 58 35 58 q12 0 26 -23v-172q5 -70 36 -70q8 0 18 2q27 11 224.5 261.5t209.5 252.5q25 17 25 -167q0 -205 -23 -329t-208 -124q-54 0 -139 10q-33 -24 -66 -51q-50 -35 -107 -35q-42 0 -93 21l-58 -35q-42 -25 -75 -25q-66 0 -130 88q-29 -18 -64 -86q-45 -84 -64 -110 q-47 -54 -109 -54q-44 0 -95 72l-79 131q-130 -295 -188 -303zM254 1134q38 -43 81 -37q-4 49 -21 180zM1322 1323q24 -26 49 -22q-2 30 -13 109z" />
<glyph unicode="&#x3c9;" horiz-adv-x="1200" d="M748 1327q0 -144 -21 -219q-37 -131 -146 -131q-43 0 -103 12q-71 14 -96 33q-6 46 -15 160l39 -10q-7 61 -15 111q-8 56 -24 109l-32 -28v140q53 77 88 105q55 47 126 47q125 0 170 -110q29 -70 29 -219zM706 1351q0 56 -39 107q-42 56 -94 56q-50 0 -157 -97 q19 -49 28 -122q6 -62 13 -124q52 -26 108 -26q48 0 71 12q34 17 54 87q16 56 16 107zM370 1026q0 -38 -25 -38q-36 0 -51 34q-12 27 -16 77q-5 57 -11 76q-84 -29 -104 -37q-83 -33 -90 -51q0 -13 4 -38t4 -38q0 -1 -2 -23h-67q-4 13 -4 34q0 157 44 373q54 267 136 313 q51 -3 80 -127q10 -57 32 -169q51 -233 66 -345q4 -29 4 -41zM228 1307q0 31 -18 98t-34 91q-25 -23 -49 -119q-21 -83 -21 -132q122 47 122 62zM1168 1328q0 -144 -21 -219q-37 -131 -146 -131q-43 0 -103 12q-71 14 -96 33q-6 46 -15 160l39 -10q-7 61 -15 111 q-8 56 -24 109l-32 -28v140q53 77 88 105q55 47 126 47q125 0 170 -110q29 -70 29 -219zM1126 1352q0 56 -39 107q-42 56 -94 56q-50 0 -157 -97q19 -49 28 -122q6 -62 13 -124q52 -26 108 -26q48 0 71 12q34 17 54 87q16 56 16 107z" />
<glyph unicode="&#x3ca;" horiz-adv-x="574" d="M375 454q0 -60 3.5 -179.5t3.5 -179.5q0 -44 -27 -72t-71 -28q-43 0 -70.5 28t-27.5 72q0 60 -3.5 179.5t-3.5 179.5q0 94 10 234.5t10 234.5q0 45 27.5 73t70.5 28t70.5 -28t27.5 -73q0 -94 -10 -234.5t-10 -234.5zM-11 1372q131 0 131 -105q0 -30 -44 -58 q-40 -25 -75 -25q-123 0 -123 103q0 29 37.5 57t73.5 28zM528 1380q34 0 69 -31.5t35 -61.5q0 -92 -143 -92q-41 0 -73 21q-36 24 -36 63q0 69 45 89q25 12 103 12z" />
<glyph unicode="&#x3cb;" horiz-adv-x="732" d="M188 448q0 37 33 108t61.5 79t145.5 8q47 0 47 -39q0 -29 -36 -101t-60 -89q-9 -7 -88 -7q-56 0 -63 2q-40 5 -40 39zM-17 722q0 26 35 111t56 92q39 12 242 26q182 12 259 12q168 0 168 -58q0 -27 -37.5 -98t-60.5 -87q-21 -3 -137 -3q-78 0 -234 -16t-235 -16 q-56 0 -56 37z" />
<glyph unicode="&#x3cc;" horiz-adv-x="1077" d="M717 660q0 -160 -13 -267q-22 -182 -80 -286q-74 -133 -205 -133q-145 0 -229 107q-68 87 -95 239q-18 102 -18 246q0 301 73 503q53 147 137 229q55 54 79 54q72 0 151 -82q86 -89 139 -236q61 -169 61 -374zM542 594q0 95 -21.5 185.5t-46.5 90.5q-4 0 -9 -3 q-41 -80 -108 -80q-38 0 -78 26q-14 -11 -26 -68t-12 -115v-23q2 -9 2 -13q17 -124 63 -193q50 -74 99 -74q79 0 114 107q23 70 23 160zM720 1417q0 -31 -54 -114l-78 -112q-28 -42 -66 -42q-31 0 -52 24.5t-21 55.5q0 16 44 111q39 85 58 118q27 47 75 47q37 0 65.5 -25.5 t28.5 -62.5z" />
<glyph unicode="&#x3cd;" horiz-adv-x="2363" d="M1868 1546q-41 -62 -178 -169l-316 -237q-239 -182 -414 -335l-145 -125l-128 -110q-55 -51 -88 -91q-32 -49 -70 -119q-83 -156 -103 -187q-55 -85 -114 -121q-74 -46 -174 -30q-23 6 -38 18q-55 40 -44 119q8 57 47 117l11 16t19 21q76 74 469 411q463 395 776 639 q432 338 504 309q17 -14 21 -28q8 -33 -35 -98zM1734 532q-39 -20 -109 -97t-94 -137q-135 55 -120 251q31 64 115 147q102 103 157 83q68 -93 51 -247zM1000 1233l-258 -219q-90 101 -56 266l259 218q89 -100 55 -265zM2263 1424q-41 -61 -179 -169l-316 -237 q-238 -182 -414 -334l-145 -126l-128 -110q-55 -51 -88 -91q-31 -49 -69 -119q-83 -156 -103 -187q-55 -84 -114 -121q-74 -45 -175 -30q-22 7 -37 18q-56 40 -44 119q7 57 46 117q7 9 12 16.5t19 21.5q75 74 468 410q464 395 777 639q432 338 503 309q18 -14 21 -28 q8 -33 -34 -98z" />
<glyph unicode="&#x401;" horiz-adv-x="1279" d="M975 288q0 -46 -35 -220q-14 -74 -83 -74q-12 0 -35 2.5t-35 2.5h-518q-37 115 -76 527q-35 368 -35 551q0 176 243 382q227 190 414 222h9q47 0 47 -62q0 39 -14 -24l-28 -145q-16 -93 -25 -105q-23 -32 -84 -55q-101 -39 -155 -76q-83 -58 -159 -149q-95 -111 -95 -187 q0 -51 55 -49q387 167 417 167q48 0 48 -72q0 -21 -5.5 -60t-5.5 -60q0 -125 -60 -183q-35 -35 -176 -85l-250 -98q0 -102 60 -127q319 25 502 25q79 0 79 -48zM235 1899q131 0 131 -105q0 -30 -44 -58q-40 -25 -75 -25q-123 0 -123 103q0 29 37.5 57t73.5 28zM774 1907 q34 0 69 -31.5t35 -61.5q0 -92 -143 -92q-41 0 -73 21q-36 24 -36 63q0 69 45 89q25 12 103 12z" />
<glyph unicode="&#x402;" horiz-adv-x="1741" d="M1642 479q0 -230 -124 -472q-148 -286 -356 -286q-34 0 -61 23t-27 58q0 63 114 122q124 64 195 242q61 151 61 313q0 361 -349 361q-90 0 -302 -80q17 -225 17 -372q0 -35 7 -106t7 -107q0 -183 -109 -183q-42 0 -73 29.5t-31 70.5q0 15 5.5 45t5.5 45q0 49 -7 147 t-7 148q0 143 -23 402q-24 280 -27 402l-186 -1q-330 -2 -330 131q0 45 29.5 74.5t73.5 29.5q54 0 161 -15t161 -15q61 0 182.5 2.5t182.5 2.5q76 0 228 -11t228 -11q42 0 71.5 -30t29.5 -73q0 -42 -29.5 -72t-71.5 -30q-69 0 -209 11.5t-211 10.5h-107q3 -120 16 -309 q164 63 318 63q269 0 408 -145t139 -415z" />
<glyph unicode="&#x403;" horiz-adv-x="1262" d="M1189 1365q0 -43 -29 -72.5t-72 -29.5q-71 0 -301 12q-225 11 -301 10h-85q3 -138 27 -448q22 -290 22 -449q0 -35 7 -106t7 -107q0 -183 -109 -183q-42 0 -73 29t-31 71q0 15 5.5 45t5.5 45q0 49 -7 147t-7 148q0 156 -33 467t-33 467q0 46 29 75t74 29q91 0 91 -19 q0 -5 44 -6h52q72 -1 308 -12q228 -10 308 -10q43 0 72 -30t29 -73zM604 1637q-36 0 -63.5 28t-27.5 64q0 34 31 65q43 42 131 159q66 86 147 143q27 19 53 19q36 0 63 -28.5t27 -64.5q0 -40 -38 -70q-70 -56 -135 -145q-68 -94 -129 -145q-28 -25 -59 -25z" />
<glyph unicode="&#x404;" horiz-adv-x="1234" d="M1203 1233q0 -46 -26 -77q-28 -34 -73 -34q-63 0 -96 75q-30 66 -56 79q-19 10 -100 10q-180 0 -338 -169q-144 -155 -160 -313q155 23 459 74q13 3 24 3q41 0 68.5 -30t27.5 -72q0 -75 -80 -95q-100 -26 -275 -51l-280 -40q-8 -47 -8 -94q0 -125 81 -219q84 -99 207 -99 q102 0 209 55q54 28 158 102q76 56 104 56q41 0 71 -32t30 -73q0 -43 -38 -79q-255 -234 -534 -234q-207 0 -350 159q-138 155 -138 364q0 388 202 677q219 315 560 315q96 0 157 -19q35 51 91 51q71 0 93 -116q10 -51 10 -174z" />
<glyph unicode="&#x405;" horiz-adv-x="1420" d="M1201 530q0 -316 -121 -436q-109 -108 -376 -108h-355q-1 10 9 110l20.5 202.5t10.5 108.5q37 34 125 60q29 8 81 19q35 0 49 -34q33 -77 110 -77q78 0 116 6q68 11 80 42q9 56 -126 109q-145 57 -344 57q-27 0 -55.5 -1t-57.5 -4q-135 28 -173 75q-61 75 -61 307 q0 229 145 408q109 134 283 224q134 69 193 69q31 0 74.5 -63.5t43.5 -112.5q-2 -42 -7 -82.5t-20 -109.5q-175 0 -316 -96q-128 -87 -140 -180q-4 -20 21 -26.5t80 -6.5q46 0 78 1t61 2q155 0 254 -24q146 -35 223 -126q95 -112 95 -313z" />
<glyph unicode="&#x406;" horiz-adv-x="1119" d="M380 287q10 -73 10 -135q0 -57 -11 -89.5t-37 -32.5q-33 -30 -76 -30q-40 0 -78 30q0 127 -28.5 318.5l-56.5 397t-28 399.5q0 196 8 339q2 49 9 111q17 9 28 13q37 14 68 14q23 0 42.5 -5.5t38.5 -21.5q0 -178 28 -508q18 -217 54 -545q28 -255 29 -255z" />
</font>
</defs>
</svg>
